<mxfile host="app.diagrams.net" modified="2022-11-01T03:39:32.223Z" agent="5.0 (Windows NT 10.0; Win64; x64) AppleWebKit/537.36 (KHTML, like Gecko) Chrome/104.0.0.0 Safari/537.36" etag="-tB2tKwboA7wRr_c_7ba" version="20.5.1" type="github">
  <diagram id="a3WnuILdoGUgqh_r0Jv0" name="第 1 页">
    <mxGraphModel dx="830" dy="393" grid="1" gridSize="10" guides="1" tooltips="1" connect="1" arrows="1" fold="1" page="1" pageScale="1" pageWidth="827" pageHeight="1169" math="0" shadow="0">
      <root>
        <mxCell id="0" />
        <mxCell id="1" parent="0" />
        <mxCell id="yQNdhb8caFljwRBjTB0E-1" value="" style="shape=image;imageAspect=0;aspect=fixed;verticalLabelPosition=bottom;verticalAlign=top;image=data:image/png,iVBORw0KGgoAAAANSUhEUgAAAMgAAADIEAYAAAD9yHLdAAAABGdBTUEAALGPC/xhBQAAAAFzUkdCAK7OHOkAAAAgY0hSTQAAeiYAAICEAAD6AAAAgOgAAHUwAADqYAAAOpgAABdwnLpRPAAAAAZiS0dEAAAAAAAA+UO7fwAAAAlwSFlzAAAASAAAAEgARslrPgAAER9JREFUeNrt3W1sVGXex/H/f1oEwQLagCkUedL4sAHrnLZIG0uWsGBWlJhSwlJ84Soqaou2Yi2rGO1C3cWnDkbAko1L2BiooCirLguSKM+dmRZEl1JDlEVqUGR5soil174YazZ739w3XG3naud8P28mp2k7v9NYvs60c6qCuPA8z/O8kSOlREqkZMoUM8lMMpNuvVV6S2/pfdVVWqIlWpKeLrVSK7V9+rjeC3RJWZIlWadPmxfNi+bFQ4f0Fr1Fb/nyS23SJm364AN5TV6T19atC08OTw5PPnDA9dxEp64HJKrMisyKzIprrzVvmbfMWxUVkimZkjl1qkQkIhHl6w50IlNqSk3pxo2B9wLvBd579NHwyvDK8Mq9e13vSjT8Q9bBYo80SktNrak1tc89p1mapVnJya53Af71449mgBlgBjz+ePSD6AfRD15+2fWiRBFwPSAxBALePm+ft+9Pf4odP/884QC6ih499Bv9Rr956aXggeCB4IHly2NvD/DvXzvxBWynYGmwNFhaWSmFUiiFd9/teg+A89MCLdCCe+7xXvFe8V75/e9d7+nueArLkhf0gl6woEBUVHT1atd7AFw8zdVczZ06NRwKh8KhNWtc7+lueARykcaZcWac6dVLciVXchctcr0HgD2TY3JMzvPPXx26OnR1qGdP13u6GwJykU5uOrnp5Kb775dtsk22DR3qeg+Adlgki2TRsGH90vql9Uu77z7Xc7obAnKR9Iye0TMzZ7reAaADVUqlVBYWup7R3RCQC3TjAzc+cOMDgwfLO/KOvON5rvcA6ECZkimZ2dnZjdmN2Y3p6a7ndBcE5AL1GNxjcI/BnscLAYEE9NP3dUtNS01LTUaG6zndBQG5UGtlraxNS3M9A0AnelPelDcHDXI9o7sgIBfIPGQeMg8NGOB6B4DOow/qg/rgwIGud3QXBORC3SP3yD28shxIaHyfXxQCAgCwQkAAAFYICADACgEBAFghIAAAKwQEAGCFgAAArBAQAIAVAgIAsEJAAABWCAgAwArXfPGrJ+QJeaKx0dSZOlNXVNRyecvlLZdv2bJn7p65e+aePu16Hromz/M8z+vdW5/RZ/SZnBxz1pw1Z6uqZIEskAU33OB6H+KLgPiM2Wl2mp0nTmi2Zmv2hAnRaDQajR486HoXuodIJBKJRL7/XibLZJm8cWMsKBMmmCpTZar27tU5OkfnXHGF652ID57C8hn9RD/RT95/PxKNRCOEA+0UC0pTUywc777reg/ii4D4zXAZLsMJBzpYWMIS/uIL1zMQXwTEZ0yFqTAVxrjeAaD7IyAAACsEBABghYAAAKwQEACAFQLiNymSIim9e7uegQRzXI7Lcf678hsC4jP6rr6r7+bk/HSkrvcgMZhNZpPZlJvregfii4D4UjAYewVxWZnrJejeghuDG4Mb58zRhbpQF7b9jwn8gkuZ+FplZfB48Hjw+J13ypfypXy5ebPWaZ3WHTvmehm6qJCEJNS/v5ln5pl5eXlapmVaRjj8ioD4nI7X8To+Ozt21HYL/N9ijzhcr4BrPIUFALBCQAAAVggIAMAKAQEAWCEgAAArBAQAYIWAAACsEBAAgBUCAgCwQkAAAFYICADACtfC8qv5Ml/m796tI3SEjpgzJ7l/cv/k/rt27RiyY8iOIc3Nrueha8pNzU3NTU1JaS5tLm0uHTdOsiVbskOh2EUVhw93vQ/xRUB8xmw32832r7/Wm/VmvXnChHA0HA1Hv/3W9S50D1uPbj269ejJkzJP5sm89eszijOKM4obGpIkSZKkvj72XvxhKb/gKSyf0SN6RI+sWROJRqIRwoF2qg/Vh+pDjY2xo82bXe9BfBEQn9FROkpHHTzoegcSzDpZJ+u++ML1DMQXAQHQbma5WW6WG+N6B+KLgAAArBAQAIAVAgIAsEJAAABWCIjPtOa35rfmX3qp6x1ILDpdp+v0Pn1c70B8ERCf0Tqt07qcHNc7kEgCAZkhM2TG2LGulyC+CIgvTZzoBb2gF7z3XtdL0J2peku9pd7Sp58WFRW97jrXixBfXMrEr1RUtLra2+Bt8DbcdZfkSZ7kbdkiq2SVrDpxwvU8dFFTZIpMSU2VCqmQivHjpVqqpdrzXM+CGwTE78qlXMrz8mIHbbfAeYQkJCHXI9BV8BQWAMAKAQEAWCEgAAArBAQAYIWAAACsEBAAgBUCAgCwQkAAAFYICADACgEBAFghIAAAK1wLy6/my3yZv3u3jtAROmLOnOT+yf2T++/atWPIjiE7hjQ3u56Hrik3NTc1NzUlpbm0ubS5dNw4yZZsyQ6FtEzLtGz4cNf7EF8ExGfMdrPdbP/6a71Zb9abJ0wIR8PRcPTbb13vQvew9ejWo1uPnjwp82SezFu/PqM4ozijuKEhSZIkSerrY+/Vu7frnYgPnsLyGT2iR/TImjWRaCQaIRxop/pQfag+1NgYO9q82fUexBcB8RkdpaN01MGDrncgwayTdbLuiy9cz0B8ERAA7WaWm+VmuTGudyC+CAgAwAoBAQBYISAAACsEBABghYAAAKwQEACAFQICALDCpUzQKbxt3jZv229+I43SKI1XXeV6j2+FJCShvXsjkUgkEvnrX13PQWIhIOhQ48w4M8706nWq+lT1qeqVK2WZLJNlAR7pOtJ27TO5RC6RS9LSXO9BYiEg6FCnMk9lnspsCwbhcC120cxkvs/RKfgGBwBYISAAACsEBABghYAAAKwQEACAFQICALBCQAAAVggIAMAKAQEAWCEg6FAjRowYMWLEDz+YSlNpKvfvd73H9ybKRJm4Z4/rGUhMXOIAHaqmpqampubcOamRGqm59lrXe3wvIhGJuB6BRMUjEACAFQICALBCQAAAVggIAMAKAQEAWCEgAAArBAQAYIWAAACsEBCfac1vzW/Nv/RS1zuQWHS6Ttfpffq43oH4IiA+o3Vap3U5Oa53IJEEAjJDZsiMsWNdL0F8ERBfmjjRC3pBL3jvva6XoDtT9ZZ6S72lTz8tKip63XWuFyG+uBaWX6moaHW1t8Hb4G246y7JkzzJ27JFVskqWXXihOt56KKmyBSZkpoqFVIhFePHS7VUS7XnuZ4FNwiI35VLuZTn5cUO2m6B8whJSEKuR6Cr4CksAIAVAgIAsEJAAABWCAgAwAoBAQBYISAAACsEBABghYAAAKwQEACAFQICALBCQAAAVggIfM1UmSpT9d13ZolZYpY8/bQYMWJGj+7xdo+3e7zdu3fbrV6v1+v1o0bJbJkts596yuwwO8yOo0dd7wdc4mKK8CUzz8wz87Zta9nesr1l+5137pm7Z+6euUeO/PwOQ2SIDPnvj9q7V1bKSlm5d6/3qveq9+rSpTJBJsiEtWtlk2ySTbfc4vq8gHjiEQh8xXxsPjYfNzToAl2gC3796/8RjgsUiUaikei33ybNSpqVNGvy5Ngjl337XJ8fEE8EBL5i6k29qX/kkVgAjh9v7+fbdc2ua3Zdc+KEudXcam595BHX5wfEEwGBP5RIiZR89VVdTl1OXc7f/tbRnz66MLowunDDBrPNbDPb/vlP16cLxAMBgT80SIM07NoVOzCmc+7EGDkmx+RYNOr6dIF4ICDwh2RJluTvv+/su9Hb9Da97fRp16cLxAMBgT+sk3WybujQzr4bs8lsMps6/36AroCAwEfGjMk6lHUo61Bqakd/5oyPMj7K+GjAAOkrfaXvmDGuzxSIBwICH+nRo/WO1jta7ygv7+jPHLgycGXgyqee0izN0qxkXl8FXyAg8JcH5AF54NFHM4szizOL8/Pb++kyZ2bOzJw5fbq+oC/oCw8/7Pr0gHgiIPCXZbJMlgUCrTNbZ7bOXLUqGA1Gg9GKitGLRi8avahPn//vw3NTc1NzU1NSPM/zPK+y0uSZPJP3l79IRCISUXV9ekA88VAbvqSzdbbOTkqKHT35ZPLO5J3JO4uLg/2C/YL9/v53nabTdNqBAz9/wH7ZL/tHjmxuaW5pbvnVr7RIi7QoJSUWJNdnA7hBQAAR0TE6Rsf07Rs7ys8/XxhUVHiYAcTwFBYAwAoBAQBYISAAACsEBABghYAAAKwQEACAFQICALBCQID/dL/cL/e3tsYOmprabs0Ss8QsOXfO9TygKyEg8KdsyZbsf/0rdvDcc609W3u29szKumzWZbMum9WzZyQSiUQigwa13Y5cNHLRyEU9e8be3/PMWDPWjF2wwFSZKlP13XeuTwdwgVeiw1fMWrPWrF2xIikpKSkpqaSkNr02vTb96NGf3+E8LzWvqampqalpewQSjcaufRWN3rj4xsU3Ln7++eSC5ILkgj/+UWqkRmpmzXJ9nkA8EBD4grneXG+u/93vokOjQ6NDFy7sqM+7W3frbm17JHPffZmDMgdlDvrHP0yaSTNpL77o+ryBzsRTWPCBJUuiK6Mroys7LhznEz4cPhw+/NJLUiiFUlhV5frMgc5EQJCYSqRESr76Knbw2GPxvvvm9Ob05vTHHzdbzBaz5T+u6gskEAKChGSWmWVmWWVl7Ifg338f7/v/bNpn0z6bdvas5Equ5P7hD66/HkBnICBILD/9Gm7SlUlXJl25Zo3rOUnvJL2T9M6aNabW1JralhbXe4CORECQUMwwM8wM+/zz2pramtqar792vaftt7z0bX1b396/3/UeoCMRECQULddyLW/72UfXEfvTt11vF9AeBASJpVIqpbLtT9V2HTpJJ+mkZH5tHgmFgCCxrJf1sn7QINcz/pupNJWmcvBg1zuAjkRAkFjOyBk5M3JkdmN2Y3ZjerrrOTfl3JRzU86gQfqmvqlvXnON6z1ARyIgSCwRiUhEtaWopailaOpU13P0WX1Wny0oaNvleg/QkQgIEpIWaqEWlpfnpuam5qampMT7/m9YfcPqG1ZfdpmWaZmWlZW5/noAnYGAIDG9LC/LywMHntl6ZuuZrfG/pEivg70O9jrYdr9paa6/HEBnICBIbIVSKIV33+15nud5zz4be2NnPZWk6i31lnpLn3lG39A39I3f/tb16QOdiYDAR556ygt6QS+4alUsKO1/ZND2Q/Lg4eDh4OHVq6VaqqV6/nzXZwrEAwGBv6ioaEGBZEmWZDU2BhuCDcGGUCgWlF/+8nw/M4n9VlffvsGHgw8HHx4/3jvkHfIOvfJKYHRgdGD0/v16u96ut7v/oT0QT7ywCf5UK7VS26ePztAZOqOoKPbGoqIzw84MOzNMxCvwCryC06fb3v3c9HPTz03v0+fnvzc1RabIFNcnAbhFQID/zU+BcT0D6Mp4CgsAYIWAAACsEBAAgBUCAgCwQkAAAFYICADACgEBAFghIAAAKwQEAGCFgAAArBAQAIAVAgIAsEJAAABWCAgAwAoBAQBYISAAACsEBABghYAAAKwQEACAFQICALBCQAAAVggIAMAKAQEAWCEgAAArBAQAYIWAAACsEJALZGaZWWaWMa53AOg8fJ9fHAJygXSSTtJJ333negeATpQv+ZL/zTeuZ3QXBOQCtW5s3di6MRx2vQNA5wkUB4oDxXyfXyh1PaB7CQSC7wffD76/Z48+qU/qk7/4hetFADrKJ59EIpFIJJKRETtubXW9qKvjEchFaW01n5pPzacPPhg7/vFH14sAtEOmZErm2bN6QA/ogdmzY28kHBeKgFykusfqHqt77KOPYkfTpslD8pA8dOqU610ALpxZbBabxSdParqma3pBQfhY+Fj42Natrnd1N0muB3RXTU1NTU1N+/YNTBuYNjBtxQodpaN0lKq8Lq/L61dcob20l/ZKSZGwhCWcnOx6L+BLs2W2zP7hB6mVWqn9/PPYG//8Z/Oh+dB8WFgYXRFdEV3Bzzxs/RuoXQMjLRSJxAAAACV0RVh0ZGF0ZTpjcmVhdGUAMjAyMi0xMS0wMVQwOToxNTo1NCswODowMOcImQkAAAAldEVYdGRhdGU6bW9kaWZ5ADIwMjItMTEtMDFUMDk6MTU6NTQrMDg6MDCWVSG1AAAAU3RFWHRzdmc6YmFzZS11cmkAZmlsZTovLy9ob21lL2FkbWluL2ljb24tZm9udC90bXAvaWNvbl9zZm9naG81Z29kay9zZXJ2ZXItaG9zdC1mdWxsLnN2ZwC0q9QAAAAASUVORK5CYII=;" vertex="1" parent="1">
          <mxGeometry x="482.5" y="442.5" width="120" height="120" as="geometry" />
        </mxCell>
        <mxCell id="yQNdhb8caFljwRBjTB0E-133" value="" style="edgeStyle=orthogonalEdgeStyle;rounded=0;orthogonalLoop=1;jettySize=auto;html=1;fontFamily=Times New Roman;fontSize=6;" edge="1" parent="1" source="yQNdhb8caFljwRBjTB0E-4" target="yQNdhb8caFljwRBjTB0E-132">
          <mxGeometry relative="1" as="geometry" />
        </mxCell>
        <mxCell id="yQNdhb8caFljwRBjTB0E-4" value="" style="shape=image;imageAspect=0;aspect=fixed;verticalLabelPosition=bottom;verticalAlign=top;image=data:image/png,iVBORw0KGgoAAAANSUhEUgAAAMgAAADIEAYAAAD9yHLdAAAABGdBTUEAALGPC/xhBQAAAAFzUkdCAK7OHOkAAAAgY0hSTQAAeiYAAICEAAD6AAAAgOgAAHUwAADqYAAAOpgAABdwnLpRPAAAAAZiS0dEAAAAAAAA+UO7fwAAAAlwSFlzAAAASAAAAEgARslrPgAAQKBJREFUeNrt3XlAVPX2APBzLgwgiOKopAaoBKQoIAygLC4pbqVmKT61UisVTQMsl3yWppnlloL6XPJVmqmJ9ty3cEtWYQZwwR0VVEwRRUSBmbnn98fXoZf9fLnBZTmff3BmrtxzB7hn7vd+v+cgMKYAl2iXaJdoS0vb9bbrbdfXr4/n8Byea9BA+k76TvrO3p7UpCZ1w4ZwBa7AlQYN4CbchJsNGkAv6AW96teHVbAKVtnYwCbYBJtsbGgv7aW9dnZwCA7BIRsbsARLsLS2hi7QBbrUqYO/4C/4i6UlGMAABmvrvwQUDdEQLUniQd26/zv6ggIIh3AIl+W/vGQO5mB+7x69SW/SmyUlsA/2wb47d6AESqDk3j3oCB2hY1ERdsNu2O32bVgLa2Ht3btQG2pD7Xv3YDtsh+03b0J9qA/18/LgRXgRXszLk6/IV+Qr16/jGByDY27cIBdyIZe8vJLIksiSyLy8zAGZAzIHlJYq/XNlNQsqHQCrmjQ+Gh+NT9260i3plnTLzU2uJ9eT6zVrBh/Dx/CxoyP8Dr/D705OcBtuw20nJ/AHf/B3dKQ6VIfqODriOByH4154QenjqC4okRIp8do13It7ce/ly3AEjsCRnBywAzuwy86GF+AFeCE7G+bDfJifkyN+bhcvip/bmTNanVan1RUUKH0crGrhBMIAANF3u+923+3Nm9M0mkbTPD3FJ+yXX6b21J7au7riMlyGy9zcwAM8wOPll2EhLISF9vZKR86eD1pAC2jB779jMRZj8enT4grn7FlJI2kkzZkzIkGdPm02wWyC2YSjR49sO7LtyLYLF5SOmymLE0g15b7BfYP7BgsLm0k2k2wmeXkZFxoXGhe2aYMa1KDGywteh9fhdS8vSqZkSvb0xLbYFtvWqaN03KwqKSgQQ4RHj5I1WZN1RgZuxa24NSNDtpKtZKv0dDHEdvQoD7FVT5xAqijvQO9A78AmTWANrIE1Go3UXGouNddoaB2to3VBQfAP+Af8IygI/dEf/WvVUjpeVjNRCqVQisGAE3ACTsjIgINwEA7Gx8NcmAtztVq8h/fwXlxcaq/UXqm9srKUjpc9GU4glZT/Wf+z/mcdHIwDjQONA7t0oSE0hIZ06QKe4Amer7yC43E8jndwUDpOxp4HSqAESsjJgWtwDa4dOIDn8Tye37fPsMGwwbBh376MZRnLMpZduaJ0nOzPOIEoRAwx1a5tlWuVa5XbtSuWYAmWhITQWBpLY7t0wfbYHtu//LLScTJWGdBhOkyHT5/GxbgYF+/bR5ZkSZaxscWNixsXN/71VzFEdveu0nHWNJxAypnnXM+5nnPt7VUalUal6dED9sN+2B8aCs2gGTTr2hWWwlJYammpdJyMVUW0hJbQkuJiyIIsyIqLA3uwB/vt26VAKVAK/OWXVOtU61TrnByl46yuOIE8JxqNRqPRvPQSjIbRMHrQIGpEjahRv344DafhtDZtlI6PsZqIDtJBOpiWJjWUGkoNN22CjbARNq5bx/dcng9OIE/I77LfZb/L9esb+xj7GPv06yeuKIYMwYk4EScGBoIWtKBFfl8Zq8ymwBSYkpkJhVAIhatXi4Wkq1drtVqtVpubq3R4VQWf6B7BNA22lmst11quffrAcBgOw0eMoKW0lJZ26YKjcTSONjNTOk7G2LMTf9dGo1gH8+uvsrfsLXt/+63UUeooddy2TSy01OuVjrOy4QTygHeCd4J3gouLFCAFSAFvv02lVEql772HgRiIgY6OSsfHGKt4phX+cApOwalVq/BdfBff/fZbcaVy/rzS8SmtxiYQsfI6JERMHxw/HvIgD/K6deMhKMbYI4VBGITJMlmRFVnt2SNKxsybp1usW6xbvH+/0uFVtBpyopQk7yzvLO+s117D+lgf63/6KXbGztjZ31/pyBhj1cBUmApTMzLAFmzB9ptvYDyMh/Hr1lX3oa9ql0BEkT+VCqbBNJj2/vsQC7EQ+8knkAAJkNC0qdLxMcZqgEAIhMBLlzAO4zDuq68ICQm/+666JZRqkkAkSSSOfv0gGIIheNYsiId4iHdxUToyxhgzJRSKp3iKnzXLVmurtdV+990hPISH0GBQOrynVWVnEfmG+4b7hvfr11jfWN9Yv2kTICDg6NGQAzmQo1YrHR9jjJXJgRzIsbNDRETs3bv0ZOnJ0pOhoU30TfRN9Feu5Obm5ubmnjqldJhPqspcgYj1F25ucpacJWdFRcE4GAfjevRQOi7GGHs+DhyQ3pXeld798MOUsSljU8aeOKF0RH+n0iYQUQLExkY1XjVeNX7CBBgFo2DU5MmQCqmQamGhdHyMMVY+TPdIli41W2+23mz9Z58dcT3iesT1zh2lI3tYpUsg4l5Gt25i/vXKlbwOgzFWs+XmUj/qR/1GjtT9U/dP3T+3b1c6IhNJ6QBEDSlra/E1Kgp8wRd8d+/mxMEYYwAAjRvjRbyIF7du1WRpsjRZy5ebqnkrHZliVyDeYd5h3mEBARiKoRj60084CSfhpObNlX5DGGOssqM4iqO4rCwMwiAMGjxYTA9OTq7oOCr8CsTHx8fHx2fkSAkkkODgQU4cjDH2ZDAYgzHY2ZlSKZVS4+I0qzSrNKsmTarwOMp7Bx2pI3UkK6vCC4UXCi8sXiyuON5/v6IPlDHGqr0f4Af4Yc0aGAbDYFhYmKjZde9eee2u3BJIm9/a/Nbmt4YNpVvSLenWjh04A2fgDD+/8tofY4wxgfbTftp/5IicIWfIGb16pXdI75De4caN572f555AvMiLvKhZM7P7ZvfN7u/eza1ZGWNMGWX3SoIxGIO7dXveVYSfWwLxfdv3bd+3W7cmO7Ijuz17IBESIbFJE2XeNsYYY2UCIAACrl6VWkgtpBbduj2vhYrPnEDKWrkCAMDhw+Jr48bKvluMMcb+IhIiIfL6dTEtuEOH1M9SP0v97PTpp/12T51AvEZ5jfIa9eKLZv3N+pv1P3yYZ1MxxljVIPog5eRgAAZgQHCwmAacnf2k3+eJE4j/Wf+z/mfr1DEeMx4zHktMhC/hS/jS3V3pN4QxxtiToZk0k2aeOGHuYu5i7hIY+KQlU55wHQiiwcZgY7D59785cTDGWNWGn+Kn+GmrVgZbg63BdvXqB88+9oXFY5dz90nwSfBJmDwZ38F38J0PP1T6wBljjD0fuBbX4toWLV4sfrH4xeJ7964WXy2+Whwf/3f/72+vQPya+zX3a+7nB+ZgDuZffKH0gTLGGCsf8k35pnzzyy9FxRCN5u+2f+SlilhBbm5+1/eu711fU40VHx+lD5Axxlg56wAdoMPRo3AIDsEhX99HteJ95BVI4eHCw4WHIyPFI04cjDFWY/wGv8Fvnp60kBbSwoiIR232lysQ0Y+jbl1oC22h7cWLcASOwBE7O6WPhzHGWMWiZEqm5Dt39N56b713s2bHjh07duzYrVum1/96BaIFLWjHjePEwRhjNRu2xbbYtk4dCwsLCwuLsWMffr0sgZjWd8BqWA2rw8OVDpwxxljlQFEURVGRkQ83sjI3/cN4znjOeC40FKIhGqLr1VM6YMYYY5UDRmAERqjVtaAW1IJ+/cSzq1aVXYGQH/mR3z/+oXSgjDHGKqkFsAAWDBxoeohlfTuCpWAp+OpV9EM/9DM3f5Z9MMYYq34ohVIoxWBAX/RF38aNJfRGb/Ru354TB2OMsf+lLE+shbWwNihIkjpJnaRO3CmQMcbY46HFtJgW+/k9uAfCCwUZY4w9HhyAA3CARiMBAQE5OSkdEGOMsaqBiqiIihwdJRgH42CcWq10QIwxxqoGUQZerZagBEqgpG5dpQNijDFWRYyG0TBarUbR05xI6XgYY4xVLU/YkZAxxhgTOIEwxhh7KpxAGGOMPRVOIIwxxp4KJxDGGGNPhRMIY4yxp8IJhDHG2FPhBMIYY+ypcAJhjDH2VDiBMMYYeyqcQBhjjD0VTiCMMcaeCicQxhhjT4UTCGOMsafCCYQxxthT4QTCGGPsqXACYYwx9lQ4gTDGGHsqnEAYY4w9FU4gjDHGngonEMYYY0+l/BPIR/ARfHTlitIHyhhjNUYFnXfLP4EMhsEweOVKiqAIinj7bfHkvXvlvl/GGKshaAktoSXFxTATZsLM4cNN593y3m+FDWHphuiG6Ib89JPkLDlLzkFBFEdxFJeVVVH7Z4yx6ik722yQ2SCzQR06aHtqe2p7/vvfFbXnCr8HkhKTEpMSk55ukWeRZ5Hn50fv0/v0/vr1FR0HY4xVbWvXlpaWlpaWtmmTciHlQsqFlJSKjsBcqUNPckxyTHLMzxePBg3SpGnSNGmbNsH78D68v3QpICBggwZKxccYY5VGO2gH7W7cQDM0Q7PRo1OjU6NTozdtUjqsSjMLS+ut9dZ6b9xoPt58vPn41q3hNXgNXvvPf5SOizHGlEJhFEZhmzbpm+mb6Zu1bl1ZEoeJYlcgj5I8OHlw8uDffxeP3nzTO8Y7xjumSxcpXoqX4hctgsNwGA63bKl0nIwx9twFQRAEnTsH8RAP8ZGRupG6kbqRO3YoHdajVJorkEdJC00LTQvdtw9+g9/gNy8vmk2zaXZkJC2iRbSosFDp+Bhj7NncuwepkAqp06cXuBS4FLi0bq3VarVabeVNHCaVPoGYaHVanVan1+tCdCG6kKgo42rjauPqli2pH/WjfsuXi630eqXjZIyxR/IFX/AtLRUPli6VLWVL2dLVVYta1OLnn58LPxd+LrykROkwH1eVSSAPy1iWsSxj2ZUrun/q/qn756hR8iB5kDzI1RViIAZiVqygFEqhFINB6TgZYzVYGIRBmCwDAQHFxMhD5aHy0FatxBXGBx+kJaQlpCVcvap0mE+ryiaQh6WNTxufNv7SJa2z1lnrHBZGRVRERZ6e8AP8AD+sWSO24isUxlh50+tpCA2hIT/+CMthOSxv1UqMoAwYkBaYFpgWeO6c0hE+L9UmgTwszTbNNs325Emth9ZD6/HOO2IBo5OTaawRwiEcwm/dUjpOxljV9ed7sdHReBgP4+GXXtJF6CJ0EUOGiCuNU6eUjrO8VNsE8jCxgPHaNdNYI0RBFEQ1b04LaAEtmDBBXGKeP690nIyxSsw0SwoAAMaPN29o3tC8oYODSBQREanWqdap1jk5SodZUSrdNN6KIi4pCwqgA3SADvPmiWfnz/fd7rvdd3uXLjSVptLUkSPBD/zA7/XXxZWLhYXScTPGKoDpZncKpEDKli04A2fgjBUrUnul9krttW+f2IgIXMEVXJUOVjk15grk8RCJX5DYWNOYpXlH847mHZ2cMAuzMGvSJDpEh+jQ8eNKR8oYe96OHaOm1JSaTpyod9G76F0cHU3nAdN5QWxHpHSklUWNvQJ5XH9e2DhnDtSG2lB7zhy/xX6L/Ra3aiWPkcfIY0JDIQIiIOKtt8QCIBcXpeNmjD1Kdrb4unmz+LpqlRiC0ulAC1rQAsAv8Av8onSclR9qNBqNRlN+GZUSKZESr13DOIzDuEmTtJ21nbWdf/zxwavVLJMjeod5h3mHtWsnpUgpUkq/fjAZJsPkPn3ga/gavnatwRe7jFUc+oq+oq/OnMGTeBJPbt1Ku2gX7dq0Sbdbt1u3Ozn5wVbV7vyjSdAkaBIGDoS1sBbWzpsHiZAIiU2alNseyzuB/MV0mA7TU1NhKkyFqWPHiktE0w+0+hL3VpydZSvZSrbq3Ruuw3W43qsXzsf5OL9jR7GVSqV0nIxVCab1FafhNJxOS4N5MA/mbd9OGtKQZts2nU6n0+m0WqXDLG/i/N2iBe2hPbQnOhq7Y3fs3rVrRe2/4hOIyYNfAOpMnanzihVmVmZWZlaffprikOKQ4nDzZoXHoxC/y36X/S7Xry/fkG/IN155hWzJlmy7dIEsyIKszp1xMk7GyW5uSsfJmBLoMB2mw6dPY3tsj+3378cgDMKgfftwIk7EiQcP1rTzhYeHh4eHR716qn6qfqp+M2aID+KjRqEf+qGfeYXfklAugTyEoiiKovLzMQIjMGLWLPHs0qVibLLmdjD0ved7z/eeoyO1p/bUvnNn8ewrr4g/rHbtMBIjMdLNTYzdIiodL2OPRQMa0BCJ2Y2nT0M/6Af9kpIgAAIg4MABwwbDBsOGfftMFSeUDlcpHakjdSQrq8J9hfsK94WF4X/wP/ifKVMgCZIgqWFDpeOrNAnkYaZ7J9AH+kCf2bMtvrX41uLb5ctFH5H795WOr7Jol9Mup12OWq3vq++r7xsQIJ5t2xbmwlyYGxhIHagDdfDzw7bYFtvWqaN0vKwmKSgQQytHjoihlaQk2AJbYEtSkopUpKKkpD/3BWIu0S7RLtGWlnaL7BbZLRoxgj6nz+nzTz6Bb+Ab+ObFF5WO72GVNoH8RSREQuT16yCDDPI336g6qzqrOkdHc0J5PN6B3oHegU2awBpYA2s0GumwdFg67O5Ot+k23W7VCh3RER01GsiDPMhr0UKUYJB4mjf7f+TmQk/oCT21WhpAA2jAiROYh3mYl5kpZUqZUqZWmzI2ZWzK2JMnxfayrHTElZXGR+Oj8VGpxD2cQYMogAIoYNo0DMZgDHZ2Vjq+v1N1EshDaB7No3mXL0tvSW9Jb33zjWWJZYllycqV8Tfjb8bf5DLvTyuoflD9oPq2tveb3m96v6mbGy7GxbjYzU0MLbz8Ml2hK3TFzQ0X4AJc4OYmqiG7ueGH+CF+aGurdPzs8VAyJVPynTs4CSfhpLNnaRyNo3FnzsDn8Dl8fvq0VCwVS8WnT8uZcqacefZsrUu1LtW6dOYM/309G/cN7hvcN9SubT3Feor1lGHD6Av6gr74+GMxYtCsmdLxPakqm0D+fwUFMASGwJBvv4VVsApWLVokZnmZ5n2z8iI+STVoIL0kvSS95OBgmG2YbZjt6GjW3ay7WfemTeVN8iZ5k4MDbsbNuNnBAe7CXbjr5ASlUAqlDRqAHvSg/6+vfE/nz0z3DFSgAlVeXtlXC7AAi7w8sT4pO5v6Ul/qe/kyjIWxMDYnh36gH+iH7GzzSeaTzCfl5MACWAALcnJq2s1npfif9T/rf9bBwXDfcN9wf+xYTMM0TBs5EqIhGqLr1VM6vmdVzRLIH0zl3DEVUzF161YYBaNg1PLlIqGYVpTypXXlJElt17Zd23Ztw4Zyvpwv5zdoQB2pI3Vs0AC+hW/h2wYNxInSxgYKoRAKra3hNtyG23Xrip+7rS3UgTpQx9oah+NwHG5jA/2hP/R/9B8sjafxNP7x/6BxHs7Def9PMc4+0Af6EIkPMrdv00paSSuLiuAO3IE79+6J2TKFhWAHdmBXUAC2YAu29+6JxFpUBCNgBIzIy8NDeAgP5eWV3C+5X3L/xo2jE45OODohL0/shH9vKydE0UG1c2fpK+kr6auwMEBAwL59xevVb5p+tU0gj/SgaCJewAt4YcUKciZncv7xRzHbKzdX6fAYY5Wf51zPuZ5z7e1V61XrVevfeUcsXBw5sqZNu695CeRhpvUoA2gADUhMFNMKY2LEPPOffhJXLKZPfoyxmkScH62txQfP116DV+FVeHXIENgFu2BX9+5iq+p3ZfG4OIE8ymgYDaNLSuAiXISLv/4KnaEzdI6JuZ93P+9+3i+/ZA7IHJA54O5dpcNkjD070/RZ2162vWx7deuG23AbbgsNFaVQ3nxTVOW1sVE6zsqGE8gTKmsgkwIpkLJ5M67G1bj6559Vm1WbVZv37+dpxYxVXqaFeXcS7yTeSezUSfpQ+lD6cOBA8arpXkXdukrHWVVwAnlOaAktoSXFxaIESVwc6lGP+thYscI+Nram1OZhrDIoqz03VZ4qTw0JQUBACAmhxbSYFvfowdPOnw9OIBWEZtNsmn3hAjqjMzr/+quYFRQba/az2c9mP+/Zc8T1iOsR1zt3lI6TsapAVGCoVcuQYcgwZAQFyU6yk+wUEoLn8Bye690bvoQv4Ut3d6XjrO44gSjNdK/lHJyDc/Hx0AyaQbO4OJRQQikpST9CP0I/IjExAzMwA2/fVjpcxiqCF3mRF9nZSYlSopTYrp10VDoqHQ0IEPckg4PBBVzAJSgIlsJSWGppqXS8NRUnkCqC4iiO4rKyYAWsgBXx8dAKWkErrRYmwkSYGBcnhsjS0sTWvE6AVW6mISayJmuyDg6GCTABJmg00Ak6QaegIHgZXoaXvb25pE7lxgmkugiHcAi/dYt6Uk/qmZgIM2AGzEhLE3+Ax46hB3qgR2bm/U/uf3L/k9OnxSyy0lKlw2bVgyjRYWFhNdZqrNXYFi2kblI3qZu7u2wn28l2rVuLsuPe3rgLd+GugIDqshK7puMEUsOYVuhDCZRASXY2folf4peZmQ8XxRMrs0+csNXaam21J04cwkN4CIuLlY6fVQwxW8ncvGhH0Y6iHU5ORneju9G9Vau/FOHMxmzMdnenUAql0FatcAyOwTFWVkrHzyoGJxD2v/mCL/iWlkIIhEDIpUtQH+pD/exsaAJNoEl2thhqyM4mV3Il10uXxIrc7GzRryQ7+67LXZe7LtnZ58LPhZ8LLylR+nBqCtO6htrnap+rfc7JSTRkcnISK6WdnPAsnsWzTZvCLJgFs5o2FSVhnJxEzS1HR4iFWIht2lQsrLWwUPp4WOVU/j3R+1E/6rd8OW7CTbipVSvxbHCw0gfOlJCbK1b0ZmfTWBpLY3//HXMxF3Pz8+kNeoPeyM+XfCQfySc/X/6P/B/5P7duST9JP0k/5edTJmVSZn6+aAmcn6+qr6qvqn/zpvGK8YrxSn6+qBhQUKD0ET4u001i1Q7VDtUOtdo4yzjLOEutFlVw1Wp0R3d0V6vlt+S35LfUaryCV/CKWk2BFEiB9eqJxkJqNTWmxtRYrRZVk194QdRecnISe2ncWOnjZBWsC3SBLocPkx3ZkV1mpjjvhoWV1+7K/wokFVIhdfp08cnmyy/FL/i8eeLF8PBy2y+rkWgpLaWlRqNYQfzHtGhqTs2peWkp+IEf+BUVlf2Hg3AQDt6/j7EYi7F/DNFRW2pLbf+oNIDJmIzJtWuXvR5CIRRiZSVu+taqVfb9HqxYFrXW/vjkTi2pJbWsUwdH42gcbWam9PvEqpldsAt2LVwIPaAH9Jg4UVSznjJFjCBMm1Zeu62wHrriE6JeLx5FRGgSNAmahKQk8id/8l+2jDvmsefhzyfoP27SioVkT/B9DuJBPPj0r/9l+yfcP2N/r6CAjtJROhoWprPX2evsf/7Z9IoGNKCpgAgUmx6nDdQGagPXrUN/9Ed/Dw/RUGXfPqXiYYyxyo4+po/p49hYMRTs6anT6/Q6/R+Jo6IpPr/a1PBJ21nbWdu5a1ciIqKwMBgDY2AMFytkjNVcdISO0JH798U0/U8+0Q3WDdYN7t69sjTKUzyB/BmRWBC3YgUsgSWwpE0b0Xt5+3alI2OMsYpCY2gMjdm61byveV/zvq1aaYdqh2qHzp4tXq08C4Ur7B7IkxINns6fFzeDevcWK1dDQiiWYik2OhoOw2E43LKl0nEyxtgzC4IgCDp3DuIhHuIjI3Xv6d7Tvbdjh9Jh/Z1KdgXyaKm9Unul9oqNLXAucC5w9vYWZdX/+U/wB3/w5xpRjLEq5EHlCMzCLMyaNOl+8P3g+8GtWokPzpU/cZhUmQRiYlqQpgvUBeoCv/rKaoPVBqsNTk6mMUJKpmRK5qq2jLFK5MH0cfqevqfvZ88unVc6r3TeSy+l3kq9lXprzpyqWlqo0g5hPa74m/E3428WFsJQGApDZ8/2vO553fP699+rdql2qXZNnkz1qT7VDwsTs73+a74+Y4yVk7Kb35/BZ/DZsmVyD7mH3OOrr9I90z3TPW/cUDq+56XKXYH8naMTjk44OuH6da291l5rP26cHC/Hy/FNm5quUMRWublKx8kYq0baQTtod+OG6QpDfGB96SXdLN0s3ayPPkrvkN4hvUP1SRwm1S6BPMz0gzPNYigYWjC0YGjz5mLdydChYj71qVNKx8kYq0IICOj8edEoLjISkiAJkpo103nqPHWen3wi7mVU/w+qVX4I60n9uajf6tXi65o13gneCd4J3bpJ5pK5ZD5ihGj01Lu3eF2lUjpuxphS9HoKozAK27oVl+EyXLZihViHERsrioxWnmm1FU0Sa95rejVeWU4LTAtMC9y9W+uv9df69+snnm/aVNQwmjLF1JJW6UgZY+XowZWFeDB5suQsOUvOTk66kbqRupH9+4vEsXeveL3mJg4IgzAIk2Vzsc4CuUzPQ8ouQbWgBe2sWbAG1sCaWbN8fHx8fHw0GkRExCFDaAEtoAX/+AeOw3E47oUXlI6bMfb3KIqiKCo/X/x979ghvSS9JL20erVYLmAqqUQkXlc62kroQafI8i/n/mBFZXHt4trFtd96S0xXqz4lSsoa73xb9G3Rt127yvfl+/L9QYNwNa7G1X36iK3q1lU6TsZqJNM6sSNwBI5s2SIvkhfJi9avrxNQJ6BOQGysaJRmMCgd5vMiOkPWrm111+qu1d2ffsIluASXmM5Dz1/FNZQKgAAIuHoV3oQ34c3Jk0Xtqx9/FC9WvyG00NDQ0NBQM7Os81nns84HBNAP9AP90KsXuIALuPTtKxr8vPyy0nEyVi1MgAkw4eJFkTD27pVBBhm2by9JLUktSd2zp6qus3hc3lneWd5ZvXtLoVKoFLp4sXjW1Bem/CjWkZAm0SSadOgQjIWxMDY8XHddd113/ejRio5DKRofjY/Gx8ODFtNiWtyrF27Frbg1JIT6Ul/qGxjIrUEZ+4NpXQUewkN4KCFBJIzYWGyJLbHl9u2pa1LXpK45flzpOCuKj72PvY+9pyeuwTW4ZtEimAyTYXKHDhUdh+Itbct6dJ+Fs3B26VIzGzMbM5vp01McUhxSHG7eVCoupYghMSurOxvvbLyzMShI6i31lnp37gyBEAiBXbrQMlpGy3x9uTERq05M5wGciBNxYmoqFVMxFZvuRezfb7vIdpHtooQEMeT0R+OvmkJ84GzQgPpQH+ozbRq8Cq/Cq6NHK30eUDyB/MWDMu7kS77ku2SJRT2Lehb15sxJckxyTHLMz1c6PKV5zvWc6znXxka1TrVOtc7bm+bQHJqj0Yg/vKAgGAfjYFzHjrAQFsJCe3ul42XsDwUFop9FSgoOwkE4KD5eviBfkC9otXJzubnc/PDhDMzADOTadu1y2uW0y1Gr9Q56B71DeLjoLBgZKV6tPPdUK18C+X8VFIjWuAsXimnHCxZUtR7YFc3vst9lv8tubsb9xv3G/X5+2Af7YB8vLzKQgQxt2kAmZEKmpyfPHmPPghIpkRKvXcMADMCAo0epE3WiTunpomNjRoYxyBhkDEpJSY9Oj06PPntW6XgrKy/yIi+yszNfbr7cfPm4cTSchtPwyMjK3qm1iiSQ//KgiiVEQzREL1hgSDWkGlIXLeJPLk/HL9Qv1C+0USOjq9HV6OrlBafgFJzy9IR5MA/mvfyyWDjl5gYe4AEeL7/MVzbVm5iW/vvvWIzFWHz6NHwCn8AnZ85QM2pGzc6cwYt4ES9mZJiPNx9vPj4jI3lw8uDkwb//rnTcVU1ZwvA19zX3/fBDcV4bN06c1/5oxVzZVb0E8hBR1r2wEJMwCZO++w7d0A3doqPFfO6sLKXjq25Mv/gWzhbOFs6ursbpxunG6W5uGIVRGOXsDDEQAzEODlSbalNtBwcxj75pU+gKXaGro2Nl/0RV1ZVVo/4VfoVfc3LEFfulS3gX7+Ldy5chFEIh9PJliqAIisjKMptmNs1s2pkzcj25nlzvzBm+si8fop+RszNNo2k0LSJCnLfefRc/xA/xQ1tbpeN7WlU+gTyMltJSWmo0QjqkQ/rmzTgCR+CIxYu1qEUtHjr0YKtqc7xVjf9Z/7P+Z+vUoT20h/Y4OlJH6kgdGzSgoTSUhtrbi8Rjbw9u4AZuDRqAAziAQ4MGYA/2YN+gAdiBHdg1aIA61KGudm04AAfggI0NxVEcxdnYiIRlZ4en8BSesrGBpbAUllpaKnbAo2E0jC4poRbUgloUFYkT+u3bGIzBGFxUBK/AK/BKURH5kA/53L0Lt+E23M7Lg+twHa7n5cFluAyX8/KgH/SDfjduYCNshI2uX0dzNEfzGzfErKS8POyO3bF7Ts4R1yOuR1y5nYGyEH3G+oz1GfvKKzgEh+CQMWMICAhef13pm97P/UirWwJ5pAdFE/EaXsNrK1aYJ5snmyevWsU356s303qcU6dOnTp16q9XPlKQFCQFWVureql6qXo9fqLRb9dv128vKRHVnu/de/j1Fi1atGjR4s6dmJiYmJgYo1Hp94GVD3GvsX59+ZB8SD40dCi9QW/QGyNH1pR1XjUngTyEltASWlJcjJZoiZZbtkAtqAW11q0r2Fuwt2Dv7t1/LrrIGKvJXKJdol2iLS3rrqq7qu6qnj2hN/SG3oMGUQ/qQT369Kmp67ZqbAJ5pAelD8SQw7Zt1Jt6U++YmDrN6zSv03zXrupW+oAx9jBJEusuAgMBAQFDQ8UIxuDB4nGDBkpHWFlwAnlMlERJlHTzJuZgDuZs2gT9oT/0//FHcdMxPv7BVvw+MlaF+C32W+y3uFUrYwdjB2OHd97Bd/FdfHfIEPFq48ZKx1fZcQJ5RqYy79gCW2CLnTtpNa2m1bt3G1QGlUF14IDokFhUpHScjNVEpoW3Zv3M+pn169xZ2ihtlDb26AFO4AROr74qGss1a6Z0nFUVJ5ByUlai5Q7cgTvJybgFt+CWbdtEGenYWN0DD7bm95+xZ2CaJitPlafKU0NC8FV8FV/t3RuaQTNo1rWr4rPxqilOIAqhBEqghJwcXIALcMHu3XgVr+LVPXswF3MxNz4+JSYlJiXm2jWl42SsMhDnqcaNYSWshJVBQfA+vA/vd+8uVsJ3746BGIiBjo5Kx1nTcAKp1HJzoSf0hJ5aLbiCK7jGxUEUREFUfHzBsIJhBcNSUni2GKvKTNOsL3a82PFixxYtjN8ZvzN+FxQEQ2EoDA0ORkd0REeNBnbDbtjdsiU3wKtcOIFUVX7gB35FRdSZOlPn1FS8jtfxekKC/Kr8qvxqYqI8R54jz9HpMpZlLMtYduWK0uGymslrlNcor1EvvihNlCZKE318pJ3STmlnQADZkz3ZBwbibJyNs/38xNbW1krHy54MJ5AaoaAAOkEn6HTuHDmREzllZqId2qHdiRNye7m93D4z0yzTLNMs88QJLgHD/hcPDw8PD4969SxUFioLVatWYoW1u7to8dyqlai26+6ORjSi0dOTa6dVb5xA2J8REFBeHsVSLMUeP44rcSWuzMzEhbgQF547RztoB+3IycEBOAAHZGdjG2yDbbKz+Z5N1WIqoknplE7pTk60gTbQBicnUaXZyQm+gW/gGxcX0fjN3R3egDfgjdatsR22w3b16ysdP6scyr8n+nSaTtPT03EaTsNprVqJZ1UqpQ+cPV+mlf1i1ll2NuRBHuRlZ8NVuApXs7NFld/sbEzDNEy7eBHDMAzDrl8XDbLy843BxmBjcH6+aqJqompifr5oKGYqMVPTP+AgipIZarV+jn6Ofo5abRZnFmcWp1bjKByFo9Rq2U62k+1eeAH2wl7Y27QpjsfxOL5pU/H+OzmJMv6OjlAH6kAdJ6eaunK6ZtDrxXn3xAlx3m3Tprz2VP5XIKmQCqnTp4sicrGxYiXnhg3iRV6ow/6GqXx/FERBVH6+qGaan4/JmIzJ+fn0AX1AH+TnYymWYmlhIa2klbSyqAgGwkAY+F89sOfAHJhz5w52xa7Y9Y/aVOLK6vZtGWWUkQgBAUGWxasPV6WtW1cM2UiSRBJJhEiRFEmRdnZl3y8MwzDM3Fw+Ih+Rj/xRZVUUQbS0hLtwF+5aW5MFWZCFrS3+C/+F/1KrqS21pbZqNU7H6ThdrYYIiIAItbqqlfdmCgmAAAi4ehV/wp/wpwEDKJ/yKb9rV9GIatq08tpthSUQUQ3388/b/Nbmtza/NWxottNsp9nO9etF2enOnctt/4wxVl11gS7Q5fBh2Af7YN8//qHVarVabW6uhjSkoc8/L+8EYl7Rx5veIb1DeocbN0Tv7+7dC/MK8wrzpkwRQxtTpoiteIiLMcb+whd8wbe0VMzC/OKL2u/Xfr/2+19/rVSNPkmp98F0wLqVupW6ldOni5u3Gg0dpIN0MC1NqbgYY6yyoUN0iA4dPy5GdAICtMO1w7XDZ85UurirYgnkYaIo4bFjd76/8/2d7wMCIB7iIX7WrLKMyxhjNYWpEdm39C19O3Nm8c7incU7NRoxRGUqgaS8SpNATEwrq7VWWiut1ZQpRkujpdGydWvaRbto186dSsfHGGPlRayjiY01uhndjG4+PjofnY/O57PPMgdkDsgcUPk+SFe6BPKw9Oj06PTos2d19jp7nf1rr8kxcowc06ePqQqu0vExxthTIyCg8+fF1wEDdIN1g3WDu3YV94ozM5UO7+9U+gTysDTnNOc0523bivOL84vzW7QgIiIKCxOv5uYqHR9jjD1SO2gH7W7cENPTP/mktra2tra2dWsxhB8To3R4T6rKJRAT0yWdKIq+YoV+oH6gfqCrq7gyiYyESIiEyOvXlY6TMVZzmRrRmRIGJEESJDVrph2qHaodOnu2uAleXKx0nE+rwqfxlpc/N26KihItKX/4gdzJndzHjIHv4Dv47sMPMQADMKBRI6XjZYxVQw8W9IlpttHRtRrValSr0b/+FX8z/mb8zcJCpcN73qpNAnmYuCQsKAAd6EA3a5Z7H/c+7n3mzas1t9bcWnMHDqQSKqGSiRPxU/wUPzWVWGGMscdHX9FX9NWZMyCBBNK//mXbxbaLbZfly6v6lcXjqrYJ5GF/nsWwerX4+uOPYiX+q6+KWV4ffICbcTNu7tEDlsNyWC5V2SE+xtjzQ0tpKS01GtGABjTs3EnbaTttX7JE103XTddt794HW9W4mm0PEoheL76WwwpwX/AF38raSpJIzKvesQPswR7sd+wQQ19OTqJm1/Dh8BF8BB+9956oTvrii0pHzBirKNnZInH8+9+i0dW//11l+uuU93n3wfo8SfToLr+xORpEg2hQ1ekHIIa+srNFYpk61Xmz82bnzU2bmqYPi+l2MTF0hI7Qkfv3lY6XMfas7t2jLbSFtqxbB1tgC2x57TXnB3T+On+d/4wZVSZxPFDu590USIGUO3fMMRzDMfzWLfGJW61+7jtqAS2ghY9Peb5Z5SkmJiYmJsZohBiIgZht28Sz27YF2QfZB9nb2pYElASUBPTtKw+QB8gDBg2Ct+FteLtrV/RDP/QzrzFDhIxVaqaKFg2hITTcuxd2wS7YtW6dmL25ZctRh6MORx1Mk3BAdM5VOuZnUd7n3ckwGSbfuoU+q31W+6zeuROjMAqjevZ83vsxjR3CClgBK774wmKaxTSLaXPmJDkmOSY5Vr9P8GIIrEED8ahvXxpLY2ls7964BJfgkpAQ8Ty37mSsXDxo9QzvwXvw3p49NJgG0+Dt2y0OWBywOLBlizjvmPrMVB/tctrltMupVat0eun00ukTJ8JIGAkjP/sMR+NoHG1mVj573bEDfTJ9Mn0y58/Hd/AdfOejj8r9SAMhEAIvXRK1riZMqKoLaJ6U6Qdcoi/Rl+hDQqQN0gZpQ+/e4sqmVy+xFfdHYexx0DyaR/MuX4ZESITEHTtwCA7BIVu31n6x9ou1X9y/v6bMgtKkadI0af37i2UK8+ZBAiRAQtOm5b7jITAEhsybh77hvuG+4f36UTzFU/zGjRX9BoiWmYcO0Vv0Fr0VEZGmT9On6TMyKjoOpflu993uu93ZWZ4qT5WnhoSIxkYhIaKxUEgINxZiNcoYGANj7t4lK7Iiq6Qk1KMe9bGx4p5tbKzuAbFxzZn9JGaNtmgB3aE7dF+4EPbAHtjTvbsy0bzxBnqRF3mRnZ1ZilmKWUpeXvle8jxa2TS5UTgKR33/vTxYHiwPnjkzbXza+LTxly4p8wYpLzQ0NDQ01MzsQvqF9AvpGo1oFdupk3xSPimfDAyEM3AGzrRrh+NwHI574QWl42XssZgW3A2BITAkKUlUn01IEKWJDh4U6cHU1sHUIbLmKZsVuhE2wsYpU6gZNaNm772n1D1WSqEUSjEY0Bd90bdBAzS94JPvk++Tf+CAaPnZqZPSb5zpphc1pabU9PvvpUgpUor88stU61TrVOucHKXDq2z8e/v39u/dvLnxqvGq8WpAAK2ltbS2XTtoBI2gUdu22Bk7Y+fWrcXWfA+GlZMHVw7QGBpD42PH4CSchJNHjqAOdahLSqJMyqTMhATTbEelw61sfO/53vO95+hI7ak9tZ88WZwH339f9AGxsFA6PpgLc2Huvn3aztrO2s4hIWUJRLNfs1+zf8gQmAATYMKqVUrH+RcP6uNDD+gBPVauNMw0zDTM/Oqrqja9TimmK5msrKysrCxXVwqjMArz9BS9xNu0oQE0gAZ4eUFdqAt1PTwwEAMx0NFR6biZwjSgAQ0RWIIlWGZni9+PY8foNt2m2xkZmIAJmJCRYQw2BhuD09NF9ezz58V/rrlXDo/La5TXKK9RL75o/qn5p+afTp4Mu2E37B4+HJbCUlha+dbPUQ7lUM477+iu667rrq9ZU5ZAPOd6zvWca2OjylJlqbIuX4YjcASO2NkpHfAjD2QJLaElxcV4EA/iwR9/lMfIY+QxCxak2abZptmePKl0fFWd6ffBYpvFNottbm5yopwoJ7q54VJciktdXeEqXIWrLVqQF3mRl5sb3sE7eKdpU1gIC2Fh1Vn3U9NQIiVS4rVr2A7bYbtLl2goDaWhZ85Ik6RJ0qTTp0XtuDNn5GPyMfnYmTOSp+QpeZ49K9ZF3bundPxVnXehd6F3YcuW0hJpibRk3DjqRJ2o0zvv4Bgcg2OsrJSO75HCIRzCb90S92IdHEy/D/jwdhXVjP25e/BJiWbSTJq5a5doAfnNN2mhaaFpofv2KR1eTSF63VtZFUQURBREODpKsiRLsqMjvolv4psODuIKt2lT+pl+pp+bNMHVuBpXv/AC7IAdsKNhQ7FQ0zQNukEDsT7J9LgGMX3yV4EKVHl5ZV8twAIs8vKgP/SH/jduwEE4CAevXQM1qEGdmwvO4AzO2dnwCrwCr2Rni8R/+XJhamFqYWpOjqlhm9KHVzMgiskxXbrI+XK+nP/RRxiHcRjXo4dYaIL47PuoGOIe9bRppoWVZUf48IYeHh4eHh716llYWFhYWJgaNtWtq/QBPLX20B7anzxJvagX9Vq+XD9OP04/bvXqY8eOHTt27NYtpcNj/5tp6C37jew3st9o0MAw3zDfML9ePXGz1caGJtNkmmxnZ3bK7JTZKRsbOA2n4bS1tZwpZ8qZdeqIK6I6dfACXsALZmbiE5SFBX1P39P3NjYP7w8bYSNsZGkJd+Eu3P2ve0W1oTbUvnePrtE1uvbXEzC+i+/iu0VF4pNaaSk1p+bU3GgUbQXu3JHcJXfJ/c4d4wzjDOOMoiL8Br/Bb4qKxLTLggKzrWZbzbYWFpasK1lXsu72bVFdOi9PfHceCqrsxDR9tdrQ1tDW0HboUGpEjajRyJHiA1CLFkrH99RMVx5REAVRzZuXFal94JEZ0LeJbxPfJuPGUWNqTI2/+Ubp43heTCVI0B/90X/DBnFz6ocftKhFLf72m9iK/2AZY48iSWI6bceO9Av9Qr8MGwa5kAu5AwZU+qGoJ/UJfAKfhIdrQ7Wh2tBFix5++ZEJRAxFmJvf3Xp3692tqakwA2bADC8vpY+n3HwEH8FHV66IoombNplqXomMGx8vNqo5880ZYwB+i/0W+y1u1UrcYw0NpX20j/YNGYKTcBJOat5c6fjK17FjtVNrp9ZO9fERCzMNhoe3+NsxOB8fHx8fH41GzDtOSKg008kqiKnev5jevG4dzsSZOHPdutTPUj9L/ez0aaXjY4w9u7IFeiNgBIwYNAjqQ32oP2gQfA1fw9eurkrHV2EezHaV9kh7pD3t2qXEpMSkxKSnP2rzx76JI97gjz8Wj+bNU/o4KwedDrMwC7N+/hleg9fgtZ07U9ekrkldc/y40pExxv5KLMzz8BD3xHr2lLPlbDl74EDshJ2wk7e30vEpzdQSXBeiC9GFREX93fZPOAsAUSSSX34Rj/v2VfqAKxtKoARKyMnBBbgAF+zeLS59d++WOkodpY779j18E4ox9vyIBFG3LgZjMAaHhFAcxVFcjx40n+bT/B49cDyOx/EODkrHWdmIdWGbNulG6kbqRoaGPnj2b4fsn3gaWVnVR12prlR36BDOwBk4w89P6Tegsisr1fIz/ow/p6eL+fexsTgMh+Gw7dtFYklIEFvzTXzG/peyexO2sq1s26sXqUhFqpAQPISH8FCHDjVtqP1p0UE6SAfT0gzLDMsMy9q3F7P//ihr/3eeeh6y/1n/s/5nHRyM0cZoY3RcXIVVgaymaAEtoAW//y5qWiUmihIuCQl4ES/ixcRE1RbVFtUWrba6lsFnDOC/PqBOLp1cOtnXV9oh7ZB2BASYar/hr/gr/hoQwAtWn40YqrpwwbjRuNG4sX37p63o8cwLWbznec/znte0qXRJuiRdOnSIE0n5KCtithk34+YzZ6ANtIE2cXFwES7Cxfh4KVPKlDK12pSxKWNTxp44oXS8jP1/vAO9A70DmzSBNbAG1mg0eBfv4t2gIHACJ3AKDsaNuBE3+vpW1lIeVZ2pDL5UJBVJRR07pvZK7ZXaKyvrab/fc1sJaZrFIAL89Vcea1TIg+nIVEIlVKLVikZWmZkUQREUcfy4tFJaKa3MzLzd/3b/2/0zM3llMnsWpsoDRR2LOhZ1bNlSHi4Pl4e7u4sGda1bwyJYBItatYILcAEu+PiIafIvvqh03DWN6d6s2Q2zG2Y3QkJSHFIcUhzOnHnW7/vcl9KbrkjwA/wAP9izB9tje2z/8svKvG3sUco6Rd6G23D7/Hm0Qzu0O36czMmczDMzoS20hbbHj6MHeqBHZqYYQjt3jofQqreyISRNqaZU4+oKt+AW3GrZEpIhGZJbt0YDGtDg7g6X4BJc8vAQQ63Ozkq1gWB/40ElDpyFs3BW9+7Pu5p5udViafNbm9/a/NawoXRDuiHd2LxZHEBgYMW8a6zctIN20O7GDbACK7DKzgYbsAGb7GywAzuwy86mvbSX9l68SDEUQzHZ2aLxTXa28Q3jG8Y3srPFTbrr15U+jOqq7dq2a9uufeEFeYo8RZ7i5ES9qTf1dnKSz8hn5DOOjtgNu2G3Zs3EBwcnJyiCIihycoJiKIZiJydIgiRIathQ6eNgz0NcnLRF2iJt6dtXXHHcvPm891Duxbxcol2iXaItLev0qtOrTq8lSzAUQzH0/ffLe7+sciqronwRL+LFa9dEf4H8fPqYPqaP8/PxDJ7BM/n59Da9TW/n56MDOqBDfj4EQRAE5edTARVQQX4+bsftuD0/X94ub5e337olrZPWSevu3sXpOB2n375dtr+pNJWmGgyl+lJ9qb6w0PS8qPVWUvKsVWbF0K21dWlpaWlp6R9j9hYqC5WFytZWzFL8o/EPTaNpNM3OTh4kD5IH1a4t4larxXHVq4d1sS7WVatFy2e1mi7TZbqsVuMaXINr1GpyIzdyU6txPs7H+Wq1KE6pVotGQ40aVbtSGuzJxEAMxKxYcT/1fur91A8/zByQOSBzQGlpee2uwqtB+uzy2eWz64MPoB7Ug3rz5/MvPKt87t0TReT+695QNERDtClBcEMuVjmYPpBJo6XR0ujIyNS01LTUtOXLK2r/ipUTNs3jNg4zDjMOW78eO2JH7GjqmMcYY+yRCAjo1CnRt2XgwDR9mj5Nn5FR0WFISh2/abqpYalhqWFpu3bi2aVLy/ogMMYYE0znxS2wBbYsWSLKxGs0SiUOk0rX0ESUIggOpq/pa/r63//GyTgZJ7u5KR0XY4xVNFGKJStL3OsaMUK3WLdYt3j/fqXjMql0CcTEdHMS3oV34d1PPxWzfj76iBcYMcaqrQfVcMmHfMhn7lwcgSNwxFdfVdaWwpU2gTysTXib8Dbhrq6Sr+Qr+UZFiYVKPXsqHRdjjD0fO3bIi+RF8qLIyLTAtMC0wHPnlI7o71SZBPIw33q+9XzrBQXJ5+Xz8vmZM0W/jk6dlI6LMcb+1ivwCrySlCS3ldvKbT/9NC00LTQtdN8+pcN6UlU2gTxMNK8PCSEgIPjqK5gG02Car6/ScTHGmHDsmJg99cUXovp2TIzSET2rapNAHmZKKDLIIMPcuTgNp+G0Nm2UjosxVgNMgSkwJTMTZsJMmPn55yJhbNwoXqw+s0yrbQL5M0kSs7v69RPT38LDxfPBwUpHxhirBrpAF+hy+DDEQizELlokEsamTeLF6tvfp4YkkL/yC/UL9Qtt00aeLc+WZ48eDaEQCqFvvy1e5ZXGjLH/h2mWVBEVUdGGDWZxZnFmcd9883e9w6urGptAHmZqhUlzaA7NGTYM8zAP8yIjRa2mZs2Ujo8xpoAACICAq1dFWfpvvxUL+hYvFlcYeXlKh6c0Lr/8QG5ubm5ubklJ7urc1bmrk5ODMRiDcfHimyturri5IjUV6kAdqIOIaZiGac7O4n+pVErHzRh7Xu7doy20hbZs3Ah60IP+n/986dxL5146N2ZM7IDYAbEDDhwQ54nKtx5DKXwF8oRM/RL0r+tf17/eqxe8Cq/Cq0OGwC7YBbu6dxdbcWJhrDIq64NzDs7BuQMHsBE2wkY//mgVahVqFfqf/8TfjL8Zf/OPqs3sf+ME8px4eHh4eHjUq2cRZRFlEdW7N12ja3TtnXfwIB7Eg126gBa0oEV+vxmrSJ2gE3TSaqkn9aSeP/6ouq66rrq+fn3y4OTByYN//13p8Ko6PqGVM1NjLbNIs0izyE6dYCNshI0hIeRADuTQpw8GYAAGNGqkdJyMVUUURVEUlZ+P4RiO4fv2iXVgsbFGf6O/0X/HjoxlGcsyll25onSc1RUnEIWEhoaGhoaamZ0/f/78+fNt2mAERmBESAi9Tq/T67174wbcgBsCAmA5LIflkmJVkxmrFB6sqyAXciGXbdukbClbyo6NFQ3DDh0SN7X1eqXDrGk4gVRSnnM953rOtbdXrVetV60PCRFlnAMDqS7VpbqBgXASTsJJT0/uRc2qMkqhFEoxGERr3WPHYD7Mh/nx8aL1bkKCPl4fr4/ft49bIVdOnECqKJFgbGxU61TrVOu8vcX0Y40GJ+JEnBgUJLZ65RWxcLJBA6XjZTUTLaJFtKiwEC7CRbiYnIyDcBAOio+XL8gX5Atardxcbi43P3w4AzMwA/9oRcyqBk4g1RqiuAfTsqWZwcxgZvD1pR20g3a0agVe4AVeHh6YgimY4u4OCZAACU2bKh0xqyICIRACL12iz+gz+uzECZgNs2H28ePSaem0dPr4ccNEw0TDRK02vUN6h/QOJ0+K/1R9SngwgRMIA4A/FlLKfrKf7OfuLhKLhwciImKrVtAVukLX1q3hLtyFuy1aQCmUQmnjxjy7rIozdbqzAAuwyM2FN+FNePPkSdHA6MQJcY/h+HHaSTtp5/HjqvGq8arxJ04ccT3iesT1zh2lw2fK4j989lTcN7hvcN9gYWFtbW1tbe3gIE40TZqIVxs3hgiIgAhnZ2gP7aG9szMlURIlOTujFVqhVZMm8CV8CV+aVvhz6ZhnY7p5nJcnpq1evQoH4AAcyMqiH+gH+iErC4bBMBiWlUUbaSNtzM3F/tgf+1+9ahhkGGQYdOqUuMdQVKT0kbCqhRMIUxCi32W/y36X1WrxuH5943DjcONwtRpX4kpcqVaLzmxqNTqgAzqo1eKKR62m6TSdptevj9twG25Tq2EBLIAFajUYwAAGlQp2wA7YYWdXtqsO0AE6mJtTN+pG3WxtyyL4BX/BXywtxf/7r0SmBz3o/+uxClSg+q8VyOZgDub37tGb9Ca9WVJS9v324l7cW1gIv8Fv8JvBYHqeNKQhza1b4jgMBhgH42Bcfj6tpbW09uZNdEM3dMvPF1cE+fl0mS7T5fx81KEOdfn5NJyG0/D8fNlNdpPdbt5UTVRNVE3Mz09xSHFIccjPf7AXHiJiFer/AP7CezadIEAEAAAAJXRFWHRkYXRlOmNyZWF0ZQAyMDIyLTExLTAxVDA5OjE1OjU0KzA4OjAw5wiZCQAAACV0RVh0ZGF0ZTptb2RpZnkAMjAyMi0xMS0wMVQwOToxNTo1NCswODowMJZVIbUAAABMdEVYdHN2ZzpiYXNlLXVyaQBmaWxlOi8vL2hvbWUvYWRtaW4vaWNvbi1mb250L3RtcC9pY29uX3Nmb2dobzVnb2RrL29kYmMtZnVsbC5zdmcrA1lCAAAAAElFTkSuQmCC;" vertex="1" parent="1">
          <mxGeometry x="502.5" y="720" width="80" height="80" as="geometry" />
        </mxCell>
        <mxCell id="yQNdhb8caFljwRBjTB0E-26" style="edgeStyle=orthogonalEdgeStyle;rounded=0;orthogonalLoop=1;jettySize=auto;html=1;entryX=0.5;entryY=0;entryDx=0;entryDy=0;fontFamily=Times New Roman;fontSize=6;" edge="1" parent="1" target="yQNdhb8caFljwRBjTB0E-4">
          <mxGeometry relative="1" as="geometry">
            <mxPoint x="542.56" y="638.75" as="sourcePoint" />
          </mxGeometry>
        </mxCell>
        <mxCell id="yQNdhb8caFljwRBjTB0E-43" value="" style="endArrow=none;dashed=1;html=1;dashPattern=1 3;strokeWidth=2;rounded=0;fontFamily=Times New Roman;fontSize=6;" edge="1" parent="1">
          <mxGeometry width="50" height="50" relative="1" as="geometry">
            <mxPoint x="640" y="880" as="sourcePoint" />
            <mxPoint x="640" y="170" as="targetPoint" />
          </mxGeometry>
        </mxCell>
        <mxCell id="yQNdhb8caFljwRBjTB0E-86" value="" style="edgeStyle=orthogonalEdgeStyle;rounded=0;orthogonalLoop=1;jettySize=auto;html=1;fontFamily=Times New Roman;fontSize=6;" edge="1" parent="1" source="yQNdhb8caFljwRBjTB0E-45" target="yQNdhb8caFljwRBjTB0E-85">
          <mxGeometry relative="1" as="geometry" />
        </mxCell>
        <mxCell id="yQNdhb8caFljwRBjTB0E-45" value="" style="shape=image;imageAspect=0;aspect=fixed;verticalLabelPosition=bottom;verticalAlign=top;image=data:image/png,iVBORw0KGgoAAAANSUhEUgAAAMgAAADIEAYAAAD9yHLdAAAABGdBTUEAALGPC/xhBQAAAAFzUkdCAK7OHOkAAAAgY0hSTQAAeiYAAICEAAD6AAAAgOgAAHUwAADqYAAAOpgAABdwnLpRPAAAAAZiS0dEAAAAAAAA+UO7fwAAAAlwSFlzAAAASAAAAEgARslrPgAAER9JREFUeNrt3W1sVGXex/H/f1oEwQLagCkUedL4sAHrnLZIG0uWsGBWlJhSwlJ84Soqaou2Yi2rGO1C3cWnDkbAko1L2BiooCirLguSKM+dmRZEl1JDlEVqUGR5soil174YazZ739w3XG3naud8P28mp2k7v9NYvs60c6qCuPA8z/O8kSOlREqkZMoUM8lMMpNuvVV6S2/pfdVVWqIlWpKeLrVSK7V9+rjeC3RJWZIlWadPmxfNi+bFQ4f0Fr1Fb/nyS23SJm364AN5TV6T19atC08OTw5PPnDA9dxEp64HJKrMisyKzIprrzVvmbfMWxUVkimZkjl1qkQkIhHl6w50IlNqSk3pxo2B9wLvBd579NHwyvDK8Mq9e13vSjT8Q9bBYo80SktNrak1tc89p1mapVnJya53Af71449mgBlgBjz+ePSD6AfRD15+2fWiRBFwPSAxBALePm+ft+9Pf4odP/884QC6ih499Bv9Rr956aXggeCB4IHly2NvD/DvXzvxBWynYGmwNFhaWSmFUiiFd9/teg+A89MCLdCCe+7xXvFe8V75/e9d7+nueArLkhf0gl6woEBUVHT1atd7AFw8zdVczZ06NRwKh8KhNWtc7+lueARykcaZcWac6dVLciVXchctcr0HgD2TY3JMzvPPXx26OnR1qGdP13u6GwJykU5uOrnp5Kb775dtsk22DR3qeg+Adlgki2TRsGH90vql9Uu77z7Xc7obAnKR9Iye0TMzZ7reAaADVUqlVBYWup7R3RCQC3TjAzc+cOMDgwfLO/KOvON5rvcA6ECZkimZ2dnZjdmN2Y3p6a7ndBcE5AL1GNxjcI/BnscLAYEE9NP3dUtNS01LTUaG6zndBQG5UGtlraxNS3M9A0AnelPelDcHDXI9o7sgIBfIPGQeMg8NGOB6B4DOow/qg/rgwIGud3QXBORC3SP3yD28shxIaHyfXxQCAgCwQkAAAFYICADACgEBAFghIAAAKwQEAGCFgAAArBAQAIAVAgIAsEJAAABWCAgAwArXfPGrJ+QJeaKx0dSZOlNXVNRyecvlLZdv2bJn7p65e+aePu16Hromz/M8z+vdW5/RZ/SZnBxz1pw1Z6uqZIEskAU33OB6H+KLgPiM2Wl2mp0nTmi2Zmv2hAnRaDQajR486HoXuodIJBKJRL7/XibLZJm8cWMsKBMmmCpTZar27tU5OkfnXHGF652ID57C8hn9RD/RT95/PxKNRCOEA+0UC0pTUywc777reg/ii4D4zXAZLsMJBzpYWMIS/uIL1zMQXwTEZ0yFqTAVxrjeAaD7IyAAACsEBABghYAAAKwQEACAFQLiNymSIim9e7uegQRzXI7Lcf678hsC4jP6rr6r7+bk/HSkrvcgMZhNZpPZlJvregfii4D4UjAYewVxWZnrJejeghuDG4Mb58zRhbpQF7b9jwn8gkuZ+FplZfB48Hjw+J13ypfypXy5ebPWaZ3WHTvmehm6qJCEJNS/v5ln5pl5eXlapmVaRjj8ioD4nI7X8To+Ozt21HYL/N9ijzhcr4BrPIUFALBCQAAAVggIAMAKAQEAWCEgAAArBAQAYIWAAACsEBAAgBUCAgCwQkAAAFYICADACtfC8qv5Ml/m796tI3SEjpgzJ7l/cv/k/rt27RiyY8iOIc3Nrueha8pNzU3NTU1JaS5tLm0uHTdOsiVbskOh2EUVhw93vQ/xRUB8xmw32832r7/Wm/VmvXnChHA0HA1Hv/3W9S50D1uPbj269ejJkzJP5sm89eszijOKM4obGpIkSZKkvj72XvxhKb/gKSyf0SN6RI+sWROJRqIRwoF2qg/Vh+pDjY2xo82bXe9BfBEQn9FROkpHHTzoegcSzDpZJ+u++ML1DMQXAQHQbma5WW6WG+N6B+KLgAAArBAQAIAVAgIAsEJAAABWCIjPtOa35rfmX3qp6x1ILDpdp+v0Pn1c70B8ERCf0Tqt07qcHNc7kEgCAZkhM2TG2LGulyC+CIgvTZzoBb2gF7z3XtdL0J2peku9pd7Sp58WFRW97jrXixBfXMrEr1RUtLra2+Bt8DbcdZfkSZ7kbdkiq2SVrDpxwvU8dFFTZIpMSU2VCqmQivHjpVqqpdrzXM+CGwTE78qlXMrz8mIHbbfAeYQkJCHXI9BV8BQWAMAKAQEAWCEgAAArBAQAYIWAAACsEBAAgBUCAgCwQkAAAFYICADACgEBAFghIAAAK1wLy6/my3yZv3u3jtAROmLOnOT+yf2T++/atWPIjiE7hjQ3u56Hrik3NTc1NzUlpbm0ubS5dNw4yZZsyQ6FtEzLtGz4cNf7EF8ExGfMdrPdbP/6a71Zb9abJ0wIR8PRcPTbb13vQvew9ejWo1uPnjwp82SezFu/PqM4ozijuKEhSZIkSerrY+/Vu7frnYgPnsLyGT2iR/TImjWRaCQaIRxop/pQfag+1NgYO9q82fUexBcB8RkdpaN01MGDrncgwayTdbLuiy9cz0B8ERAA7WaWm+VmuTGudyC+CAgAwAoBAQBYISAAACsEBABghYAAAKwQEACAFQICALDCpUzQKbxt3jZv229+I43SKI1XXeV6j2+FJCShvXsjkUgkEvnrX13PQWIhIOhQ48w4M8706nWq+lT1qeqVK2WZLJNlAR7pOtJ27TO5RC6RS9LSXO9BYiEg6FCnMk9lnspsCwbhcC120cxkvs/RKfgGBwBYISAAACsEBABghYAAAKwQEACAFQICALBCQAAAVggIAMAKAQEAWCEg6FAjRowYMWLEDz+YSlNpKvfvd73H9ybKRJm4Z4/rGUhMXOIAHaqmpqampubcOamRGqm59lrXe3wvIhGJuB6BRMUjEACAFQICALBCQAAAVggIAMAKAQEAWCEgAAArBAQAYIWAAACsEBCfac1vzW/Nv/RS1zuQWHS6Ttfpffq43oH4IiA+o3Vap3U5Oa53IJEEAjJDZsiMsWNdL0F8ERBfmjjRC3pBL3jvva6XoDtT9ZZ6S72lTz8tKip63XWuFyG+uBaWX6moaHW1t8Hb4G246y7JkzzJ27JFVskqWXXihOt56KKmyBSZkpoqFVIhFePHS7VUS7XnuZ4FNwiI35VLuZTn5cUO2m6B8whJSEKuR6Cr4CksAIAVAgIAsEJAAABWCAgAwAoBAQBYISAAACsEBABghYAAAKwQEACAFQICALBCQAAAVggIfM1UmSpT9d13ZolZYpY8/bQYMWJGj+7xdo+3e7zdu3fbrV6v1+v1o0bJbJkts596yuwwO8yOo0dd7wdc4mKK8CUzz8wz87Zta9nesr1l+5137pm7Z+6euUeO/PwOQ2SIDPnvj9q7V1bKSlm5d6/3qveq9+rSpTJBJsiEtWtlk2ySTbfc4vq8gHjiEQh8xXxsPjYfNzToAl2gC3796/8RjgsUiUaikei33ybNSpqVNGvy5Ngjl337XJ8fEE8EBL5i6k29qX/kkVgAjh9v7+fbdc2ua3Zdc+KEudXcam595BHX5wfEEwGBP5RIiZR89VVdTl1OXc7f/tbRnz66MLowunDDBrPNbDPb/vlP16cLxAMBgT80SIM07NoVOzCmc+7EGDkmx+RYNOr6dIF4ICDwh2RJluTvv+/su9Hb9Da97fRp16cLxAMBgT+sk3WybujQzr4bs8lsMps6/36AroCAwEfGjMk6lHUo61Bqakd/5oyPMj7K+GjAAOkrfaXvmDGuzxSIBwICH+nRo/WO1jta7ygv7+jPHLgycGXgyqee0izN0qxkXl8FXyAg8JcH5AF54NFHM4szizOL8/Pb++kyZ2bOzJw5fbq+oC/oCw8/7Pr0gHgiIPCXZbJMlgUCrTNbZ7bOXLUqGA1Gg9GKitGLRi8avahPn//vw3NTc1NzU1NSPM/zPK+y0uSZPJP3l79IRCISUXV9ekA88VAbvqSzdbbOTkqKHT35ZPLO5J3JO4uLg/2C/YL9/v53nabTdNqBAz9/wH7ZL/tHjmxuaW5pbvnVr7RIi7QoJSUWJNdnA7hBQAAR0TE6Rsf07Rs7ys8/XxhUVHiYAcTwFBYAwAoBAQBYISAAACsEBABghYAAAKwQEACAFQICALBCQID/dL/cL/e3tsYOmprabs0Ss8QsOXfO9TygKyEg8KdsyZbsf/0rdvDcc609W3u29szKumzWZbMum9WzZyQSiUQigwa13Y5cNHLRyEU9e8be3/PMWDPWjF2wwFSZKlP13XeuTwdwgVeiw1fMWrPWrF2xIikpKSkpqaSkNr02vTb96NGf3+E8LzWvqampqalpewQSjcaufRWN3rj4xsU3Ln7++eSC5ILkgj/+UWqkRmpmzXJ9nkA8EBD4grneXG+u/93vokOjQ6NDFy7sqM+7W3frbm17JHPffZmDMgdlDvrHP0yaSTNpL77o+ryBzsRTWPCBJUuiK6Mroys7LhznEz4cPhw+/NJLUiiFUlhV5frMgc5EQJCYSqRESr76Knbw2GPxvvvm9Ob05vTHHzdbzBaz5T+u6gskEAKChGSWmWVmWWVl7Ifg338f7/v/bNpn0z6bdvas5Equ5P7hD66/HkBnICBILD/9Gm7SlUlXJl25Zo3rOUnvJL2T9M6aNabW1JralhbXe4CORECQUMwwM8wM+/zz2pramtqar792vaftt7z0bX1b396/3/UeoCMRECQULddyLW/72UfXEfvTt11vF9AeBASJpVIqpbLtT9V2HTpJJ+mkZH5tHgmFgCCxrJf1sn7QINcz/pupNJWmcvBg1zuAjkRAkFjOyBk5M3JkdmN2Y3ZjerrrOTfl3JRzU86gQfqmvqlvXnON6z1ARyIgSCwRiUhEtaWopailaOpU13P0WX1Wny0oaNvleg/QkQgIEpIWaqEWlpfnpuam5qampMT7/m9YfcPqG1ZfdpmWaZmWlZW5/noAnYGAIDG9LC/LywMHntl6ZuuZrfG/pEivg70O9jrYdr9paa6/HEBnICBIbIVSKIV33+15nud5zz4be2NnPZWk6i31lnpLn3lG39A39I3f/tb16QOdiYDAR556ygt6QS+4alUsKO1/ZND2Q/Lg4eDh4OHVq6VaqqV6/nzXZwrEAwGBv6ioaEGBZEmWZDU2BhuCDcGGUCgWlF/+8nw/M4n9VlffvsGHgw8HHx4/3jvkHfIOvfJKYHRgdGD0/v16u96ut7v/oT0QT7ywCf5UK7VS26ePztAZOqOoKPbGoqIzw84MOzNMxCvwCryC06fb3v3c9HPTz03v0+fnvzc1RabIFNcnAbhFQID/zU+BcT0D6Mp4CgsAYIWAAACsEBAAgBUCAgCwQkAAAFYICADACgEBAFghIAAAKwQEAGCFgAAArBAQAIAVAgIAsEJAAABWCAgAwAoBAQBYISAAACsEBABghYAAAKwQEACAFQICALBCQAAAVggIAMAKAQEAWCEgAAArBAQAYIWAAACsEJALZGaZWWaWMa53AOg8fJ9fHAJygXSSTtJJ333negeATpQv+ZL/zTeuZ3QXBOQCtW5s3di6MRx2vQNA5wkUB4oDxXyfXyh1PaB7CQSC7wffD76/Z48+qU/qk7/4hetFADrKJ59EIpFIJJKRETtubXW9qKvjEchFaW01n5pPzacPPhg7/vFH14sAtEOmZErm2bN6QA/ogdmzY28kHBeKgFykusfqHqt77KOPYkfTpslD8pA8dOqU610ALpxZbBabxSdParqma3pBQfhY+Fj42Natrnd1N0muB3RXTU1NTU1N+/YNTBuYNjBtxQodpaN0lKq8Lq/L61dcob20l/ZKSZGwhCWcnOx6L+BLs2W2zP7hB6mVWqn9/PPYG//8Z/Oh+dB8WFgYXRFdEV3Bzzxs/RuoXQMjLRSJxAAAACV0RVh0ZGF0ZTpjcmVhdGUAMjAyMi0xMS0wMVQwOToxNTo1NCswODowMOcImQkAAAAldEVYdGRhdGU6bW9kaWZ5ADIwMjItMTEtMDFUMDk6MTU6NTQrMDg6MDCWVSG1AAAAU3RFWHRzdmc6YmFzZS11cmkAZmlsZTovLy9ob21lL2FkbWluL2ljb24tZm9udC90bXAvaWNvbl9zZm9naG81Z29kay9zZXJ2ZXItaG9zdC1mdWxsLnN2ZwC0q9QAAAAASUVORK5CYII=;" vertex="1" parent="1">
          <mxGeometry x="730" y="262.5" width="122.5" height="122.5" as="geometry" />
        </mxCell>
        <mxCell id="yQNdhb8caFljwRBjTB0E-90" value="" style="edgeStyle=orthogonalEdgeStyle;rounded=0;orthogonalLoop=1;jettySize=auto;html=1;fontFamily=Times New Roman;fontSize=6;" edge="1" parent="1" source="yQNdhb8caFljwRBjTB0E-46" target="yQNdhb8caFljwRBjTB0E-89">
          <mxGeometry relative="1" as="geometry" />
        </mxCell>
        <mxCell id="yQNdhb8caFljwRBjTB0E-109" style="edgeStyle=orthogonalEdgeStyle;rounded=0;orthogonalLoop=1;jettySize=auto;html=1;exitX=0.5;exitY=1;exitDx=0;exitDy=0;fontFamily=Times New Roman;fontSize=6;" edge="1" parent="1" source="yQNdhb8caFljwRBjTB0E-46" target="yQNdhb8caFljwRBjTB0E-104">
          <mxGeometry relative="1" as="geometry" />
        </mxCell>
        <mxCell id="yQNdhb8caFljwRBjTB0E-111" value="" style="edgeStyle=orthogonalEdgeStyle;rounded=0;orthogonalLoop=1;jettySize=auto;html=1;fontFamily=Times New Roman;fontSize=6;" edge="1" parent="1" source="yQNdhb8caFljwRBjTB0E-46" target="yQNdhb8caFljwRBjTB0E-110">
          <mxGeometry relative="1" as="geometry">
            <Array as="points">
              <mxPoint x="980" y="530" />
              <mxPoint x="980" y="530" />
            </Array>
          </mxGeometry>
        </mxCell>
        <mxCell id="yQNdhb8caFljwRBjTB0E-46" value="" style="shape=image;imageAspect=0;aspect=fixed;verticalLabelPosition=bottom;verticalAlign=top;image=data:image/png,iVBORw0KGgoAAAANSUhEUgAAAMgAAADIEAYAAAD9yHLdAAAABGdBTUEAALGPC/xhBQAAAAFzUkdCAK7OHOkAAAAgY0hSTQAAeiYAAICEAAD6AAAAgOgAAHUwAADqYAAAOpgAABdwnLpRPAAAAAZiS0dEAAAAAAAA+UO7fwAAAAlwSFlzAAAASAAAAEgARslrPgAAER9JREFUeNrt3W1sVGXex/H/f1oEwQLagCkUedL4sAHrnLZIG0uWsGBWlJhSwlJ84Soqaou2Yi2rGO1C3cWnDkbAko1L2BiooCirLguSKM+dmRZEl1JDlEVqUGR5soil174YazZ739w3XG3naud8P28mp2k7v9NYvs60c6qCuPA8z/O8kSOlREqkZMoUM8lMMpNuvVV6S2/pfdVVWqIlWpKeLrVSK7V9+rjeC3RJWZIlWadPmxfNi+bFQ4f0Fr1Fb/nyS23SJm364AN5TV6T19atC08OTw5PPnDA9dxEp64HJKrMisyKzIprrzVvmbfMWxUVkimZkjl1qkQkIhHl6w50IlNqSk3pxo2B9wLvBd579NHwyvDK8Mq9e13vSjT8Q9bBYo80SktNrak1tc89p1mapVnJya53Af71449mgBlgBjz+ePSD6AfRD15+2fWiRBFwPSAxBALePm+ft+9Pf4odP/884QC6ih499Bv9Rr956aXggeCB4IHly2NvD/DvXzvxBWynYGmwNFhaWSmFUiiFd9/teg+A89MCLdCCe+7xXvFe8V75/e9d7+nueArLkhf0gl6woEBUVHT1atd7AFw8zdVczZ06NRwKh8KhNWtc7+lueARykcaZcWac6dVLciVXchctcr0HgD2TY3JMzvPPXx26OnR1qGdP13u6GwJykU5uOrnp5Kb775dtsk22DR3qeg+Adlgki2TRsGH90vql9Uu77z7Xc7obAnKR9Iye0TMzZ7reAaADVUqlVBYWup7R3RCQC3TjAzc+cOMDgwfLO/KOvON5rvcA6ECZkimZ2dnZjdmN2Y3p6a7ndBcE5AL1GNxjcI/BnscLAYEE9NP3dUtNS01LTUaG6zndBQG5UGtlraxNS3M9A0AnelPelDcHDXI9o7sgIBfIPGQeMg8NGOB6B4DOow/qg/rgwIGud3QXBORC3SP3yD28shxIaHyfXxQCAgCwQkAAAFYICADACgEBAFghIAAAKwQEAGCFgAAArBAQAIAVAgIAsEJAAABWCAgAwArXfPGrJ+QJeaKx0dSZOlNXVNRyecvlLZdv2bJn7p65e+aePu16Hromz/M8z+vdW5/RZ/SZnBxz1pw1Z6uqZIEskAU33OB6H+KLgPiM2Wl2mp0nTmi2Zmv2hAnRaDQajR486HoXuodIJBKJRL7/XibLZJm8cWMsKBMmmCpTZar27tU5OkfnXHGF652ID57C8hn9RD/RT95/PxKNRCOEA+0UC0pTUywc777reg/ii4D4zXAZLsMJBzpYWMIS/uIL1zMQXwTEZ0yFqTAVxrjeAaD7IyAAACsEBABghYAAAKwQEACAFQLiNymSIim9e7uegQRzXI7Lcf678hsC4jP6rr6r7+bk/HSkrvcgMZhNZpPZlJvregfii4D4UjAYewVxWZnrJejeghuDG4Mb58zRhbpQF7b9jwn8gkuZ+FplZfB48Hjw+J13ypfypXy5ebPWaZ3WHTvmehm6qJCEJNS/v5ln5pl5eXlapmVaRjj8ioD4nI7X8To+Ozt21HYL/N9ijzhcr4BrPIUFALBCQAAAVggIAMAKAQEAWCEgAAArBAQAYIWAAACsEBAAgBUCAgCwQkAAAFYICADACtfC8qv5Ml/m796tI3SEjpgzJ7l/cv/k/rt27RiyY8iOIc3Nrueha8pNzU3NTU1JaS5tLm0uHTdOsiVbskOh2EUVhw93vQ/xRUB8xmw32832r7/Wm/VmvXnChHA0HA1Hv/3W9S50D1uPbj269ejJkzJP5sm89eszijOKM4obGpIkSZKkvj72XvxhKb/gKSyf0SN6RI+sWROJRqIRwoF2qg/Vh+pDjY2xo82bXe9BfBEQn9FROkpHHTzoegcSzDpZJ+u++ML1DMQXAQHQbma5WW6WG+N6B+KLgAAArBAQAIAVAgIAsEJAAABWCIjPtOa35rfmX3qp6x1ILDpdp+v0Pn1c70B8ERCf0Tqt07qcHNc7kEgCAZkhM2TG2LGulyC+CIgvTZzoBb2gF7z3XtdL0J2peku9pd7Sp58WFRW97jrXixBfXMrEr1RUtLra2+Bt8DbcdZfkSZ7kbdkiq2SVrDpxwvU8dFFTZIpMSU2VCqmQivHjpVqqpdrzXM+CGwTE78qlXMrz8mIHbbfAeYQkJCHXI9BV8BQWAMAKAQEAWCEgAAArBAQAYIWAAACsEBAAgBUCAgCwQkAAAFYICADACgEBAFghIAAAK1wLy6/my3yZv3u3jtAROmLOnOT+yf2T++/atWPIjiE7hjQ3u56Hrik3NTc1NzUlpbm0ubS5dNw4yZZsyQ6FtEzLtGz4cNf7EF8ExGfMdrPdbP/6a71Zb9abJ0wIR8PRcPTbb13vQvew9ejWo1uPnjwp82SezFu/PqM4ozijuKEhSZIkSerrY+/Vu7frnYgPnsLyGT2iR/TImjWRaCQaIRxop/pQfag+1NgYO9q82fUexBcB8RkdpaN01MGDrncgwayTdbLuiy9cz0B8ERAA7WaWm+VmuTGudyC+CAgAwAoBAQBYISAAACsEBABghYAAAKwQEACAFQICALDCpUzQKbxt3jZv229+I43SKI1XXeV6j2+FJCShvXsjkUgkEvnrX13PQWIhIOhQ48w4M8706nWq+lT1qeqVK2WZLJNlAR7pOtJ27TO5RC6RS9LSXO9BYiEg6FCnMk9lnspsCwbhcC120cxkvs/RKfgGBwBYISAAACsEBABghYAAAKwQEACAFQICALBCQAAAVggIAMAKAQEAWCEg6FAjRowYMWLEDz+YSlNpKvfvd73H9ybKRJm4Z4/rGUhMXOIAHaqmpqampubcOamRGqm59lrXe3wvIhGJuB6BRMUjEACAFQICALBCQAAAVggIAMAKAQEAWCEgAAArBAQAYIWAAACsEBCfac1vzW/Nv/RS1zuQWHS6Ttfpffq43oH4IiA+o3Vap3U5Oa53IJEEAjJDZsiMsWNdL0F8ERBfmjjRC3pBL3jvva6XoDtT9ZZ6S72lTz8tKip63XWuFyG+uBaWX6moaHW1t8Hb4G246y7JkzzJ27JFVskqWXXihOt56KKmyBSZkpoqFVIhFePHS7VUS7XnuZ4FNwiI35VLuZTn5cUO2m6B8whJSEKuR6Cr4CksAIAVAgIAsEJAAABWCAgAwAoBAQBYISAAACsEBABghYAAAKwQEACAFQICALBCQAAAVggIfM1UmSpT9d13ZolZYpY8/bQYMWJGj+7xdo+3e7zdu3fbrV6v1+v1o0bJbJkts596yuwwO8yOo0dd7wdc4mKK8CUzz8wz87Zta9nesr1l+5137pm7Z+6euUeO/PwOQ2SIDPnvj9q7V1bKSlm5d6/3qveq9+rSpTJBJsiEtWtlk2ySTbfc4vq8gHjiEQh8xXxsPjYfNzToAl2gC3796/8RjgsUiUaikei33ybNSpqVNGvy5Ngjl337XJ8fEE8EBL5i6k29qX/kkVgAjh9v7+fbdc2ua3Zdc+KEudXcam595BHX5wfEEwGBP5RIiZR89VVdTl1OXc7f/tbRnz66MLowunDDBrPNbDPb/vlP16cLxAMBgT80SIM07NoVOzCmc+7EGDkmx+RYNOr6dIF4ICDwh2RJluTvv+/su9Hb9Da97fRp16cLxAMBgT+sk3WybujQzr4bs8lsMps6/36AroCAwEfGjMk6lHUo61Bqakd/5oyPMj7K+GjAAOkrfaXvmDGuzxSIBwICH+nRo/WO1jta7ygv7+jPHLgycGXgyqee0izN0qxkXl8FXyAg8JcH5AF54NFHM4szizOL8/Pb++kyZ2bOzJw5fbq+oC/oCw8/7Pr0gHgiIPCXZbJMlgUCrTNbZ7bOXLUqGA1Gg9GKitGLRi8avahPn//vw3NTc1NzU1NSPM/zPK+y0uSZPJP3l79IRCISUXV9ekA88VAbvqSzdbbOTkqKHT35ZPLO5J3JO4uLg/2C/YL9/v53nabTdNqBAz9/wH7ZL/tHjmxuaW5pbvnVr7RIi7QoJSUWJNdnA7hBQAAR0TE6Rsf07Rs7ys8/XxhUVHiYAcTwFBYAwAoBAQBYISAAACsEBABghYAAAKwQEACAFQICALBCQID/dL/cL/e3tsYOmprabs0Ss8QsOXfO9TygKyEg8KdsyZbsf/0rdvDcc609W3u29szKumzWZbMum9WzZyQSiUQigwa13Y5cNHLRyEU9e8be3/PMWDPWjF2wwFSZKlP13XeuTwdwgVeiw1fMWrPWrF2xIikpKSkpqaSkNr02vTb96NGf3+E8LzWvqampqalpewQSjcaufRWN3rj4xsU3Ln7++eSC5ILkgj/+UWqkRmpmzXJ9nkA8EBD4grneXG+u/93vokOjQ6NDFy7sqM+7W3frbm17JHPffZmDMgdlDvrHP0yaSTNpL77o+ryBzsRTWPCBJUuiK6Mroys7LhznEz4cPhw+/NJLUiiFUlhV5frMgc5EQJCYSqRESr76Knbw2GPxvvvm9Ob05vTHHzdbzBaz5T+u6gskEAKChGSWmWVmWWVl7Ifg338f7/v/bNpn0z6bdvas5Equ5P7hD66/HkBnICBILD/9Gm7SlUlXJl25Zo3rOUnvJL2T9M6aNabW1JralhbXe4CORECQUMwwM8wM+/zz2pramtqar792vaftt7z0bX1b396/3/UeoCMRECQULddyLW/72UfXEfvTt11vF9AeBASJpVIqpbLtT9V2HTpJJ+mkZH5tHgmFgCCxrJf1sn7QINcz/pupNJWmcvBg1zuAjkRAkFjOyBk5M3JkdmN2Y3ZjerrrOTfl3JRzU86gQfqmvqlvXnON6z1ARyIgSCwRiUhEtaWopailaOpU13P0WX1Wny0oaNvleg/QkQgIEpIWaqEWlpfnpuam5qampMT7/m9YfcPqG1ZfdpmWaZmWlZW5/noAnYGAIDG9LC/LywMHntl6ZuuZrfG/pEivg70O9jrYdr9paa6/HEBnICBIbIVSKIV33+15nud5zz4be2NnPZWk6i31lnpLn3lG39A39I3f/tb16QOdiYDAR556ygt6QS+4alUsKO1/ZND2Q/Lg4eDh4OHVq6VaqqV6/nzXZwrEAwGBv6ioaEGBZEmWZDU2BhuCDcGGUCgWlF/+8nw/M4n9VlffvsGHgw8HHx4/3jvkHfIOvfJKYHRgdGD0/v16u96ut7v/oT0QT7ywCf5UK7VS26ePztAZOqOoKPbGoqIzw84MOzNMxCvwCryC06fb3v3c9HPTz03v0+fnvzc1RabIFNcnAbhFQID/zU+BcT0D6Mp4CgsAYIWAAACsEBAAgBUCAgCwQkAAAFYICADACgEBAFghIAAAKwQEAGCFgAAArBAQAIAVAgIAsEJAAABWCAgAwAoBAQBYISAAACsEBABghYAAAKwQEACAFQICALBCQAAAVggIAMAKAQEAWCEgAAArBAQAYIWAAACsEJALZGaZWWaWMa53AOg8fJ9fHAJygXSSTtJJ333negeATpQv+ZL/zTeuZ3QXBOQCtW5s3di6MRx2vQNA5wkUB4oDxXyfXyh1PaB7CQSC7wffD76/Z48+qU/qk7/4hetFADrKJ59EIpFIJJKRETtubXW9qKvjEchFaW01n5pPzacPPhg7/vFH14sAtEOmZErm2bN6QA/ogdmzY28kHBeKgFykusfqHqt77KOPYkfTpslD8pA8dOqU610ALpxZbBabxSdParqma3pBQfhY+Fj42Natrnd1N0muB3RXTU1NTU1N+/YNTBuYNjBtxQodpaN0lKq8Lq/L61dcob20l/ZKSZGwhCWcnOx6L+BLs2W2zP7hB6mVWqn9/PPYG//8Z/Oh+dB8WFgYXRFdEV3Bzzxs/RuoXQMjLRSJxAAAACV0RVh0ZGF0ZTpjcmVhdGUAMjAyMi0xMS0wMVQwOToxNTo1NCswODowMOcImQkAAAAldEVYdGRhdGU6bW9kaWZ5ADIwMjItMTEtMDFUMDk6MTU6NTQrMDg6MDCWVSG1AAAAU3RFWHRzdmc6YmFzZS11cmkAZmlsZTovLy9ob21lL2FkbWluL2ljb24tZm9udC90bXAvaWNvbl9zZm9naG81Z29kay9zZXJ2ZXItaG9zdC1mdWxsLnN2ZwC0q9QAAAAASUVORK5CYII=;" vertex="1" parent="1">
          <mxGeometry x="827" y="468.75" width="122.5" height="122.5" as="geometry" />
        </mxCell>
        <mxCell id="yQNdhb8caFljwRBjTB0E-52" value="" style="endArrow=none;dashed=1;html=1;dashPattern=1 3;strokeWidth=2;rounded=0;fontFamily=Times New Roman;fontSize=6;" edge="1" parent="1">
          <mxGeometry width="50" height="50" relative="1" as="geometry">
            <mxPoint x="440" y="880" as="sourcePoint" />
            <mxPoint x="440" y="170" as="targetPoint" />
          </mxGeometry>
        </mxCell>
        <mxCell id="yQNdhb8caFljwRBjTB0E-53" value="行内现金管理CMS" style="rounded=0;whiteSpace=wrap;html=1;fontFamily=Times New Roman;fontSize=6;" vertex="1" parent="1">
          <mxGeometry x="482.5" y="175" width="120" height="60" as="geometry" />
        </mxCell>
        <mxCell id="yQNdhb8caFljwRBjTB0E-77" value="" style="endArrow=classic;html=1;rounded=0;fontFamily=Times New Roman;fontSize=6;" edge="1" parent="1">
          <mxGeometry width="50" height="50" relative="1" as="geometry">
            <mxPoint x="582.5" y="510" as="sourcePoint" />
            <mxPoint x="670" y="510" as="targetPoint" />
          </mxGeometry>
        </mxCell>
        <mxCell id="yQNdhb8caFljwRBjTB0E-78" value="" style="endArrow=none;html=1;rounded=0;fontFamily=Times New Roman;fontSize=6;" edge="1" parent="1">
          <mxGeometry width="50" height="50" relative="1" as="geometry">
            <mxPoint x="670" y="745" as="sourcePoint" />
            <mxPoint x="670" y="325" as="targetPoint" />
          </mxGeometry>
        </mxCell>
        <mxCell id="yQNdhb8caFljwRBjTB0E-92" value="" style="edgeStyle=orthogonalEdgeStyle;rounded=0;orthogonalLoop=1;jettySize=auto;html=1;fontFamily=Times New Roman;fontSize=6;" edge="1" parent="1" source="yQNdhb8caFljwRBjTB0E-80" target="yQNdhb8caFljwRBjTB0E-91">
          <mxGeometry relative="1" as="geometry" />
        </mxCell>
        <mxCell id="yQNdhb8caFljwRBjTB0E-80" value="" style="shape=image;imageAspect=0;aspect=fixed;verticalLabelPosition=bottom;verticalAlign=top;image=data:image/png,iVBORw0KGgoAAAANSUhEUgAAAMgAAADIEAYAAAD9yHLdAAAABGdBTUEAALGPC/xhBQAAAAFzUkdCAK7OHOkAAAAgY0hSTQAAeiYAAICEAAD6AAAAgOgAAHUwAADqYAAAOpgAABdwnLpRPAAAAAZiS0dEAAAAAAAA+UO7fwAAAAlwSFlzAAAASAAAAEgARslrPgAAER9JREFUeNrt3W1sVGXex/H/f1oEwQLagCkUedL4sAHrnLZIG0uWsGBWlJhSwlJ84Soqaou2Yi2rGO1C3cWnDkbAko1L2BiooCirLguSKM+dmRZEl1JDlEVqUGR5soil174YazZ739w3XG3naud8P28mp2k7v9NYvs60c6qCuPA8z/O8kSOlREqkZMoUM8lMMpNuvVV6S2/pfdVVWqIlWpKeLrVSK7V9+rjeC3RJWZIlWadPmxfNi+bFQ4f0Fr1Fb/nyS23SJm364AN5TV6T19atC08OTw5PPnDA9dxEp64HJKrMisyKzIprrzVvmbfMWxUVkimZkjl1qkQkIhHl6w50IlNqSk3pxo2B9wLvBd579NHwyvDK8Mq9e13vSjT8Q9bBYo80SktNrak1tc89p1mapVnJya53Af71449mgBlgBjz+ePSD6AfRD15+2fWiRBFwPSAxBALePm+ft+9Pf4odP/884QC6ih499Bv9Rr956aXggeCB4IHly2NvD/DvXzvxBWynYGmwNFhaWSmFUiiFd9/teg+A89MCLdCCe+7xXvFe8V75/e9d7+nueArLkhf0gl6woEBUVHT1atd7AFw8zdVczZ06NRwKh8KhNWtc7+lueARykcaZcWac6dVLciVXchctcr0HgD2TY3JMzvPPXx26OnR1qGdP13u6GwJykU5uOrnp5Kb775dtsk22DR3qeg+Adlgki2TRsGH90vql9Uu77z7Xc7obAnKR9Iye0TMzZ7reAaADVUqlVBYWup7R3RCQC3TjAzc+cOMDgwfLO/KOvON5rvcA6ECZkimZ2dnZjdmN2Y3p6a7ndBcE5AL1GNxjcI/BnscLAYEE9NP3dUtNS01LTUaG6zndBQG5UGtlraxNS3M9A0AnelPelDcHDXI9o7sgIBfIPGQeMg8NGOB6B4DOow/qg/rgwIGud3QXBORC3SP3yD28shxIaHyfXxQCAgCwQkAAAFYICADACgEBAFghIAAAKwQEAGCFgAAArBAQAIAVAgIAsEJAAABWCAgAwArXfPGrJ+QJeaKx0dSZOlNXVNRyecvlLZdv2bJn7p65e+aePu16Hromz/M8z+vdW5/RZ/SZnBxz1pw1Z6uqZIEskAU33OB6H+KLgPiM2Wl2mp0nTmi2Zmv2hAnRaDQajR486HoXuodIJBKJRL7/XibLZJm8cWMsKBMmmCpTZar27tU5OkfnXHGF652ID57C8hn9RD/RT95/PxKNRCOEA+0UC0pTUywc777reg/ii4D4zXAZLsMJBzpYWMIS/uIL1zMQXwTEZ0yFqTAVxrjeAaD7IyAAACsEBABghYAAAKwQEACAFQLiNymSIim9e7uegQRzXI7Lcf678hsC4jP6rr6r7+bk/HSkrvcgMZhNZpPZlJvregfii4D4UjAYewVxWZnrJejeghuDG4Mb58zRhbpQF7b9jwn8gkuZ+FplZfB48Hjw+J13ypfypXy5ebPWaZ3WHTvmehm6qJCEJNS/v5ln5pl5eXlapmVaRjj8ioD4nI7X8To+Ozt21HYL/N9ijzhcr4BrPIUFALBCQAAAVggIAMAKAQEAWCEgAAArBAQAYIWAAACsEBAAgBUCAgCwQkAAAFYICADACtfC8qv5Ml/m796tI3SEjpgzJ7l/cv/k/rt27RiyY8iOIc3Nrueha8pNzU3NTU1JaS5tLm0uHTdOsiVbskOh2EUVhw93vQ/xRUB8xmw32832r7/Wm/VmvXnChHA0HA1Hv/3W9S50D1uPbj269ejJkzJP5sm89eszijOKM4obGpIkSZKkvj72XvxhKb/gKSyf0SN6RI+sWROJRqIRwoF2qg/Vh+pDjY2xo82bXe9BfBEQn9FROkpHHTzoegcSzDpZJ+u++ML1DMQXAQHQbma5WW6WG+N6B+KLgAAArBAQAIAVAgIAsEJAAABWCIjPtOa35rfmX3qp6x1ILDpdp+v0Pn1c70B8ERCf0Tqt07qcHNc7kEgCAZkhM2TG2LGulyC+CIgvTZzoBb2gF7z3XtdL0J2peku9pd7Sp58WFRW97jrXixBfXMrEr1RUtLra2+Bt8DbcdZfkSZ7kbdkiq2SVrDpxwvU8dFFTZIpMSU2VCqmQivHjpVqqpdrzXM+CGwTE78qlXMrz8mIHbbfAeYQkJCHXI9BV8BQWAMAKAQEAWCEgAAArBAQAYIWAAACsEBAAgBUCAgCwQkAAAFYICADACgEBAFghIAAAK1wLy6/my3yZv3u3jtAROmLOnOT+yf2T++/atWPIjiE7hjQ3u56Hrik3NTc1NzUlpbm0ubS5dNw4yZZsyQ6FtEzLtGz4cNf7EF8ExGfMdrPdbP/6a71Zb9abJ0wIR8PRcPTbb13vQvew9ejWo1uPnjwp82SezFu/PqM4ozijuKEhSZIkSerrY+/Vu7frnYgPnsLyGT2iR/TImjWRaCQaIRxop/pQfag+1NgYO9q82fUexBcB8RkdpaN01MGDrncgwayTdbLuiy9cz0B8ERAA7WaWm+VmuTGudyC+CAgAwAoBAQBYISAAACsEBABghYAAAKwQEACAFQICALDCpUzQKbxt3jZv229+I43SKI1XXeV6j2+FJCShvXsjkUgkEvnrX13PQWIhIOhQ48w4M8706nWq+lT1qeqVK2WZLJNlAR7pOtJ27TO5RC6RS9LSXO9BYiEg6FCnMk9lnspsCwbhcC120cxkvs/RKfgGBwBYISAAACsEBABghYAAAKwQEACAFQICALBCQAAAVggIAMAKAQEAWCEg6FAjRowYMWLEDz+YSlNpKvfvd73H9ybKRJm4Z4/rGUhMXOIAHaqmpqampubcOamRGqm59lrXe3wvIhGJuB6BRMUjEACAFQICALBCQAAAVggIAMAKAQEAWCEgAAArBAQAYIWAAACsEBCfac1vzW/Nv/RS1zuQWHS6Ttfpffq43oH4IiA+o3Vap3U5Oa53IJEEAjJDZsiMsWNdL0F8ERBfmjjRC3pBL3jvva6XoDtT9ZZ6S72lTz8tKip63XWuFyG+uBaWX6moaHW1t8Hb4G246y7JkzzJ27JFVskqWXXihOt56KKmyBSZkpoqFVIhFePHS7VUS7XnuZ4FNwiI35VLuZTn5cUO2m6B8whJSEKuR6Cr4CksAIAVAgIAsEJAAABWCAgAwAoBAQBYISAAACsEBABghYAAAKwQEACAFQICALBCQAAAVggIfM1UmSpT9d13ZolZYpY8/bQYMWJGj+7xdo+3e7zdu3fbrV6v1+v1o0bJbJkts596yuwwO8yOo0dd7wdc4mKK8CUzz8wz87Zta9nesr1l+5137pm7Z+6euUeO/PwOQ2SIDPnvj9q7V1bKSlm5d6/3qveq9+rSpTJBJsiEtWtlk2ySTbfc4vq8gHjiEQh8xXxsPjYfNzToAl2gC3796/8RjgsUiUaikei33ybNSpqVNGvy5Ngjl337XJ8fEE8EBL5i6k29qX/kkVgAjh9v7+fbdc2ua3Zdc+KEudXcam595BHX5wfEEwGBP5RIiZR89VVdTl1OXc7f/tbRnz66MLowunDDBrPNbDPb/vlP16cLxAMBgT80SIM07NoVOzCmc+7EGDkmx+RYNOr6dIF4ICDwh2RJluTvv+/su9Hb9Da97fRp16cLxAMBgT+sk3WybujQzr4bs8lsMps6/36AroCAwEfGjMk6lHUo61Bqakd/5oyPMj7K+GjAAOkrfaXvmDGuzxSIBwICH+nRo/WO1jta7ygv7+jPHLgycGXgyqee0izN0qxkXl8FXyAg8JcH5AF54NFHM4szizOL8/Pb++kyZ2bOzJw5fbq+oC/oCw8/7Pr0gHgiIPCXZbJMlgUCrTNbZ7bOXLUqGA1Gg9GKitGLRi8avahPn//vw3NTc1NzU1NSPM/zPK+y0uSZPJP3l79IRCISUXV9ekA88VAbvqSzdbbOTkqKHT35ZPLO5J3JO4uLg/2C/YL9/v53nabTdNqBAz9/wH7ZL/tHjmxuaW5pbvnVr7RIi7QoJSUWJNdnA7hBQAAR0TE6Rsf07Rs7ys8/XxhUVHiYAcTwFBYAwAoBAQBYISAAACsEBABghYAAAKwQEACAFQICALBCQID/dL/cL/e3tsYOmprabs0Ss8QsOXfO9TygKyEg8KdsyZbsf/0rdvDcc609W3u29szKumzWZbMum9WzZyQSiUQigwa13Y5cNHLRyEU9e8be3/PMWDPWjF2wwFSZKlP13XeuTwdwgVeiw1fMWrPWrF2xIikpKSkpqaSkNr02vTb96NGf3+E8LzWvqampqalpewQSjcaufRWN3rj4xsU3Ln7++eSC5ILkgj/+UWqkRmpmzXJ9nkA8EBD4grneXG+u/93vokOjQ6NDFy7sqM+7W3frbm17JHPffZmDMgdlDvrHP0yaSTNpL77o+ryBzsRTWPCBJUuiK6Mroys7LhznEz4cPhw+/NJLUiiFUlhV5frMgc5EQJCYSqRESr76Knbw2GPxvvvm9Ob05vTHHzdbzBaz5T+u6gskEAKChGSWmWVmWWVl7Ifg338f7/v/bNpn0z6bdvas5Equ5P7hD66/HkBnICBILD/9Gm7SlUlXJl25Zo3rOUnvJL2T9M6aNabW1JralhbXe4CORECQUMwwM8wM+/zz2pramtqar792vaftt7z0bX1b396/3/UeoCMRECQULddyLW/72UfXEfvTt11vF9AeBASJpVIqpbLtT9V2HTpJJ+mkZH5tHgmFgCCxrJf1sn7QINcz/pupNJWmcvBg1zuAjkRAkFjOyBk5M3JkdmN2Y3ZjerrrOTfl3JRzU86gQfqmvqlvXnON6z1ARyIgSCwRiUhEtaWopailaOpU13P0WX1Wny0oaNvleg/QkQgIEpIWaqEWlpfnpuam5qampMT7/m9YfcPqG1ZfdpmWaZmWlZW5/noAnYGAIDG9LC/LywMHntl6ZuuZrfG/pEivg70O9jrYdr9paa6/HEBnICBIbIVSKIV33+15nud5zz4be2NnPZWk6i31lnpLn3lG39A39I3f/tb16QOdiYDAR556ygt6QS+4alUsKO1/ZND2Q/Lg4eDh4OHVq6VaqqV6/nzXZwrEAwGBv6ioaEGBZEmWZDU2BhuCDcGGUCgWlF/+8nw/M4n9VlffvsGHgw8HHx4/3jvkHfIOvfJKYHRgdGD0/v16u96ut7v/oT0QT7ywCf5UK7VS26ePztAZOqOoKPbGoqIzw84MOzNMxCvwCryC06fb3v3c9HPTz03v0+fnvzc1RabIFNcnAbhFQID/zU+BcT0D6Mp4CgsAYIWAAACsEBAAgBUCAgCwQkAAAFYICADACgEBAFghIAAAKwQEAGCFgAAArBAQAIAVAgIAsEJAAABWCAgAwAoBAQBYISAAACsEBABghYAAAKwQEACAFQICALBCQAAAVggIAMAKAQEAWCEgAAArBAQAYIWAAACsEJALZGaZWWaWMa53AOg8fJ9fHAJygXSSTtJJ333negeATpQv+ZL/zTeuZ3QXBOQCtW5s3di6MRx2vQNA5wkUB4oDxXyfXyh1PaB7CQSC7wffD76/Z48+qU/qk7/4hetFADrKJ59EIpFIJJKRETtubXW9qKvjEchFaW01n5pPzacPPhg7/vFH14sAtEOmZErm2bN6QA/ogdmzY28kHBeKgFykusfqHqt77KOPYkfTpslD8pA8dOqU610ALpxZbBabxSdParqma3pBQfhY+Fj42Natrnd1N0muB3RXTU1NTU1N+/YNTBuYNjBtxQodpaN0lKq8Lq/L61dcob20l/ZKSZGwhCWcnOx6L+BLs2W2zP7hB6mVWqn9/PPYG//8Z/Oh+dB8WFgYXRFdEV3Bzzxs/RuoXQMjLRSJxAAAACV0RVh0ZGF0ZTpjcmVhdGUAMjAyMi0xMS0wMVQwOToxNTo1NCswODowMOcImQkAAAAldEVYdGRhdGU6bW9kaWZ5ADIwMjItMTEtMDFUMDk6MTU6NTQrMDg6MDCWVSG1AAAAU3RFWHRzdmc6YmFzZS11cmkAZmlsZTovLy9ob21lL2FkbWluL2ljb24tZm9udC90bXAvaWNvbl9zZm9naG81Z29kay9zZXJ2ZXItaG9zdC1mdWxsLnN2ZwC0q9QAAAAASUVORK5CYII=;" vertex="1" parent="1">
          <mxGeometry x="700" y="667.75" width="120" height="120" as="geometry" />
        </mxCell>
        <mxCell id="yQNdhb8caFljwRBjTB0E-82" value="" style="endArrow=classic;html=1;rounded=0;fontFamily=Times New Roman;fontSize=6;" edge="1" parent="1" target="yQNdhb8caFljwRBjTB0E-45">
          <mxGeometry width="50" height="50" relative="1" as="geometry">
            <mxPoint x="670" y="325" as="sourcePoint" />
            <mxPoint x="720" y="275" as="targetPoint" />
          </mxGeometry>
        </mxCell>
        <mxCell id="yQNdhb8caFljwRBjTB0E-83" value="" style="endArrow=classic;html=1;rounded=0;fontFamily=Times New Roman;fontSize=6;entryX=0.163;entryY=0.622;entryDx=0;entryDy=0;entryPerimeter=0;" edge="1" parent="1" target="yQNdhb8caFljwRBjTB0E-46">
          <mxGeometry width="50" height="50" relative="1" as="geometry">
            <mxPoint x="670" y="545" as="sourcePoint" />
            <mxPoint x="800" y="545" as="targetPoint" />
          </mxGeometry>
        </mxCell>
        <mxCell id="yQNdhb8caFljwRBjTB0E-85" value="&lt;font face=&quot;Times New Roman&quot;&gt;特色业务平台&lt;br&gt;10.11.101.175:7011&lt;/font&gt;" style="whiteSpace=wrap;html=1;verticalAlign=top;" vertex="1" parent="1">
          <mxGeometry x="731.25" y="395" width="120" height="40" as="geometry" />
        </mxCell>
        <mxCell id="yQNdhb8caFljwRBjTB0E-89" value="&lt;font face=&quot;Times New Roman&quot;&gt;数字证书管理RA系统&lt;br&gt;10.11.101.173:8080&lt;/font&gt;" style="whiteSpace=wrap;html=1;verticalAlign=top;" vertex="1" parent="1">
          <mxGeometry x="827" y="607.75" width="120" height="40" as="geometry" />
        </mxCell>
        <mxCell id="yQNdhb8caFljwRBjTB0E-91" value="签名验签服务器&lt;br&gt;10.11.101.248:5006" style="whiteSpace=wrap;html=1;verticalAlign=top;" vertex="1" parent="1">
          <mxGeometry x="700" y="805" width="120" height="40" as="geometry" />
        </mxCell>
        <mxCell id="yQNdhb8caFljwRBjTB0E-101" value="" style="endArrow=classic;html=1;rounded=0;fontFamily=Times New Roman;fontSize=6;" edge="1" parent="1">
          <mxGeometry width="50" height="50" relative="1" as="geometry">
            <mxPoint x="670" y="745" as="sourcePoint" />
            <mxPoint x="720" y="745" as="targetPoint" />
          </mxGeometry>
        </mxCell>
        <mxCell id="yQNdhb8caFljwRBjTB0E-117" value="" style="edgeStyle=orthogonalEdgeStyle;rounded=0;orthogonalLoop=1;jettySize=auto;html=1;fontFamily=Times New Roman;fontSize=6;" edge="1" parent="1" source="yQNdhb8caFljwRBjTB0E-104" target="yQNdhb8caFljwRBjTB0E-107">
          <mxGeometry relative="1" as="geometry" />
        </mxCell>
        <mxCell id="yQNdhb8caFljwRBjTB0E-104" value="" style="shape=image;imageAspect=0;aspect=fixed;verticalLabelPosition=bottom;verticalAlign=top;image=data:image/png,iVBORw0KGgoAAAANSUhEUgAAAMgAAADIEAYAAAD9yHLdAAAABGdBTUEAALGPC/xhBQAAAAFzUkdCAK7OHOkAAAAgY0hSTQAAeiYAAICEAAD6AAAAgOgAAHUwAADqYAAAOpgAABdwnLpRPAAAAAZiS0dEAAAAAAAA+UO7fwAAAAlwSFlzAAAASAAAAEgARslrPgAAQKBJREFUeNrt3XlAVPX2APBzLgwgiOKopAaoBKQoIAygLC4pbqVmKT61UisVTQMsl3yWppnlloL6XPJVmqmJ9ty3cEtWYQZwwR0VVEwRRUSBmbnn98fXoZf9fLnBZTmff3BmrtxzB7hn7vd+v+cgMKYAl2iXaJdoS0vb9bbrbdfXr4/n8Byea9BA+k76TvrO3p7UpCZ1w4ZwBa7AlQYN4CbchJsNGkAv6AW96teHVbAKVtnYwCbYBJtsbGgv7aW9dnZwCA7BIRsbsARLsLS2hi7QBbrUqYO/4C/4i6UlGMAABmvrvwQUDdEQLUniQd26/zv6ggIIh3AIl+W/vGQO5mB+7x69SW/SmyUlsA/2wb47d6AESqDk3j3oCB2hY1ERdsNu2O32bVgLa2Ht3btQG2pD7Xv3YDtsh+03b0J9qA/18/LgRXgRXszLk6/IV+Qr16/jGByDY27cIBdyIZe8vJLIksiSyLy8zAGZAzIHlJYq/XNlNQsqHQCrmjQ+Gh+NT9260i3plnTLzU2uJ9eT6zVrBh/Dx/CxoyP8Dr/D705OcBtuw20nJ/AHf/B3dKQ6VIfqODriOByH4154QenjqC4okRIp8do13It7ce/ly3AEjsCRnBywAzuwy86GF+AFeCE7G+bDfJifkyN+bhcvip/bmTNanVan1RUUKH0crGrhBMIAANF3u+923+3Nm9M0mkbTPD3FJ+yXX6b21J7au7riMlyGy9zcwAM8wOPll2EhLISF9vZKR86eD1pAC2jB779jMRZj8enT4grn7FlJI2kkzZkzIkGdPm02wWyC2YSjR49sO7LtyLYLF5SOmymLE0g15b7BfYP7BgsLm0k2k2wmeXkZFxoXGhe2aYMa1KDGywteh9fhdS8vSqZkSvb0xLbYFtvWqaN03KwqKSgQQ4RHj5I1WZN1RgZuxa24NSNDtpKtZKv0dDHEdvQoD7FVT5xAqijvQO9A78AmTWANrIE1Go3UXGouNddoaB2to3VBQfAP+Af8IygI/dEf/WvVUjpeVjNRCqVQisGAE3ACTsjIgINwEA7Gx8NcmAtztVq8h/fwXlxcaq/UXqm9srKUjpc9GU4glZT/Wf+z/mcdHIwDjQONA7t0oSE0hIZ06QKe4Amer7yC43E8jndwUDpOxp4HSqAESsjJgWtwDa4dOIDn8Tye37fPsMGwwbBh376MZRnLMpZduaJ0nOzPOIEoRAwx1a5tlWuVa5XbtSuWYAmWhITQWBpLY7t0wfbYHtu//LLScTJWGdBhOkyHT5/GxbgYF+/bR5ZkSZaxscWNixsXN/71VzFEdveu0nHWNJxAypnnXM+5nnPt7VUalUal6dED9sN+2B8aCs2gGTTr2hWWwlJYammpdJyMVUW0hJbQkuJiyIIsyIqLA3uwB/vt26VAKVAK/OWXVOtU61TrnByl46yuOIE8JxqNRqPRvPQSjIbRMHrQIGpEjahRv344DafhtDZtlI6PsZqIDtJBOpiWJjWUGkoNN22CjbARNq5bx/dcng9OIE/I77LfZb/L9esb+xj7GPv06yeuKIYMwYk4EScGBoIWtKBFfl8Zq8ymwBSYkpkJhVAIhatXi4Wkq1drtVqtVpubq3R4VQWf6B7BNA22lmst11quffrAcBgOw0eMoKW0lJZ26YKjcTSONjNTOk7G2LMTf9dGo1gH8+uvsrfsLXt/+63UUeooddy2TSy01OuVjrOy4QTygHeCd4J3gouLFCAFSAFvv02lVEql772HgRiIgY6OSsfHGKt4phX+cApOwalVq/BdfBff/fZbcaVy/rzS8SmtxiYQsfI6JERMHxw/HvIgD/K6deMhKMbYI4VBGITJMlmRFVnt2SNKxsybp1usW6xbvH+/0uFVtBpyopQk7yzvLO+s117D+lgf63/6KXbGztjZ31/pyBhj1cBUmApTMzLAFmzB9ptvYDyMh/Hr1lX3oa9ql0BEkT+VCqbBNJj2/vsQC7EQ+8knkAAJkNC0qdLxMcZqgEAIhMBLlzAO4zDuq68ICQm/+666JZRqkkAkSSSOfv0gGIIheNYsiId4iHdxUToyxhgzJRSKp3iKnzXLVmurtdV+990hPISH0GBQOrynVWVnEfmG+4b7hvfr11jfWN9Yv2kTICDg6NGQAzmQo1YrHR9jjJXJgRzIsbNDRETs3bv0ZOnJ0pOhoU30TfRN9Feu5Obm5ubmnjqldJhPqspcgYj1F25ucpacJWdFRcE4GAfjevRQOi7GGHs+DhyQ3pXeld798MOUsSljU8aeOKF0RH+n0iYQUQLExkY1XjVeNX7CBBgFo2DU5MmQCqmQamGhdHyMMVY+TPdIli41W2+23mz9Z58dcT3iesT1zh2lI3tYpUsg4l5Gt25i/vXKlbwOgzFWs+XmUj/qR/1GjtT9U/dP3T+3b1c6IhNJ6QBEDSlra/E1Kgp8wRd8d+/mxMEYYwAAjRvjRbyIF7du1WRpsjRZy5ebqnkrHZliVyDeYd5h3mEBARiKoRj60084CSfhpObNlX5DGGOssqM4iqO4rCwMwiAMGjxYTA9OTq7oOCr8CsTHx8fHx2fkSAkkkODgQU4cjDH2ZDAYgzHY2ZlSKZVS4+I0qzSrNKsmTarwOMp7Bx2pI3UkK6vCC4UXCi8sXiyuON5/v6IPlDHGqr0f4Af4Yc0aGAbDYFhYmKjZde9eee2u3BJIm9/a/Nbmt4YNpVvSLenWjh04A2fgDD+/8tofY4wxgfbTftp/5IicIWfIGb16pXdI75De4caN572f555AvMiLvKhZM7P7ZvfN7u/eza1ZGWNMGWX3SoIxGIO7dXveVYSfWwLxfdv3bd+3W7cmO7Ijuz17IBESIbFJE2XeNsYYY2UCIAACrl6VWkgtpBbduj2vhYrPnEDKWrkCAMDhw+Jr48bKvluMMcb+IhIiIfL6dTEtuEOH1M9SP0v97PTpp/12T51AvEZ5jfIa9eKLZv3N+pv1P3yYZ1MxxljVIPog5eRgAAZgQHCwmAacnf2k3+eJE4j/Wf+z/mfr1DEeMx4zHktMhC/hS/jS3V3pN4QxxtiToZk0k2aeOGHuYu5i7hIY+KQlU55wHQiiwcZgY7D59785cTDGWNWGn+Kn+GmrVgZbg63BdvXqB88+9oXFY5dz90nwSfBJmDwZ38F38J0PP1T6wBljjD0fuBbX4toWLV4sfrH4xeJ7964WXy2+Whwf/3f/72+vQPya+zX3a+7nB+ZgDuZffKH0gTLGGCsf8k35pnzzyy9FxRCN5u+2f+SlilhBbm5+1/eu711fU40VHx+lD5Axxlg56wAdoMPRo3AIDsEhX99HteJ95BVI4eHCw4WHIyPFI04cjDFWY/wGv8Fvnp60kBbSwoiIR232lysQ0Y+jbl1oC22h7cWLcASOwBE7O6WPhzHGWMWiZEqm5Dt39N56b713s2bHjh07duzYrVum1/96BaIFLWjHjePEwRhjNRu2xbbYtk4dCwsLCwuLsWMffr0sgZjWd8BqWA2rw8OVDpwxxljlQFEURVGRkQ83sjI3/cN4znjOeC40FKIhGqLr1VM6YMYYY5UDRmAERqjVtaAW1IJ+/cSzq1aVXYGQH/mR3z/+oXSgjDHGKqkFsAAWDBxoeohlfTuCpWAp+OpV9EM/9DM3f5Z9MMYYq34ohVIoxWBAX/RF38aNJfRGb/Ru354TB2OMsf+lLE+shbWwNihIkjpJnaRO3CmQMcbY46HFtJgW+/k9uAfCCwUZY4w9HhyAA3CARiMBAQE5OSkdEGOMsaqBiqiIihwdJRgH42CcWq10QIwxxqoGUQZerZagBEqgpG5dpQNijDFWRYyG0TBarUbR05xI6XgYY4xVLU/YkZAxxhgTOIEwxhh7KpxAGGOMPRVOIIwxxp4KJxDGGGNPhRMIY4yxp8IJhDHG2FPhBMIYY+ypcAJhjDH2VDiBMMYYeyqcQBhjjD0VTiCMMcaeCicQxhhjT4UTCGOMsafCCYQxxthT4QTCGGPsqXACYYwx9lQ4gTDGGHsqnEAYY4w9FU4gjDHGngonEMYYY0+l/BPIR/ARfHTlitIHyhhjNUYFnXfLP4EMhsEweOVKiqAIinj7bfHkvXvlvl/GGKshaAktoSXFxTATZsLM4cNN593y3m+FDWHphuiG6Ib89JPkLDlLzkFBFEdxFJeVVVH7Z4yx6ik722yQ2SCzQR06aHtqe2p7/vvfFbXnCr8HkhKTEpMSk55ukWeRZ5Hn50fv0/v0/vr1FR0HY4xVbWvXlpaWlpaWtmmTciHlQsqFlJSKjsBcqUNPckxyTHLMzxePBg3SpGnSNGmbNsH78D68v3QpICBggwZKxccYY5VGO2gH7W7cQDM0Q7PRo1OjU6NTozdtUjqsSjMLS+ut9dZ6b9xoPt58vPn41q3hNXgNXvvPf5SOizHGlEJhFEZhmzbpm+mb6Zu1bl1ZEoeJYlcgj5I8OHlw8uDffxeP3nzTO8Y7xjumSxcpXoqX4hctgsNwGA63bKl0nIwx9twFQRAEnTsH8RAP8ZGRupG6kbqRO3YoHdajVJorkEdJC00LTQvdtw9+g9/gNy8vmk2zaXZkJC2iRbSosFDp+Bhj7NncuwepkAqp06cXuBS4FLi0bq3VarVabeVNHCaVPoGYaHVanVan1+tCdCG6kKgo42rjauPqli2pH/WjfsuXi630eqXjZIyxR/IFX/AtLRUPli6VLWVL2dLVVYta1OLnn58LPxd+LrykROkwH1eVSSAPy1iWsSxj2ZUrun/q/qn756hR8iB5kDzI1RViIAZiVqygFEqhFINB6TgZYzVYGIRBmCwDAQHFxMhD5aHy0FatxBXGBx+kJaQlpCVcvap0mE+ryiaQh6WNTxufNv7SJa2z1lnrHBZGRVRERZ6e8AP8AD+sWSO24isUxlh50+tpCA2hIT/+CMthOSxv1UqMoAwYkBaYFpgWeO6c0hE+L9UmgTwszTbNNs325Emth9ZD6/HOO2IBo5OTaawRwiEcwm/dUjpOxljV9ed7sdHReBgP4+GXXtJF6CJ0EUOGiCuNU6eUjrO8VNsE8jCxgPHaNdNYI0RBFEQ1b04LaAEtmDBBXGKeP690nIyxSsw0SwoAAMaPN29o3tC8oYODSBQREanWqdap1jk5SodZUSrdNN6KIi4pCwqgA3SADvPmiWfnz/fd7rvdd3uXLjSVptLUkSPBD/zA7/XXxZWLhYXScTPGKoDpZncKpEDKli04A2fgjBUrUnul9krttW+f2IgIXMEVXJUOVjk15grk8RCJX5DYWNOYpXlH847mHZ2cMAuzMGvSJDpEh+jQ8eNKR8oYe96OHaOm1JSaTpyod9G76F0cHU3nAdN5QWxHpHSklUWNvQJ5XH9e2DhnDtSG2lB7zhy/xX6L/Ra3aiWPkcfIY0JDIQIiIOKtt8QCIBcXpeNmjD1Kdrb4unmz+LpqlRiC0ulAC1rQAsAv8Av8onSclR9qNBqNRlN+GZUSKZESr13DOIzDuEmTtJ21nbWdf/zxwavVLJMjeod5h3mHtWsnpUgpUkq/fjAZJsPkPn3ga/gavnatwRe7jFUc+oq+oq/OnMGTeBJPbt1Ku2gX7dq0Sbdbt1u3Ozn5wVbV7vyjSdAkaBIGDoS1sBbWzpsHiZAIiU2alNseyzuB/MV0mA7TU1NhKkyFqWPHiktE0w+0+hL3VpydZSvZSrbq3Ruuw3W43qsXzsf5OL9jR7GVSqV0nIxVCab1FafhNJxOS4N5MA/mbd9OGtKQZts2nU6n0+m0WqXDLG/i/N2iBe2hPbQnOhq7Y3fs3rVrRe2/4hOIyYNfAOpMnanzihVmVmZWZlaffprikOKQ4nDzZoXHoxC/y36X/S7Xry/fkG/IN155hWzJlmy7dIEsyIKszp1xMk7GyW5uSsfJmBLoMB2mw6dPY3tsj+3378cgDMKgfftwIk7EiQcP1rTzhYeHh4eHR716qn6qfqp+M2aID+KjRqEf+qGfeYXfklAugTyEoiiKovLzMQIjMGLWLPHs0qVibLLmdjD0ved7z/eeoyO1p/bUvnNn8ewrr4g/rHbtMBIjMdLNTYzdIiodL2OPRQMa0BCJ2Y2nT0M/6Af9kpIgAAIg4MABwwbDBsOGfftMFSeUDlcpHakjdSQrq8J9hfsK94WF4X/wP/ifKVMgCZIgqWFDpeOrNAnkYaZ7J9AH+kCf2bMtvrX41uLb5ctFH5H795WOr7Jol9Mup12OWq3vq++r7xsQIJ5t2xbmwlyYGxhIHagDdfDzw7bYFtvWqaN0vKwmKSgQQytHjoihlaQk2AJbYEtSkopUpKKkpD/3BWIu0S7RLtGWlnaL7BbZLRoxgj6nz+nzTz6Bb+Ab+ObFF5WO72GVNoH8RSREQuT16yCDDPI336g6qzqrOkdHc0J5PN6B3oHegU2awBpYA2s0GumwdFg67O5Ot+k23W7VCh3RER01GsiDPMhr0UKUYJB4mjf7f+TmQk/oCT21WhpAA2jAiROYh3mYl5kpZUqZUqZWmzI2ZWzK2JMnxfayrHTElZXGR+Oj8VGpxD2cQYMogAIoYNo0DMZgDHZ2Vjq+v1N1EshDaB7No3mXL0tvSW9Jb33zjWWJZYllycqV8Tfjb8bf5DLvTyuoflD9oPq2tveb3m96v6mbGy7GxbjYzU0MLbz8Ml2hK3TFzQ0X4AJc4OYmqiG7ueGH+CF+aGurdPzs8VAyJVPynTs4CSfhpLNnaRyNo3FnzsDn8Dl8fvq0VCwVS8WnT8uZcqacefZsrUu1LtW6dOYM/309G/cN7hvcN9SubT3Feor1lGHD6Av6gr74+GMxYtCsmdLxPakqm0D+fwUFMASGwJBvv4VVsApWLVokZnmZ5n2z8iI+STVoIL0kvSS95OBgmG2YbZjt6GjW3ay7WfemTeVN8iZ5k4MDbsbNuNnBAe7CXbjr5ASlUAqlDRqAHvSg/6+vfE/nz0z3DFSgAlVeXtlXC7AAi7w8sT4pO5v6Ul/qe/kyjIWxMDYnh36gH+iH7GzzSeaTzCfl5MACWAALcnJq2s1npfif9T/rf9bBwXDfcN9wf+xYTMM0TBs5EqIhGqLr1VM6vmdVzRLIH0zl3DEVUzF161YYBaNg1PLlIqGYVpTypXXlJElt17Zd23Ztw4Zyvpwv5zdoQB2pI3Vs0AC+hW/h2wYNxInSxgYKoRAKra3hNtyG23Xrip+7rS3UgTpQx9oah+NwHG5jA/2hP/R/9B8sjafxNP7x/6BxHs7Def9PMc4+0Af6EIkPMrdv00paSSuLiuAO3IE79+6J2TKFhWAHdmBXUAC2YAu29+6JxFpUBCNgBIzIy8NDeAgP5eWV3C+5X3L/xo2jE45OODohL0/shH9vKydE0UG1c2fpK+kr6auwMEBAwL59xevVb5p+tU0gj/SgaCJewAt4YcUKciZncv7xRzHbKzdX6fAYY5Wf51zPuZ5z7e1V61XrVevfeUcsXBw5sqZNu695CeRhpvUoA2gADUhMFNMKY2LEPPOffhJXLKZPfoyxmkScH62txQfP116DV+FVeHXIENgFu2BX9+5iq+p3ZfG4OIE8ymgYDaNLSuAiXISLv/4KnaEzdI6JuZ93P+9+3i+/ZA7IHJA54O5dpcNkjD070/RZ2162vWx7deuG23AbbgsNFaVQ3nxTVOW1sVE6zsqGE8gTKmsgkwIpkLJ5M67G1bj6559Vm1WbVZv37+dpxYxVXqaFeXcS7yTeSezUSfpQ+lD6cOBA8arpXkXdukrHWVVwAnlOaAktoSXFxaIESVwc6lGP+thYscI+Nram1OZhrDIoqz03VZ4qTw0JQUBACAmhxbSYFvfowdPOnw9OIBWEZtNsmn3hAjqjMzr/+quYFRQba/az2c9mP+/Zc8T1iOsR1zt3lI6TsapAVGCoVcuQYcgwZAQFyU6yk+wUEoLn8Bye690bvoQv4Ut3d6XjrO44gSjNdK/lHJyDc/Hx0AyaQbO4OJRQQikpST9CP0I/IjExAzMwA2/fVjpcxiqCF3mRF9nZSYlSopTYrp10VDoqHQ0IEPckg4PBBVzAJSgIlsJSWGppqXS8NRUnkCqC4iiO4rKyYAWsgBXx8dAKWkErrRYmwkSYGBcnhsjS0sTWvE6AVW6mISayJmuyDg6GCTABJmg00Ak6QaegIHgZXoaXvb25pE7lxgmkugiHcAi/dYt6Uk/qmZgIM2AGzEhLE3+Ax46hB3qgR2bm/U/uf3L/k9OnxSyy0lKlw2bVgyjRYWFhNdZqrNXYFi2kblI3qZu7u2wn28l2rVuLsuPe3rgLd+GugIDqshK7puMEUsOYVuhDCZRASXY2folf4peZmQ8XxRMrs0+csNXaam21J04cwkN4CIuLlY6fVQwxW8ncvGhH0Y6iHU5ORneju9G9Vau/FOHMxmzMdnenUAql0FatcAyOwTFWVkrHzyoGJxD2v/mCL/iWlkIIhEDIpUtQH+pD/exsaAJNoEl2thhqyM4mV3Il10uXxIrc7GzRryQ7+67LXZe7LtnZ58LPhZ8LLylR+nBqCtO6htrnap+rfc7JSTRkcnISK6WdnPAsnsWzTZvCLJgFs5o2FSVhnJxEzS1HR4iFWIht2lQsrLWwUPp4WOVU/j3R+1E/6rd8OW7CTbipVSvxbHCw0gfOlJCbK1b0ZmfTWBpLY3//HXMxF3Pz8+kNeoPeyM+XfCQfySc/X/6P/B/5P7duST9JP0k/5edTJmVSZn6+aAmcn6+qr6qvqn/zpvGK8YrxSn6+qBhQUKD0ET4u001i1Q7VDtUOtdo4yzjLOEutFlVw1Wp0R3d0V6vlt+S35LfUaryCV/CKWk2BFEiB9eqJxkJqNTWmxtRYrRZVk194QdRecnISe2ncWOnjZBWsC3SBLocPkx3ZkV1mpjjvhoWV1+7K/wokFVIhdfp08cnmyy/FL/i8eeLF8PBy2y+rkWgpLaWlRqNYQfzHtGhqTs2peWkp+IEf+BUVlf2Hg3AQDt6/j7EYi7F/DNFRW2pLbf+oNIDJmIzJtWuXvR5CIRRiZSVu+taqVfb9HqxYFrXW/vjkTi2pJbWsUwdH42gcbWam9PvEqpldsAt2LVwIPaAH9Jg4UVSznjJFjCBMm1Zeu62wHrriE6JeLx5FRGgSNAmahKQk8id/8l+2jDvmsefhzyfoP27SioVkT/B9DuJBPPj0r/9l+yfcP2N/r6CAjtJROhoWprPX2evsf/7Z9IoGNKCpgAgUmx6nDdQGagPXrUN/9Ed/Dw/RUGXfPqXiYYyxyo4+po/p49hYMRTs6anT6/Q6/R+Jo6IpPr/a1PBJ21nbWdu5a1ciIqKwMBgDY2AMFytkjNVcdISO0JH798U0/U8+0Q3WDdYN7t69sjTKUzyB/BmRWBC3YgUsgSWwpE0b0Xt5+3alI2OMsYpCY2gMjdm61byveV/zvq1aaYdqh2qHzp4tXq08C4Ur7B7IkxINns6fFzeDevcWK1dDQiiWYik2OhoOw2E43LKl0nEyxtgzC4IgCDp3DuIhHuIjI3Xv6d7Tvbdjh9Jh/Z1KdgXyaKm9Unul9oqNLXAucC5w9vYWZdX/+U/wB3/w5xpRjLEq5EHlCMzCLMyaNOl+8P3g+8GtWokPzpU/cZhUmQRiYlqQpgvUBeoCv/rKaoPVBqsNTk6mMUJKpmRK5qq2jLFK5MH0cfqevqfvZ88unVc6r3TeSy+l3kq9lXprzpyqWlqo0g5hPa74m/E3428WFsJQGApDZ8/2vO553fP699+rdql2qXZNnkz1qT7VDwsTs73+a74+Y4yVk7Kb35/BZ/DZsmVyD7mH3OOrr9I90z3TPW/cUDq+56XKXYH8naMTjk44OuH6da291l5rP26cHC/Hy/FNm5quUMRWublKx8kYq0baQTtod+OG6QpDfGB96SXdLN0s3ayPPkrvkN4hvUP1SRwm1S6BPMz0gzPNYigYWjC0YGjz5mLdydChYj71qVNKx8kYq0IICOj8edEoLjISkiAJkpo103nqPHWen3wi7mVU/w+qVX4I60n9uajf6tXi65o13gneCd4J3bpJ5pK5ZD5ihGj01Lu3eF2lUjpuxphS9HoKozAK27oVl+EyXLZihViHERsrioxWnmm1FU0Sa95rejVeWU4LTAtMC9y9W+uv9df69+snnm/aVNQwmjLF1JJW6UgZY+XowZWFeDB5suQsOUvOTk66kbqRupH9+4vEsXeveL3mJg4IgzAIk2Vzsc4CuUzPQ8ouQbWgBe2sWbAG1sCaWbN8fHx8fHw0GkRExCFDaAEtoAX/+AeOw3E47oUXlI6bMfb3KIqiKCo/X/x979ghvSS9JL20erVYLmAqqUQkXlc62kroQafI8i/n/mBFZXHt4trFtd96S0xXqz4lSsoa73xb9G3Rt127yvfl+/L9QYNwNa7G1X36iK3q1lU6TsZqJNM6sSNwBI5s2SIvkhfJi9avrxNQJ6BOQGysaJRmMCgd5vMiOkPWrm111+qu1d2ffsIluASXmM5Dz1/FNZQKgAAIuHoV3oQ34c3Jk0Xtqx9/FC9WvyG00NDQ0NBQM7Os81nns84HBNAP9AP90KsXuIALuPTtKxr8vPyy0nEyVi1MgAkw4eJFkTD27pVBBhm2by9JLUktSd2zp6qus3hc3lneWd5ZvXtLoVKoFLp4sXjW1Bem/CjWkZAm0SSadOgQjIWxMDY8XHddd113/ejRio5DKRofjY/Gx8ODFtNiWtyrF27Frbg1JIT6Ul/qGxjIrUEZ+4NpXQUewkN4KCFBJIzYWGyJLbHl9u2pa1LXpK45flzpOCuKj72PvY+9pyeuwTW4ZtEimAyTYXKHDhUdh+Itbct6dJ+Fs3B26VIzGzMbM5vp01McUhxSHG7eVCoupYghMSurOxvvbLyzMShI6i31lnp37gyBEAiBXbrQMlpGy3x9uTERq05M5wGciBNxYmoqFVMxFZvuRezfb7vIdpHtooQEMeT0R+OvmkJ84GzQgPpQH+ozbRq8Cq/Cq6NHK30eUDyB/MWDMu7kS77ku2SJRT2Lehb15sxJckxyTHLMz1c6PKV5zvWc6znXxka1TrVOtc7bm+bQHJqj0Yg/vKAgGAfjYFzHjrAQFsJCe3ul42XsDwUFop9FSgoOwkE4KD5eviBfkC9otXJzubnc/PDhDMzADOTadu1y2uW0y1Gr9Q56B71DeLjoLBgZKV6tPPdUK18C+X8VFIjWuAsXimnHCxZUtR7YFc3vst9lv8tubsb9xv3G/X5+2Af7YB8vLzKQgQxt2kAmZEKmpyfPHmPPghIpkRKvXcMADMCAo0epE3WiTunpomNjRoYxyBhkDEpJSY9Oj06PPntW6XgrKy/yIi+yszNfbr7cfPm4cTSchtPwyMjK3qm1iiSQ//KgiiVEQzREL1hgSDWkGlIXLeJPLk/HL9Qv1C+0USOjq9HV6OrlBafgFJzy9IR5MA/mvfyyWDjl5gYe4AEeL7/MVzbVm5iW/vvvWIzFWHz6NHwCn8AnZ85QM2pGzc6cwYt4ES9mZJiPNx9vPj4jI3lw8uDkwb//rnTcVU1ZwvA19zX3/fBDcV4bN06c1/5oxVzZVb0E8hBR1r2wEJMwCZO++w7d0A3doqPFfO6sLKXjq25Mv/gWzhbOFs6ursbpxunG6W5uGIVRGOXsDDEQAzEODlSbalNtBwcxj75pU+gKXaGro2Nl/0RV1ZVVo/4VfoVfc3LEFfulS3gX7+Ldy5chFEIh9PJliqAIisjKMptmNs1s2pkzcj25nlzvzBm+si8fop+RszNNo2k0LSJCnLfefRc/xA/xQ1tbpeN7WlU+gTyMltJSWmo0QjqkQ/rmzTgCR+CIxYu1qEUtHjr0YKtqc7xVjf9Z/7P+Z+vUoT20h/Y4OlJH6kgdGzSgoTSUhtrbi8Rjbw9u4AZuDRqAAziAQ4MGYA/2YN+gAdiBHdg1aIA61KGudm04AAfggI0NxVEcxdnYiIRlZ4en8BSesrGBpbAUllpaKnbAo2E0jC4poRbUgloUFYkT+u3bGIzBGFxUBK/AK/BKURH5kA/53L0Lt+E23M7Lg+twHa7n5cFluAyX8/KgH/SDfjduYCNshI2uX0dzNEfzGzfErKS8POyO3bF7Ts4R1yOuR1y5nYGyEH3G+oz1GfvKKzgEh+CQMWMICAhef13pm97P/UirWwJ5pAdFE/EaXsNrK1aYJ5snmyevWsU356s303qcU6dOnTp16q9XPlKQFCQFWVureql6qXo9fqLRb9dv128vKRHVnu/de/j1Fi1atGjR4s6dmJiYmJgYo1Hp94GVD3GvsX59+ZB8SD40dCi9QW/QGyNH1pR1XjUngTyEltASWlJcjJZoiZZbtkAtqAW11q0r2Fuwt2Dv7t1/LrrIGKvJXKJdol2iLS3rrqq7qu6qnj2hN/SG3oMGUQ/qQT369Kmp67ZqbAJ5pAelD8SQw7Zt1Jt6U++YmDrN6zSv03zXrupW+oAx9jBJEusuAgMBAQFDQ8UIxuDB4nGDBkpHWFlwAnlMlERJlHTzJuZgDuZs2gT9oT/0//FHcdMxPv7BVvw+MlaF+C32W+y3uFUrYwdjB2OHd97Bd/FdfHfIEPFq48ZKx1fZcQJ5RqYy79gCW2CLnTtpNa2m1bt3G1QGlUF14IDokFhUpHScjNVEpoW3Zv3M+pn169xZ2ihtlDb26AFO4AROr74qGss1a6Z0nFUVJ5ByUlai5Q7cgTvJybgFt+CWbdtEGenYWN0DD7bm95+xZ2CaJitPlafKU0NC8FV8FV/t3RuaQTNo1rWr4rPxqilOIAqhBEqghJwcXIALcMHu3XgVr+LVPXswF3MxNz4+JSYlJiXm2jWl42SsMhDnqcaNYSWshJVBQfA+vA/vd+8uVsJ3746BGIiBjo5Kx1nTcAKp1HJzoSf0hJ5aLbiCK7jGxUEUREFUfHzBsIJhBcNSUni2GKvKTNOsL3a82PFixxYtjN8ZvzN+FxQEQ2EoDA0ORkd0REeNBnbDbtjdsiU3wKtcOIFUVX7gB35FRdSZOlPn1FS8jtfxekKC/Kr8qvxqYqI8R54jz9HpMpZlLMtYduWK0uGymslrlNcor1EvvihNlCZKE318pJ3STmlnQADZkz3ZBwbibJyNs/38xNbW1krHy54MJ5AaoaAAOkEn6HTuHDmREzllZqId2qHdiRNye7m93D4z0yzTLNMs88QJLgHD/hcPDw8PD4969SxUFioLVatWYoW1u7to8dyqlai26+6ORjSi0dOTa6dVb5xA2J8REFBeHsVSLMUeP44rcSWuzMzEhbgQF547RztoB+3IycEBOAAHZGdjG2yDbbKz+Z5N1WIqoknplE7pTk60gTbQBicnUaXZyQm+gW/gGxcX0fjN3R3egDfgjdatsR22w3b16ysdP6scyr8n+nSaTtPT03EaTsNprVqJZ1UqpQ+cPV+mlf1i1ll2NuRBHuRlZ8NVuApXs7NFld/sbEzDNEy7eBHDMAzDrl8XDbLy843BxmBjcH6+aqJqompifr5oKGYqMVPTP+AgipIZarV+jn6Ofo5abRZnFmcWp1bjKByFo9Rq2U62k+1eeAH2wl7Y27QpjsfxOL5pU/H+OzmJMv6OjlAH6kAdJ6eaunK6ZtDrxXn3xAlx3m3Tprz2VP5XIKmQCqnTp4sicrGxYiXnhg3iRV6ow/6GqXx/FERBVH6+qGaan4/JmIzJ+fn0AX1AH+TnYymWYmlhIa2klbSyqAgGwkAY+F89sOfAHJhz5w52xa7Y9Y/aVOLK6vZtGWWUkQgBAUGWxasPV6WtW1cM2UiSRBJJhEiRFEmRdnZl3y8MwzDM3Fw+Ih+Rj/xRZVUUQbS0hLtwF+5aW5MFWZCFrS3+C/+F/1KrqS21pbZqNU7H6ThdrYYIiIAItbqqlfdmCgmAAAi4ehV/wp/wpwEDKJ/yKb9rV9GIatq08tpthSUQUQ3388/b/Nbmtza/NWxottNsp9nO9etF2enOnctt/4wxVl11gS7Q5fBh2Af7YN8//qHVarVabW6uhjSkoc8/L+8EYl7Rx5veIb1DeocbN0Tv7+7dC/MK8wrzpkwRQxtTpoiteIiLMcb+whd8wbe0VMzC/OKL2u/Xfr/2+19/rVSNPkmp98F0wLqVupW6ldOni5u3Gg0dpIN0MC1NqbgYY6yyoUN0iA4dPy5GdAICtMO1w7XDZ85UurirYgnkYaIo4bFjd76/8/2d7wMCIB7iIX7WrLKMyxhjNYWpEdm39C19O3Nm8c7incU7NRoxRGUqgaS8SpNATEwrq7VWWiut1ZQpRkujpdGydWvaRbto186dSsfHGGPlRayjiY01uhndjG4+PjofnY/O57PPMgdkDsgcUPk+SFe6BPKw9Oj06PTos2d19jp7nf1rr8kxcowc06ePqQqu0vExxthTIyCg8+fF1wEDdIN1g3WDu3YV94ozM5UO7+9U+gTysDTnNOc0523bivOL84vzW7QgIiIKCxOv5uYqHR9jjD1SO2gH7W7cENPTP/mktra2tra2dWsxhB8To3R4T6rKJRAT0yWdKIq+YoV+oH6gfqCrq7gyiYyESIiEyOvXlY6TMVZzmRrRmRIGJEESJDVrph2qHaodOnu2uAleXKx0nE+rwqfxlpc/N26KihItKX/4gdzJndzHjIHv4Dv47sMPMQADMKBRI6XjZYxVQw8W9IlpttHRtRrValSr0b/+FX8z/mb8zcJCpcN73qpNAnmYuCQsKAAd6EA3a5Z7H/c+7n3mzas1t9bcWnMHDqQSKqGSiRPxU/wUPzWVWGGMscdHX9FX9NWZMyCBBNK//mXbxbaLbZfly6v6lcXjqrYJ5GF/nsWwerX4+uOPYiX+q6+KWV4ffICbcTNu7tEDlsNyWC5V2SE+xtjzQ0tpKS01GtGABjTs3EnbaTttX7JE103XTddt794HW9W4mm0PEoheL76WwwpwX/AF38raSpJIzKvesQPswR7sd+wQQ19OTqJm1/Dh8BF8BB+9956oTvrii0pHzBirKNnZInH8+9+i0dW//11l+uuU93n3wfo8SfToLr+xORpEg2hQ1ekHIIa+srNFYpk61Xmz82bnzU2bmqYPi+l2MTF0hI7Qkfv3lY6XMfas7t2jLbSFtqxbB1tgC2x57TXnB3T+On+d/4wZVSZxPFDu590USIGUO3fMMRzDMfzWLfGJW61+7jtqAS2ghY9Peb5Z5SkmJiYmJsZohBiIgZht28Sz27YF2QfZB9nb2pYElASUBPTtKw+QB8gDBg2Ct+FteLtrV/RDP/QzrzFDhIxVaqaKFg2hITTcuxd2wS7YtW6dmL25ZctRh6MORx1Mk3BAdM5VOuZnUd7n3ckwGSbfuoU+q31W+6zeuROjMAqjevZ83vsxjR3CClgBK774wmKaxTSLaXPmJDkmOSY5Vr9P8GIIrEED8ahvXxpLY2ls7964BJfgkpAQ8Ty37mSsXDxo9QzvwXvw3p49NJgG0+Dt2y0OWBywOLBlizjvmPrMVB/tctrltMupVat0eun00ukTJ8JIGAkjP/sMR+NoHG1mVj573bEDfTJ9Mn0y58/Hd/AdfOejj8r9SAMhEAIvXRK1riZMqKoLaJ6U6Qdcoi/Rl+hDQqQN0gZpQ+/e4sqmVy+xFfdHYexx0DyaR/MuX4ZESITEHTtwCA7BIVu31n6x9ou1X9y/v6bMgtKkadI0af37i2UK8+ZBAiRAQtOm5b7jITAEhsybh77hvuG+4f36UTzFU/zGjRX9BoiWmYcO0Vv0Fr0VEZGmT9On6TMyKjoOpflu993uu93ZWZ4qT5WnhoSIxkYhIaKxUEgINxZiNcoYGANj7t4lK7Iiq6Qk1KMe9bGx4p5tbKzuAbFxzZn9JGaNtmgB3aE7dF+4EPbAHtjTvbsy0bzxBnqRF3mRnZ1ZilmKWUpeXvle8jxa2TS5UTgKR33/vTxYHiwPnjkzbXza+LTxly4p8wYpLzQ0NDQ01MzsQvqF9AvpGo1oFdupk3xSPimfDAyEM3AGzrRrh+NwHI574QWl42XssZgW3A2BITAkKUlUn01IEKWJDh4U6cHU1sHUIbLmKZsVuhE2wsYpU6gZNaNm772n1D1WSqEUSjEY0Bd90bdBAzS94JPvk++Tf+CAaPnZqZPSb5zpphc1pabU9PvvpUgpUor88stU61TrVOucHKXDq2z8e/v39u/dvLnxqvGq8WpAAK2ltbS2XTtoBI2gUdu22Bk7Y+fWrcXWfA+GlZMHVw7QGBpD42PH4CSchJNHjqAOdahLSqJMyqTMhATTbEelw61sfO/53vO95+hI7ak9tZ88WZwH339f9AGxsFA6PpgLc2Huvn3aztrO2s4hIWUJRLNfs1+zf8gQmAATYMKqVUrH+RcP6uNDD+gBPVauNMw0zDTM/Oqrqja9TimmK5msrKysrCxXVwqjMArz9BS9xNu0oQE0gAZ4eUFdqAt1PTwwEAMx0NFR6biZwjSgAQ0RWIIlWGZni9+PY8foNt2m2xkZmIAJmJCRYQw2BhuD09NF9ezz58V/rrlXDo/La5TXKK9RL75o/qn5p+afTp4Mu2E37B4+HJbCUlha+dbPUQ7lUM477+iu667rrq9ZU5ZAPOd6zvWca2OjylJlqbIuX4YjcASO2NkpHfAjD2QJLaElxcV4EA/iwR9/lMfIY+QxCxak2abZptmePKl0fFWd6ffBYpvFNottbm5yopwoJ7q54VJciktdXeEqXIWrLVqQF3mRl5sb3sE7eKdpU1gIC2Fh1Vn3U9NQIiVS4rVr2A7bYbtLl2goDaWhZ85Ik6RJ0qTTp0XtuDNn5GPyMfnYmTOSp+QpeZ49K9ZF3bundPxVnXehd6F3YcuW0hJpibRk3DjqRJ2o0zvv4Bgcg2OsrJSO75HCIRzCb90S92IdHEy/D/jwdhXVjP25e/BJiWbSTJq5a5doAfnNN2mhaaFpofv2KR1eTSF63VtZFUQURBREODpKsiRLsqMjvolv4psODuIKt2lT+pl+pp+bNMHVuBpXv/AC7IAdsKNhQ7FQ0zQNukEDsT7J9LgGMX3yV4EKVHl5ZV8twAIs8vKgP/SH/jduwEE4CAevXQM1qEGdmwvO4AzO2dnwCrwCr2Rni8R/+XJhamFqYWpOjqlhm9KHVzMgiskxXbrI+XK+nP/RRxiHcRjXo4dYaIL47PuoGOIe9bRppoWVZUf48IYeHh4eHh716llYWFhYWJgaNtWtq/QBPLX20B7anzxJvagX9Vq+XD9OP04/bvXqY8eOHTt27NYtpcNj/5tp6C37jew3st9o0MAw3zDfML9ePXGz1caGJtNkmmxnZ3bK7JTZKRsbOA2n4bS1tZwpZ8qZdeqIK6I6dfACXsALZmbiE5SFBX1P39P3NjYP7w8bYSNsZGkJd+Eu3P2ve0W1oTbUvnePrtE1uvbXEzC+i+/iu0VF4pNaaSk1p+bU3GgUbQXu3JHcJXfJ/c4d4wzjDOOMoiL8Br/Bb4qKxLTLggKzrWZbzbYWFpasK1lXsu72bVFdOi9PfHceCqrsxDR9tdrQ1tDW0HboUGpEjajRyJHiA1CLFkrH99RMVx5REAVRzZuXFal94JEZ0LeJbxPfJuPGUWNqTI2/+Ubp43heTCVI0B/90X/DBnFz6ocftKhFLf72m9iK/2AZY48iSWI6bceO9Av9Qr8MGwa5kAu5AwZU+qGoJ/UJfAKfhIdrQ7Wh2tBFix5++ZEJRAxFmJvf3Xp3692tqakwA2bADC8vpY+n3HwEH8FHV66IoombNplqXomMGx8vNqo5880ZYwB+i/0W+y1u1UrcYw0NpX20j/YNGYKTcBJOat5c6fjK17FjtVNrp9ZO9fERCzMNhoe3+NsxOB8fHx8fH41GzDtOSKg008kqiKnev5jevG4dzsSZOHPdutTPUj9L/ez0aaXjY4w9u7IFeiNgBIwYNAjqQ32oP2gQfA1fw9eurkrHV2EezHaV9kh7pD3t2qXEpMSkxKSnP2rzx76JI97gjz8Wj+bNU/o4KwedDrMwC7N+/hleg9fgtZ07U9ekrkldc/y40pExxv5KLMzz8BD3xHr2lLPlbDl74EDshJ2wk7e30vEpzdQSXBeiC9GFREX93fZPOAsAUSSSX34Rj/v2VfqAKxtKoARKyMnBBbgAF+zeLS59d++WOkodpY779j18E4ox9vyIBFG3LgZjMAaHhFAcxVFcjx40n+bT/B49cDyOx/EODkrHWdmIdWGbNulG6kbqRoaGPnj2b4fsn3gaWVnVR12prlR36BDOwBk4w89P6Tegsisr1fIz/ow/p6eL+fexsTgMh+Gw7dtFYklIEFvzTXzG/peyexO2sq1s26sXqUhFqpAQPISH8FCHDjVtqP1p0UE6SAfT0gzLDMsMy9q3F7P//ihr/3eeeh6y/1n/s/5nHRyM0cZoY3RcXIVVgaymaAEtoAW//y5qWiUmihIuCQl4ES/ixcRE1RbVFtUWrba6lsFnDOC/PqBOLp1cOtnXV9oh7ZB2BASYar/hr/gr/hoQwAtWn40YqrpwwbjRuNG4sX37p63o8cwLWbznec/znte0qXRJuiRdOnSIE0n5KCtithk34+YzZ6ANtIE2cXFwES7Cxfh4KVPKlDK12pSxKWNTxp44oXS8jP1/vAO9A70DmzSBNbAG1mg0eBfv4t2gIHACJ3AKDsaNuBE3+vpW1lIeVZ2pDL5UJBVJRR07pvZK7ZXaKyvrab/fc1sJaZrFIAL89Vcea1TIg+nIVEIlVKLVikZWmZkUQREUcfy4tFJaKa3MzLzd/3b/2/0zM3llMnsWpsoDRR2LOhZ1bNlSHi4Pl4e7u4sGda1bwyJYBItatYILcAEu+PiIafIvvqh03DWN6d6s2Q2zG2Y3QkJSHFIcUhzOnHnW7/vcl9KbrkjwA/wAP9izB9tje2z/8svKvG3sUco6Rd6G23D7/Hm0Qzu0O36czMmczDMzoS20hbbHj6MHeqBHZqYYQjt3jofQqreyISRNqaZU4+oKt+AW3GrZEpIhGZJbt0YDGtDg7g6X4BJc8vAQQ63Ozkq1gWB/40ElDpyFs3BW9+7Pu5p5udViafNbm9/a/NawoXRDuiHd2LxZHEBgYMW8a6zctIN20O7GDbACK7DKzgYbsAGb7GywAzuwy86mvbSX9l68SDEUQzHZ2aLxTXa28Q3jG8Y3srPFTbrr15U+jOqq7dq2a9uufeEFeYo8RZ7i5ES9qTf1dnKSz8hn5DOOjtgNu2G3Zs3EBwcnJyiCIihycoJiKIZiJydIgiRIathQ6eNgz0NcnLRF2iJt6dtXXHHcvPm891Duxbxcol2iXaItLev0qtOrTq8lSzAUQzH0/ffLe7+sciqronwRL+LFa9dEf4H8fPqYPqaP8/PxDJ7BM/n59Da9TW/n56MDOqBDfj4EQRAE5edTARVQQX4+bsftuD0/X94ub5e337olrZPWSevu3sXpOB2n375dtr+pNJWmGgyl+lJ9qb6w0PS8qPVWUvKsVWbF0K21dWlpaWlp6R9j9hYqC5WFytZWzFL8o/EPTaNpNM3OTh4kD5IH1a4t4larxXHVq4d1sS7WVatFy2e1mi7TZbqsVuMaXINr1GpyIzdyU6txPs7H+Wq1KE6pVotGQ40aVbtSGuzJxEAMxKxYcT/1fur91A8/zByQOSBzQGlpee2uwqtB+uzy2eWz64MPoB7Ug3rz5/MvPKt87t0TReT+695QNERDtClBcEMuVjmYPpBJo6XR0ujIyNS01LTUtOXLK2r/ipUTNs3jNg4zDjMOW78eO2JH7GjqmMcYY+yRCAjo1CnRt2XgwDR9mj5Nn5FR0WFISh2/abqpYalhqWFpu3bi2aVLy/ogMMYYE0znxS2wBbYsWSLKxGs0SiUOk0rX0ESUIggOpq/pa/r63//GyTgZJ7u5KR0XY4xVNFGKJStL3OsaMUK3WLdYt3j/fqXjMql0CcTEdHMS3oV34d1PPxWzfj76iBcYMcaqrQfVcMmHfMhn7lwcgSNwxFdfVdaWwpU2gTysTXib8Dbhrq6Sr+Qr+UZFiYVKPXsqHRdjjD0fO3bIi+RF8qLIyLTAtMC0wHPnlI7o71SZBPIw33q+9XzrBQXJ5+Xz8vmZM0W/jk6dlI6LMcb+1ivwCrySlCS3ldvKbT/9NC00LTQtdN8+pcN6UlU2gTxMNK8PCSEgIPjqK5gG02Car6/ScTHGmHDsmJg99cUXovp2TIzSET2rapNAHmZKKDLIIMPcuTgNp+G0Nm2UjosxVgNMgSkwJTMTZsJMmPn55yJhbNwoXqw+s0yrbQL5M0kSs7v69RPT38LDxfPBwUpHxhirBrpAF+hy+DDEQizELlokEsamTeLF6tvfp4YkkL/yC/UL9Qtt00aeLc+WZ48eDaEQCqFvvy1e5ZXGjLH/h2mWVBEVUdGGDWZxZnFmcd9883e9w6urGptAHmZqhUlzaA7NGTYM8zAP8yIjRa2mZs2Ujo8xpoAACICAq1dFWfpvvxUL+hYvFlcYeXlKh6c0Lr/8QG5ubm5ubklJ7urc1bmrk5ODMRiDcfHimyturri5IjUV6kAdqIOIaZiGac7O4n+pVErHzRh7Xu7doy20hbZs3Ah60IP+n/986dxL5146N2ZM7IDYAbEDDhwQ54nKtx5DKXwF8oRM/RL0r+tf17/eqxe8Cq/Cq0OGwC7YBbu6dxdbcWJhrDIq64NzDs7BuQMHsBE2wkY//mgVahVqFfqf/8TfjL8Zf/OPqs3sf+ME8px4eHh4eHjUq2cRZRFlEdW7N12ja3TtnXfwIB7Eg126gBa0oEV+vxmrSJ2gE3TSaqkn9aSeP/6ouq66rrq+fn3y4OTByYN//13p8Ko6PqGVM1NjLbNIs0izyE6dYCNshI0hIeRADuTQpw8GYAAGNGqkdJyMVUUURVEUlZ+P4RiO4fv2iXVgsbFGf6O/0X/HjoxlGcsyll25onSc1RUnEIWEhoaGhoaamZ0/f/78+fNt2mAERmBESAi9Tq/T67174wbcgBsCAmA5LIflkmJVkxmrFB6sqyAXciGXbdukbClbyo6NFQ3DDh0SN7X1eqXDrGk4gVRSnnM953rOtbdXrVetV60PCRFlnAMDqS7VpbqBgXASTsJJT0/uRc2qMkqhFEoxGERr3WPHYD7Mh/nx8aL1bkKCPl4fr4/ft49bIVdOnECqKJFgbGxU61TrVOu8vcX0Y40GJ+JEnBgUJLZ65RWxcLJBA6XjZTUTLaJFtKiwEC7CRbiYnIyDcBAOio+XL8gX5Atardxcbi43P3w4AzMwA/9oRcyqBk4g1RqiuAfTsqWZwcxgZvD1pR20g3a0agVe4AVeHh6YgimY4u4OCZAACU2bKh0xqyICIRACL12iz+gz+uzECZgNs2H28ePSaem0dPr4ccNEw0TDRK02vUN6h/QOJ0+K/1R9SngwgRMIA4A/FlLKfrKf7OfuLhKLhwciImKrVtAVukLX1q3hLtyFuy1aQCmUQmnjxjy7rIozdbqzAAuwyM2FN+FNePPkSdHA6MQJcY/h+HHaSTtp5/HjqvGq8arxJ04ccT3iesT1zh2lw2fK4j989lTcN7hvcN9gYWFtbW1tbe3gIE40TZqIVxs3hgiIgAhnZ2gP7aG9szMlURIlOTujFVqhVZMm8CV8CV+aVvhz6ZhnY7p5nJcnpq1evQoH4AAcyMqiH+gH+iErC4bBMBiWlUUbaSNtzM3F/tgf+1+9ahhkGGQYdOqUuMdQVKT0kbCqhRMIUxCi32W/y36X1WrxuH5943DjcONwtRpX4kpcqVaLzmxqNTqgAzqo1eKKR62m6TSdptevj9twG25Tq2EBLIAFajUYwAAGlQp2wA7YYWdXtqsO0AE6mJtTN+pG3WxtyyL4BX/BXywtxf/7r0SmBz3o/+uxClSg+q8VyOZgDub37tGb9Ca9WVJS9v324l7cW1gIv8Fv8JvBYHqeNKQhza1b4jgMBhgH42Bcfj6tpbW09uZNdEM3dMvPF1cE+fl0mS7T5fx81KEOdfn5NJyG0/D8fNlNdpPdbt5UTVRNVE3Mz09xSHFIccjPf7AXHiJiFer/AP7CezadIEAEAAAAJXRFWHRkYXRlOmNyZWF0ZQAyMDIyLTExLTAxVDA5OjE1OjU0KzA4OjAw5wiZCQAAACV0RVh0ZGF0ZTptb2RpZnkAMjAyMi0xMS0wMVQwOToxNTo1NCswODowMJZVIbUAAABMdEVYdHN2ZzpiYXNlLXVyaQBmaWxlOi8vL2hvbWUvYWRtaW4vaWNvbi1mb250L3RtcC9pY29uX3Nmb2dobzVnb2RrL29kYmMtZnVsbC5zdmcrA1lCAAAAAElFTkSuQmCC;" vertex="1" parent="1">
          <mxGeometry x="849.5" y="690" width="80" height="80" as="geometry" />
        </mxCell>
        <mxCell id="yQNdhb8caFljwRBjTB0E-107" value="RA数据库服务器&lt;br&gt;&lt;div&gt;&amp;nbsp; &amp;nbsp;10.11.101.175:&lt;span style=&quot;background-color: initial;&quot;&gt;1521&lt;/span&gt;&lt;/div&gt;" style="whiteSpace=wrap;html=1;verticalAlign=top;" vertex="1" parent="1">
          <mxGeometry x="830" y="805" width="120" height="39" as="geometry" />
        </mxCell>
        <mxCell id="yQNdhb8caFljwRBjTB0E-113" value="" style="edgeStyle=orthogonalEdgeStyle;rounded=0;orthogonalLoop=1;jettySize=auto;html=1;fontFamily=Times New Roman;fontSize=6;" edge="1" parent="1" source="yQNdhb8caFljwRBjTB0E-110" target="yQNdhb8caFljwRBjTB0E-112">
          <mxGeometry relative="1" as="geometry" />
        </mxCell>
        <mxCell id="yQNdhb8caFljwRBjTB0E-110" value="" style="shape=image;imageAspect=0;aspect=fixed;verticalLabelPosition=bottom;verticalAlign=top;image=data:image/png,iVBORw0KGgoAAAANSUhEUgAAAMgAAADIEAYAAAD9yHLdAAAABGdBTUEAALGPC/xhBQAAAAFzUkdCAK7OHOkAAAAgY0hSTQAAeiYAAICEAAD6AAAAgOgAAHUwAADqYAAAOpgAABdwnLpRPAAAAAZiS0dEAAAAAAAA+UO7fwAAAAlwSFlzAAAASAAAAEgARslrPgAAER9JREFUeNrt3W1sVGXex/H/f1oEwQLagCkUedL4sAHrnLZIG0uWsGBWlJhSwlJ84Soqaou2Yi2rGO1C3cWnDkbAko1L2BiooCirLguSKM+dmRZEl1JDlEVqUGR5soil174YazZ739w3XG3naud8P28mp2k7v9NYvs60c6qCuPA8z/O8kSOlREqkZMoUM8lMMpNuvVV6S2/pfdVVWqIlWpKeLrVSK7V9+rjeC3RJWZIlWadPmxfNi+bFQ4f0Fr1Fb/nyS23SJm364AN5TV6T19atC08OTw5PPnDA9dxEp64HJKrMisyKzIprrzVvmbfMWxUVkimZkjl1qkQkIhHl6w50IlNqSk3pxo2B9wLvBd579NHwyvDK8Mq9e13vSjT8Q9bBYo80SktNrak1tc89p1mapVnJya53Af71449mgBlgBjz+ePSD6AfRD15+2fWiRBFwPSAxBALePm+ft+9Pf4odP/884QC6ih499Bv9Rr956aXggeCB4IHly2NvD/DvXzvxBWynYGmwNFhaWSmFUiiFd9/teg+A89MCLdCCe+7xXvFe8V75/e9d7+nueArLkhf0gl6woEBUVHT1atd7AFw8zdVczZ06NRwKh8KhNWtc7+lueARykcaZcWac6dVLciVXchctcr0HgD2TY3JMzvPPXx26OnR1qGdP13u6GwJykU5uOrnp5Kb775dtsk22DR3qeg+Adlgki2TRsGH90vql9Uu77z7Xc7obAnKR9Iye0TMzZ7reAaADVUqlVBYWup7R3RCQC3TjAzc+cOMDgwfLO/KOvON5rvcA6ECZkimZ2dnZjdmN2Y3p6a7ndBcE5AL1GNxjcI/BnscLAYEE9NP3dUtNS01LTUaG6zndBQG5UGtlraxNS3M9A0AnelPelDcHDXI9o7sgIBfIPGQeMg8NGOB6B4DOow/qg/rgwIGud3QXBORC3SP3yD28shxIaHyfXxQCAgCwQkAAAFYICADACgEBAFghIAAAKwQEAGCFgAAArBAQAIAVAgIAsEJAAABWCAgAwArXfPGrJ+QJeaKx0dSZOlNXVNRyecvlLZdv2bJn7p65e+aePu16Hromz/M8z+vdW5/RZ/SZnBxz1pw1Z6uqZIEskAU33OB6H+KLgPiM2Wl2mp0nTmi2Zmv2hAnRaDQajR486HoXuodIJBKJRL7/XibLZJm8cWMsKBMmmCpTZar27tU5OkfnXHGF652ID57C8hn9RD/RT95/PxKNRCOEA+0UC0pTUywc777reg/ii4D4zXAZLsMJBzpYWMIS/uIL1zMQXwTEZ0yFqTAVxrjeAaD7IyAAACsEBABghYAAAKwQEACAFQLiNymSIim9e7uegQRzXI7Lcf678hsC4jP6rr6r7+bk/HSkrvcgMZhNZpPZlJvregfii4D4UjAYewVxWZnrJejeghuDG4Mb58zRhbpQF7b9jwn8gkuZ+FplZfB48Hjw+J13ypfypXy5ebPWaZ3WHTvmehm6qJCEJNS/v5ln5pl5eXlapmVaRjj8ioD4nI7X8To+Ozt21HYL/N9ijzhcr4BrPIUFALBCQAAAVggIAMAKAQEAWCEgAAArBAQAYIWAAACsEBAAgBUCAgCwQkAAAFYICADACtfC8qv5Ml/m796tI3SEjpgzJ7l/cv/k/rt27RiyY8iOIc3Nrueha8pNzU3NTU1JaS5tLm0uHTdOsiVbskOh2EUVhw93vQ/xRUB8xmw32832r7/Wm/VmvXnChHA0HA1Hv/3W9S50D1uPbj269ejJkzJP5sm89eszijOKM4obGpIkSZKkvj72XvxhKb/gKSyf0SN6RI+sWROJRqIRwoF2qg/Vh+pDjY2xo82bXe9BfBEQn9FROkpHHTzoegcSzDpZJ+u++ML1DMQXAQHQbma5WW6WG+N6B+KLgAAArBAQAIAVAgIAsEJAAABWCIjPtOa35rfmX3qp6x1ILDpdp+v0Pn1c70B8ERCf0Tqt07qcHNc7kEgCAZkhM2TG2LGulyC+CIgvTZzoBb2gF7z3XtdL0J2peku9pd7Sp58WFRW97jrXixBfXMrEr1RUtLra2+Bt8DbcdZfkSZ7kbdkiq2SVrDpxwvU8dFFTZIpMSU2VCqmQivHjpVqqpdrzXM+CGwTE78qlXMrz8mIHbbfAeYQkJCHXI9BV8BQWAMAKAQEAWCEgAAArBAQAYIWAAACsEBAAgBUCAgCwQkAAAFYICADACgEBAFghIAAAK1wLy6/my3yZv3u3jtAROmLOnOT+yf2T++/atWPIjiE7hjQ3u56Hrik3NTc1NzUlpbm0ubS5dNw4yZZsyQ6FtEzLtGz4cNf7EF8ExGfMdrPdbP/6a71Zb9abJ0wIR8PRcPTbb13vQvew9ejWo1uPnjwp82SezFu/PqM4ozijuKEhSZIkSerrY+/Vu7frnYgPnsLyGT2iR/TImjWRaCQaIRxop/pQfag+1NgYO9q82fUexBcB8RkdpaN01MGDrncgwayTdbLuiy9cz0B8ERAA7WaWm+VmuTGudyC+CAgAwAoBAQBYISAAACsEBABghYAAAKwQEACAFQICALDCpUzQKbxt3jZv229+I43SKI1XXeV6j2+FJCShvXsjkUgkEvnrX13PQWIhIOhQ48w4M8706nWq+lT1qeqVK2WZLJNlAR7pOtJ27TO5RC6RS9LSXO9BYiEg6FCnMk9lnspsCwbhcC120cxkvs/RKfgGBwBYISAAACsEBABghYAAAKwQEACAFQICALBCQAAAVggIAMAKAQEAWCEg6FAjRowYMWLEDz+YSlNpKvfvd73H9ybKRJm4Z4/rGUhMXOIAHaqmpqampubcOamRGqm59lrXe3wvIhGJuB6BRMUjEACAFQICALBCQAAAVggIAMAKAQEAWCEgAAArBAQAYIWAAACsEBCfac1vzW/Nv/RS1zuQWHS6Ttfpffq43oH4IiA+o3Vap3U5Oa53IJEEAjJDZsiMsWNdL0F8ERBfmjjRC3pBL3jvva6XoDtT9ZZ6S72lTz8tKip63XWuFyG+uBaWX6moaHW1t8Hb4G246y7JkzzJ27JFVskqWXXihOt56KKmyBSZkpoqFVIhFePHS7VUS7XnuZ4FNwiI35VLuZTn5cUO2m6B8whJSEKuR6Cr4CksAIAVAgIAsEJAAABWCAgAwAoBAQBYISAAACsEBABghYAAAKwQEACAFQICALBCQAAAVggIfM1UmSpT9d13ZolZYpY8/bQYMWJGj+7xdo+3e7zdu3fbrV6v1+v1o0bJbJkts596yuwwO8yOo0dd7wdc4mKK8CUzz8wz87Zta9nesr1l+5137pm7Z+6euUeO/PwOQ2SIDPnvj9q7V1bKSlm5d6/3qveq9+rSpTJBJsiEtWtlk2ySTbfc4vq8gHjiEQh8xXxsPjYfNzToAl2gC3796/8RjgsUiUaikei33ybNSpqVNGvy5Ngjl337XJ8fEE8EBL5i6k29qX/kkVgAjh9v7+fbdc2ua3Zdc+KEudXcam595BHX5wfEEwGBP5RIiZR89VVdTl1OXc7f/tbRnz66MLowunDDBrPNbDPb/vlP16cLxAMBgT80SIM07NoVOzCmc+7EGDkmx+RYNOr6dIF4ICDwh2RJluTvv+/su9Hb9Da97fRp16cLxAMBgT+sk3WybujQzr4bs8lsMps6/36AroCAwEfGjMk6lHUo61Bqakd/5oyPMj7K+GjAAOkrfaXvmDGuzxSIBwICH+nRo/WO1jta7ygv7+jPHLgycGXgyqee0izN0qxkXl8FXyAg8JcH5AF54NFHM4szizOL8/Pb++kyZ2bOzJw5fbq+oC/oCw8/7Pr0gHgiIPCXZbJMlgUCrTNbZ7bOXLUqGA1Gg9GKitGLRi8avahPn//vw3NTc1NzU1NSPM/zPK+y0uSZPJP3l79IRCISUXV9ekA88VAbvqSzdbbOTkqKHT35ZPLO5J3JO4uLg/2C/YL9/v53nabTdNqBAz9/wH7ZL/tHjmxuaW5pbvnVr7RIi7QoJSUWJNdnA7hBQAAR0TE6Rsf07Rs7ys8/XxhUVHiYAcTwFBYAwAoBAQBYISAAACsEBABghYAAAKwQEACAFQICALBCQID/dL/cL/e3tsYOmprabs0Ss8QsOXfO9TygKyEg8KdsyZbsf/0rdvDcc609W3u29szKumzWZbMum9WzZyQSiUQigwa13Y5cNHLRyEU9e8be3/PMWDPWjF2wwFSZKlP13XeuTwdwgVeiw1fMWrPWrF2xIikpKSkpqaSkNr02vTb96NGf3+E8LzWvqampqalpewQSjcaufRWN3rj4xsU3Ln7++eSC5ILkgj/+UWqkRmpmzXJ9nkA8EBD4grneXG+u/93vokOjQ6NDFy7sqM+7W3frbm17JHPffZmDMgdlDvrHP0yaSTNpL77o+ryBzsRTWPCBJUuiK6Mroys7LhznEz4cPhw+/NJLUiiFUlhV5frMgc5EQJCYSqRESr76Knbw2GPxvvvm9Ob05vTHHzdbzBaz5T+u6gskEAKChGSWmWVmWWVl7Ifg338f7/v/bNpn0z6bdvas5Equ5P7hD66/HkBnICBILD/9Gm7SlUlXJl25Zo3rOUnvJL2T9M6aNabW1JralhbXe4CORECQUMwwM8wM+/zz2pramtqar792vaftt7z0bX1b396/3/UeoCMRECQULddyLW/72UfXEfvTt11vF9AeBASJpVIqpbLtT9V2HTpJJ+mkZH5tHgmFgCCxrJf1sn7QINcz/pupNJWmcvBg1zuAjkRAkFjOyBk5M3JkdmN2Y3ZjerrrOTfl3JRzU86gQfqmvqlvXnON6z1ARyIgSCwRiUhEtaWopailaOpU13P0WX1Wny0oaNvleg/QkQgIEpIWaqEWlpfnpuam5qampMT7/m9YfcPqG1ZfdpmWaZmWlZW5/noAnYGAIDG9LC/LywMHntl6ZuuZrfG/pEivg70O9jrYdr9paa6/HEBnICBIbIVSKIV33+15nud5zz4be2NnPZWk6i31lnpLn3lG39A39I3f/tb16QOdiYDAR556ygt6QS+4alUsKO1/ZND2Q/Lg4eDh4OHVq6VaqqV6/nzXZwrEAwGBv6ioaEGBZEmWZDU2BhuCDcGGUCgWlF/+8nw/M4n9VlffvsGHgw8HHx4/3jvkHfIOvfJKYHRgdGD0/v16u96ut7v/oT0QT7ywCf5UK7VS26ePztAZOqOoKPbGoqIzw84MOzNMxCvwCryC06fb3v3c9HPTz03v0+fnvzc1RabIFNcnAbhFQID/zU+BcT0D6Mp4CgsAYIWAAACsEBAAgBUCAgCwQkAAAFYICADACgEBAFghIAAAKwQEAGCFgAAArBAQAIAVAgIAsEJAAABWCAgAwAoBAQBYISAAACsEBABghYAAAKwQEACAFQICALBCQAAAVggIAMAKAQEAWCEgAAArBAQAYIWAAACsEJALZGaZWWaWMa53AOg8fJ9fHAJygXSSTtJJ333negeATpQv+ZL/zTeuZ3QXBOQCtW5s3di6MRx2vQNA5wkUB4oDxXyfXyh1PaB7CQSC7wffD76/Z48+qU/qk7/4hetFADrKJ59EIpFIJJKRETtubXW9qKvjEchFaW01n5pPzacPPhg7/vFH14sAtEOmZErm2bN6QA/ogdmzY28kHBeKgFykusfqHqt77KOPYkfTpslD8pA8dOqU610ALpxZbBabxSdParqma3pBQfhY+Fj42Natrnd1N0muB3RXTU1NTU1N+/YNTBuYNjBtxQodpaN0lKq8Lq/L61dcob20l/ZKSZGwhCWcnOx6L+BLs2W2zP7hB6mVWqn9/PPYG//8Z/Oh+dB8WFgYXRFdEV3Bzzxs/RuoXQMjLRSJxAAAACV0RVh0ZGF0ZTpjcmVhdGUAMjAyMi0xMS0wMVQwOToxNTo1NCswODowMOcImQkAAAAldEVYdGRhdGU6bW9kaWZ5ADIwMjItMTEtMDFUMDk6MTU6NTQrMDg6MDCWVSG1AAAAU3RFWHRzdmc6YmFzZS11cmkAZmlsZTovLy9ob21lL2FkbWluL2ljb24tZm9udC90bXAvaWNvbl9zZm9naG81Z29kay9zZXJ2ZXItaG9zdC1mdWxsLnN2ZwC0q9QAAAAASUVORK5CYII=;" vertex="1" parent="1">
          <mxGeometry x="1022.5" y="468.75" width="122.5" height="122.5" as="geometry" />
        </mxCell>
        <mxCell id="yQNdhb8caFljwRBjTB0E-112" value="&lt;div&gt;CA服务器&lt;/div&gt;&lt;div&gt;172.16.32.81:9080&lt;/div&gt;&lt;div&gt;&lt;br&gt;&lt;/div&gt;" style="whiteSpace=wrap;html=1;verticalAlign=top;" vertex="1" parent="1">
          <mxGeometry x="1025" y="607.75" width="120" height="60" as="geometry" />
        </mxCell>
        <mxCell id="yQNdhb8caFljwRBjTB0E-114" value="" style="endArrow=none;dashed=1;html=1;dashPattern=1 3;strokeWidth=2;rounded=0;fontFamily=Times New Roman;fontSize=6;" edge="1" parent="1">
          <mxGeometry width="50" height="50" relative="1" as="geometry">
            <mxPoint x="960" y="880" as="sourcePoint" />
            <mxPoint x="960" y="170" as="targetPoint" />
          </mxGeometry>
        </mxCell>
        <mxCell id="yQNdhb8caFljwRBjTB0E-119" value="" style="endArrow=none;dashed=1;html=1;dashPattern=1 3;strokeWidth=2;rounded=0;fontFamily=Times New Roman;fontSize=6;" edge="1" parent="1">
          <mxGeometry width="50" height="50" relative="1" as="geometry">
            <mxPoint x="1200" y="880" as="sourcePoint" />
            <mxPoint x="1200" y="170" as="targetPoint" />
          </mxGeometry>
        </mxCell>
        <mxCell id="yQNdhb8caFljwRBjTB0E-120" value="省联社测试环境" style="rounded=0;whiteSpace=wrap;html=1;fontFamily=Times New Roman;fontSize=6;" vertex="1" parent="1">
          <mxGeometry x="729.5" y="175" width="120" height="60" as="geometry" />
        </mxCell>
        <mxCell id="yQNdhb8caFljwRBjTB0E-121" value="农信银" style="rounded=0;whiteSpace=wrap;html=1;fontFamily=Times New Roman;fontSize=6;" vertex="1" parent="1">
          <mxGeometry x="1030" y="185" width="120" height="60" as="geometry" />
        </mxCell>
        <mxCell id="yQNdhb8caFljwRBjTB0E-122" value="" style="endArrow=none;dashed=1;html=1;dashPattern=1 3;strokeWidth=2;rounded=0;fontFamily=Times New Roman;fontSize=6;" edge="1" parent="1">
          <mxGeometry width="50" height="50" relative="1" as="geometry">
            <mxPoint x="200" y="880" as="sourcePoint" />
            <mxPoint x="200" y="175" as="targetPoint" />
          </mxGeometry>
        </mxCell>
        <mxCell id="yQNdhb8caFljwRBjTB0E-123" value="行内外联前置平台" style="rounded=0;whiteSpace=wrap;html=1;fontFamily=Times New Roman;fontSize=6;" vertex="1" parent="1">
          <mxGeometry x="250" y="175" width="120" height="60" as="geometry" />
        </mxCell>
        <mxCell id="yQNdhb8caFljwRBjTB0E-125" value="" style="shape=image;imageAspect=0;aspect=fixed;verticalLabelPosition=bottom;verticalAlign=top;image=data:image/png,iVBORw0KGgoAAAANSUhEUgAAAMgAAADIEAYAAAD9yHLdAAAABGdBTUEAALGPC/xhBQAAAAFzUkdCAK7OHOkAAAAgY0hSTQAAeiYAAICEAAD6AAAAgOgAAHUwAADqYAAAOpgAABdwnLpRPAAAAAZiS0dEAAAAAAAA+UO7fwAAAAlwSFlzAAAASAAAAEgARslrPgAAER9JREFUeNrt3W1sVGXex/H/f1oEwQLagCkUedL4sAHrnLZIG0uWsGBWlJhSwlJ84Soqaou2Yi2rGO1C3cWnDkbAko1L2BiooCirLguSKM+dmRZEl1JDlEVqUGR5soil174YazZ739w3XG3naud8P28mp2k7v9NYvs60c6qCuPA8z/O8kSOlREqkZMoUM8lMMpNuvVV6S2/pfdVVWqIlWpKeLrVSK7V9+rjeC3RJWZIlWadPmxfNi+bFQ4f0Fr1Fb/nyS23SJm364AN5TV6T19atC08OTw5PPnDA9dxEp64HJKrMisyKzIprrzVvmbfMWxUVkimZkjl1qkQkIhHl6w50IlNqSk3pxo2B9wLvBd579NHwyvDK8Mq9e13vSjT8Q9bBYo80SktNrak1tc89p1mapVnJya53Af71449mgBlgBjz+ePSD6AfRD15+2fWiRBFwPSAxBALePm+ft+9Pf4odP/884QC6ih499Bv9Rr956aXggeCB4IHly2NvD/DvXzvxBWynYGmwNFhaWSmFUiiFd9/teg+A89MCLdCCe+7xXvFe8V75/e9d7+nueArLkhf0gl6woEBUVHT1atd7AFw8zdVczZ06NRwKh8KhNWtc7+lueARykcaZcWac6dVLciVXchctcr0HgD2TY3JMzvPPXx26OnR1qGdP13u6GwJykU5uOrnp5Kb775dtsk22DR3qeg+Adlgki2TRsGH90vql9Uu77z7Xc7obAnKR9Iye0TMzZ7reAaADVUqlVBYWup7R3RCQC3TjAzc+cOMDgwfLO/KOvON5rvcA6ECZkimZ2dnZjdmN2Y3p6a7ndBcE5AL1GNxjcI/BnscLAYEE9NP3dUtNS01LTUaG6zndBQG5UGtlraxNS3M9A0AnelPelDcHDXI9o7sgIBfIPGQeMg8NGOB6B4DOow/qg/rgwIGud3QXBORC3SP3yD28shxIaHyfXxQCAgCwQkAAAFYICADACgEBAFghIAAAKwQEAGCFgAAArBAQAIAVAgIAsEJAAABWCAgAwArXfPGrJ+QJeaKx0dSZOlNXVNRyecvlLZdv2bJn7p65e+aePu16Hromz/M8z+vdW5/RZ/SZnBxz1pw1Z6uqZIEskAU33OB6H+KLgPiM2Wl2mp0nTmi2Zmv2hAnRaDQajR486HoXuodIJBKJRL7/XibLZJm8cWMsKBMmmCpTZar27tU5OkfnXHGF652ID57C8hn9RD/RT95/PxKNRCOEA+0UC0pTUywc777reg/ii4D4zXAZLsMJBzpYWMIS/uIL1zMQXwTEZ0yFqTAVxrjeAaD7IyAAACsEBABghYAAAKwQEACAFQLiNymSIim9e7uegQRzXI7Lcf678hsC4jP6rr6r7+bk/HSkrvcgMZhNZpPZlJvregfii4D4UjAYewVxWZnrJejeghuDG4Mb58zRhbpQF7b9jwn8gkuZ+FplZfB48Hjw+J13ypfypXy5ebPWaZ3WHTvmehm6qJCEJNS/v5ln5pl5eXlapmVaRjj8ioD4nI7X8To+Ozt21HYL/N9ijzhcr4BrPIUFALBCQAAAVggIAMAKAQEAWCEgAAArBAQAYIWAAACsEBAAgBUCAgCwQkAAAFYICADACtfC8qv5Ml/m796tI3SEjpgzJ7l/cv/k/rt27RiyY8iOIc3Nrueha8pNzU3NTU1JaS5tLm0uHTdOsiVbskOh2EUVhw93vQ/xRUB8xmw32832r7/Wm/VmvXnChHA0HA1Hv/3W9S50D1uPbj269ejJkzJP5sm89eszijOKM4obGpIkSZKkvj72XvxhKb/gKSyf0SN6RI+sWROJRqIRwoF2qg/Vh+pDjY2xo82bXe9BfBEQn9FROkpHHTzoegcSzDpZJ+u++ML1DMQXAQHQbma5WW6WG+N6B+KLgAAArBAQAIAVAgIAsEJAAABWCIjPtOa35rfmX3qp6x1ILDpdp+v0Pn1c70B8ERCf0Tqt07qcHNc7kEgCAZkhM2TG2LGulyC+CIgvTZzoBb2gF7z3XtdL0J2peku9pd7Sp58WFRW97jrXixBfXMrEr1RUtLra2+Bt8DbcdZfkSZ7kbdkiq2SVrDpxwvU8dFFTZIpMSU2VCqmQivHjpVqqpdrzXM+CGwTE78qlXMrz8mIHbbfAeYQkJCHXI9BV8BQWAMAKAQEAWCEgAAArBAQAYIWAAACsEBAAgBUCAgCwQkAAAFYICADACgEBAFghIAAAK1wLy6/my3yZv3u3jtAROmLOnOT+yf2T++/atWPIjiE7hjQ3u56Hrik3NTc1NzUlpbm0ubS5dNw4yZZsyQ6FtEzLtGz4cNf7EF8ExGfMdrPdbP/6a71Zb9abJ0wIR8PRcPTbb13vQvew9ejWo1uPnjwp82SezFu/PqM4ozijuKEhSZIkSerrY+/Vu7frnYgPnsLyGT2iR/TImjWRaCQaIRxop/pQfag+1NgYO9q82fUexBcB8RkdpaN01MGDrncgwayTdbLuiy9cz0B8ERAA7WaWm+VmuTGudyC+CAgAwAoBAQBYISAAACsEBABghYAAAKwQEACAFQICALDCpUzQKbxt3jZv229+I43SKI1XXeV6j2+FJCShvXsjkUgkEvnrX13PQWIhIOhQ48w4M8706nWq+lT1qeqVK2WZLJNlAR7pOtJ27TO5RC6RS9LSXO9BYiEg6FCnMk9lnspsCwbhcC120cxkvs/RKfgGBwBYISAAACsEBABghYAAAKwQEACAFQICALBCQAAAVggIAMAKAQEAWCEg6FAjRowYMWLEDz+YSlNpKvfvd73H9ybKRJm4Z4/rGUhMXOIAHaqmpqampubcOamRGqm59lrXe3wvIhGJuB6BRMUjEACAFQICALBCQAAAVggIAMAKAQEAWCEgAAArBAQAYIWAAACsEBCfac1vzW/Nv/RS1zuQWHS6Ttfpffq43oH4IiA+o3Vap3U5Oa53IJEEAjJDZsiMsWNdL0F8ERBfmjjRC3pBL3jvva6XoDtT9ZZ6S72lTz8tKip63XWuFyG+uBaWX6moaHW1t8Hb4G246y7JkzzJ27JFVskqWXXihOt56KKmyBSZkpoqFVIhFePHS7VUS7XnuZ4FNwiI35VLuZTn5cUO2m6B8whJSEKuR6Cr4CksAIAVAgIAsEJAAABWCAgAwAoBAQBYISAAACsEBABghYAAAKwQEACAFQICALBCQAAAVggIfM1UmSpT9d13ZolZYpY8/bQYMWJGj+7xdo+3e7zdu3fbrV6v1+v1o0bJbJkts596yuwwO8yOo0dd7wdc4mKK8CUzz8wz87Zta9nesr1l+5137pm7Z+6euUeO/PwOQ2SIDPnvj9q7V1bKSlm5d6/3qveq9+rSpTJBJsiEtWtlk2ySTbfc4vq8gHjiEQh8xXxsPjYfNzToAl2gC3796/8RjgsUiUaikei33ybNSpqVNGvy5Ngjl337XJ8fEE8EBL5i6k29qX/kkVgAjh9v7+fbdc2ua3Zdc+KEudXcam595BHX5wfEEwGBP5RIiZR89VVdTl1OXc7f/tbRnz66MLowunDDBrPNbDPb/vlP16cLxAMBgT80SIM07NoVOzCmc+7EGDkmx+RYNOr6dIF4ICDwh2RJluTvv+/su9Hb9Da97fRp16cLxAMBgT+sk3WybujQzr4bs8lsMps6/36AroCAwEfGjMk6lHUo61Bqakd/5oyPMj7K+GjAAOkrfaXvmDGuzxSIBwICH+nRo/WO1jta7ygv7+jPHLgycGXgyqee0izN0qxkXl8FXyAg8JcH5AF54NFHM4szizOL8/Pb++kyZ2bOzJw5fbq+oC/oCw8/7Pr0gHgiIPCXZbJMlgUCrTNbZ7bOXLUqGA1Gg9GKitGLRi8avahPn//vw3NTc1NzU1NSPM/zPK+y0uSZPJP3l79IRCISUXV9ekA88VAbvqSzdbbOTkqKHT35ZPLO5J3JO4uLg/2C/YL9/v53nabTdNqBAz9/wH7ZL/tHjmxuaW5pbvnVr7RIi7QoJSUWJNdnA7hBQAAR0TE6Rsf07Rs7ys8/XxhUVHiYAcTwFBYAwAoBAQBYISAAACsEBABghYAAAKwQEACAFQICALBCQID/dL/cL/e3tsYOmprabs0Ss8QsOXfO9TygKyEg8KdsyZbsf/0rdvDcc609W3u29szKumzWZbMum9WzZyQSiUQigwa13Y5cNHLRyEU9e8be3/PMWDPWjF2wwFSZKlP13XeuTwdwgVeiw1fMWrPWrF2xIikpKSkpqaSkNr02vTb96NGf3+E8LzWvqampqalpewQSjcaufRWN3rj4xsU3Ln7++eSC5ILkgj/+UWqkRmpmzXJ9nkA8EBD4grneXG+u/93vokOjQ6NDFy7sqM+7W3frbm17JHPffZmDMgdlDvrHP0yaSTNpL77o+ryBzsRTWPCBJUuiK6Mroys7LhznEz4cPhw+/NJLUiiFUlhV5frMgc5EQJCYSqRESr76Knbw2GPxvvvm9Ob05vTHHzdbzBaz5T+u6gskEAKChGSWmWVmWWVl7Ifg338f7/v/bNpn0z6bdvas5Equ5P7hD66/HkBnICBILD/9Gm7SlUlXJl25Zo3rOUnvJL2T9M6aNabW1JralhbXe4CORECQUMwwM8wM+/zz2pramtqar792vaftt7z0bX1b396/3/UeoCMRECQULddyLW/72UfXEfvTt11vF9AeBASJpVIqpbLtT9V2HTpJJ+mkZH5tHgmFgCCxrJf1sn7QINcz/pupNJWmcvBg1zuAjkRAkFjOyBk5M3JkdmN2Y3ZjerrrOTfl3JRzU86gQfqmvqlvXnON6z1ARyIgSCwRiUhEtaWopailaOpU13P0WX1Wny0oaNvleg/QkQgIEpIWaqEWlpfnpuam5qampMT7/m9YfcPqG1ZfdpmWaZmWlZW5/noAnYGAIDG9LC/LywMHntl6ZuuZrfG/pEivg70O9jrYdr9paa6/HEBnICBIbIVSKIV33+15nud5zz4be2NnPZWk6i31lnpLn3lG39A39I3f/tb16QOdiYDAR556ygt6QS+4alUsKO1/ZND2Q/Lg4eDh4OHVq6VaqqV6/nzXZwrEAwGBv6ioaEGBZEmWZDU2BhuCDcGGUCgWlF/+8nw/M4n9VlffvsGHgw8HHx4/3jvkHfIOvfJKYHRgdGD0/v16u96ut7v/oT0QT7ywCf5UK7VS26ePztAZOqOoKPbGoqIzw84MOzNMxCvwCryC06fb3v3c9HPTz03v0+fnvzc1RabIFNcnAbhFQID/zU+BcT0D6Mp4CgsAYIWAAACsEBAAgBUCAgCwQkAAAFYICADACgEBAFghIAAAKwQEAGCFgAAArBAQAIAVAgIAsEJAAABWCAgAwAoBAQBYISAAACsEBABghYAAAKwQEACAFQICALBCQAAAVggIAMAKAQEAWCEgAAArBAQAYIWAAACsEJALZGaZWWaWMa53AOg8fJ9fHAJygXSSTtJJ333negeATpQv+ZL/zTeuZ3QXBOQCtW5s3di6MRx2vQNA5wkUB4oDxXyfXyh1PaB7CQSC7wffD76/Z48+qU/qk7/4hetFADrKJ59EIpFIJJKRETtubXW9qKvjEchFaW01n5pPzacPPhg7/vFH14sAtEOmZErm2bN6QA/ogdmzY28kHBeKgFykusfqHqt77KOPYkfTpslD8pA8dOqU610ALpxZbBabxSdParqma3pBQfhY+Fj42Natrnd1N0muB3RXTU1NTU1N+/YNTBuYNjBtxQodpaN0lKq8Lq/L61dcob20l/ZKSZGwhCWcnOx6L+BLs2W2zP7hB6mVWqn9/PPYG//8Z/Oh+dB8WFgYXRFdEV3Bzzxs/RuoXQMjLRSJxAAAACV0RVh0ZGF0ZTpjcmVhdGUAMjAyMi0xMS0wMVQwOToxNTo1NCswODowMOcImQkAAAAldEVYdGRhdGU6bW9kaWZ5ADIwMjItMTEtMDFUMDk6MTU6NTQrMDg6MDCWVSG1AAAAU3RFWHRzdmc6YmFzZS11cmkAZmlsZTovLy9ob21lL2FkbWluL2ljb24tZm9udC90bXAvaWNvbl9zZm9naG81Z29kay9zZXJ2ZXItaG9zdC1mdWxsLnN2ZwC0q9QAAAAASUVORK5CYII=;" vertex="1" parent="1">
          <mxGeometry x="250" y="275" width="120" height="120" as="geometry" />
        </mxCell>
        <mxCell id="yQNdhb8caFljwRBjTB0E-126" value="" style="shape=image;imageAspect=0;aspect=fixed;verticalLabelPosition=bottom;verticalAlign=top;image=data:image/png,iVBORw0KGgoAAAANSUhEUgAAAMgAAADIEAYAAAD9yHLdAAAABGdBTUEAALGPC/xhBQAAAAFzUkdCAK7OHOkAAAAgY0hSTQAAeiYAAICEAAD6AAAAgOgAAHUwAADqYAAAOpgAABdwnLpRPAAAAAZiS0dEAAAAAAAA+UO7fwAAAAlwSFlzAAAASAAAAEgARslrPgAAER9JREFUeNrt3W1sVGXex/H/f1oEwQLagCkUedL4sAHrnLZIG0uWsGBWlJhSwlJ84Soqaou2Yi2rGO1C3cWnDkbAko1L2BiooCirLguSKM+dmRZEl1JDlEVqUGR5soil174YazZ739w3XG3naud8P28mp2k7v9NYvs60c6qCuPA8z/O8kSOlREqkZMoUM8lMMpNuvVV6S2/pfdVVWqIlWpKeLrVSK7V9+rjeC3RJWZIlWadPmxfNi+bFQ4f0Fr1Fb/nyS23SJm364AN5TV6T19atC08OTw5PPnDA9dxEp64HJKrMisyKzIprrzVvmbfMWxUVkimZkjl1qkQkIhHl6w50IlNqSk3pxo2B9wLvBd579NHwyvDK8Mq9e13vSjT8Q9bBYo80SktNrak1tc89p1mapVnJya53Af71449mgBlgBjz+ePSD6AfRD15+2fWiRBFwPSAxBALePm+ft+9Pf4odP/884QC6ih499Bv9Rr956aXggeCB4IHly2NvD/DvXzvxBWynYGmwNFhaWSmFUiiFd9/teg+A89MCLdCCe+7xXvFe8V75/e9d7+nueArLkhf0gl6woEBUVHT1atd7AFw8zdVczZ06NRwKh8KhNWtc7+lueARykcaZcWac6dVLciVXchctcr0HgD2TY3JMzvPPXx26OnR1qGdP13u6GwJykU5uOrnp5Kb775dtsk22DR3qeg+Adlgki2TRsGH90vql9Uu77z7Xc7obAnKR9Iye0TMzZ7reAaADVUqlVBYWup7R3RCQC3TjAzc+cOMDgwfLO/KOvON5rvcA6ECZkimZ2dnZjdmN2Y3p6a7ndBcE5AL1GNxjcI/BnscLAYEE9NP3dUtNS01LTUaG6zndBQG5UGtlraxNS3M9A0AnelPelDcHDXI9o7sgIBfIPGQeMg8NGOB6B4DOow/qg/rgwIGud3QXBORC3SP3yD28shxIaHyfXxQCAgCwQkAAAFYICADACgEBAFghIAAAKwQEAGCFgAAArBAQAIAVAgIAsEJAAABWCAgAwArXfPGrJ+QJeaKx0dSZOlNXVNRyecvlLZdv2bJn7p65e+aePu16Hromz/M8z+vdW5/RZ/SZnBxz1pw1Z6uqZIEskAU33OB6H+KLgPiM2Wl2mp0nTmi2Zmv2hAnRaDQajR486HoXuodIJBKJRL7/XibLZJm8cWMsKBMmmCpTZar27tU5OkfnXHGF652ID57C8hn9RD/RT95/PxKNRCOEA+0UC0pTUywc777reg/ii4D4zXAZLsMJBzpYWMIS/uIL1zMQXwTEZ0yFqTAVxrjeAaD7IyAAACsEBABghYAAAKwQEACAFQLiNymSIim9e7uegQRzXI7Lcf678hsC4jP6rr6r7+bk/HSkrvcgMZhNZpPZlJvregfii4D4UjAYewVxWZnrJejeghuDG4Mb58zRhbpQF7b9jwn8gkuZ+FplZfB48Hjw+J13ypfypXy5ebPWaZ3WHTvmehm6qJCEJNS/v5ln5pl5eXlapmVaRjj8ioD4nI7X8To+Ozt21HYL/N9ijzhcr4BrPIUFALBCQAAAVggIAMAKAQEAWCEgAAArBAQAYIWAAACsEBAAgBUCAgCwQkAAAFYICADACtfC8qv5Ml/m796tI3SEjpgzJ7l/cv/k/rt27RiyY8iOIc3Nrueha8pNzU3NTU1JaS5tLm0uHTdOsiVbskOh2EUVhw93vQ/xRUB8xmw32832r7/Wm/VmvXnChHA0HA1Hv/3W9S50D1uPbj269ejJkzJP5sm89eszijOKM4obGpIkSZKkvj72XvxhKb/gKSyf0SN6RI+sWROJRqIRwoF2qg/Vh+pDjY2xo82bXe9BfBEQn9FROkpHHTzoegcSzDpZJ+u++ML1DMQXAQHQbma5WW6WG+N6B+KLgAAArBAQAIAVAgIAsEJAAABWCIjPtOa35rfmX3qp6x1ILDpdp+v0Pn1c70B8ERCf0Tqt07qcHNc7kEgCAZkhM2TG2LGulyC+CIgvTZzoBb2gF7z3XtdL0J2peku9pd7Sp58WFRW97jrXixBfXMrEr1RUtLra2+Bt8DbcdZfkSZ7kbdkiq2SVrDpxwvU8dFFTZIpMSU2VCqmQivHjpVqqpdrzXM+CGwTE78qlXMrz8mIHbbfAeYQkJCHXI9BV8BQWAMAKAQEAWCEgAAArBAQAYIWAAACsEBAAgBUCAgCwQkAAAFYICADACgEBAFghIAAAK1wLy6/my3yZv3u3jtAROmLOnOT+yf2T++/atWPIjiE7hjQ3u56Hrik3NTc1NzUlpbm0ubS5dNw4yZZsyQ6FtEzLtGz4cNf7EF8ExGfMdrPdbP/6a71Zb9abJ0wIR8PRcPTbb13vQvew9ejWo1uPnjwp82SezFu/PqM4ozijuKEhSZIkSerrY+/Vu7frnYgPnsLyGT2iR/TImjWRaCQaIRxop/pQfag+1NgYO9q82fUexBcB8RkdpaN01MGDrncgwayTdbLuiy9cz0B8ERAA7WaWm+VmuTGudyC+CAgAwAoBAQBYISAAACsEBABghYAAAKwQEACAFQICALDCpUzQKbxt3jZv229+I43SKI1XXeV6j2+FJCShvXsjkUgkEvnrX13PQWIhIOhQ48w4M8706nWq+lT1qeqVK2WZLJNlAR7pOtJ27TO5RC6RS9LSXO9BYiEg6FCnMk9lnspsCwbhcC120cxkvs/RKfgGBwBYISAAACsEBABghYAAAKwQEACAFQICALBCQAAAVggIAMAKAQEAWCEg6FAjRowYMWLEDz+YSlNpKvfvd73H9ybKRJm4Z4/rGUhMXOIAHaqmpqampubcOamRGqm59lrXe3wvIhGJuB6BRMUjEACAFQICALBCQAAAVggIAMAKAQEAWCEgAAArBAQAYIWAAACsEBCfac1vzW/Nv/RS1zuQWHS6Ttfpffq43oH4IiA+o3Vap3U5Oa53IJEEAjJDZsiMsWNdL0F8ERBfmjjRC3pBL3jvva6XoDtT9ZZ6S72lTz8tKip63XWuFyG+uBaWX6moaHW1t8Hb4G246y7JkzzJ27JFVskqWXXihOt56KKmyBSZkpoqFVIhFePHS7VUS7XnuZ4FNwiI35VLuZTn5cUO2m6B8whJSEKuR6Cr4CksAIAVAgIAsEJAAABWCAgAwAoBAQBYISAAACsEBABghYAAAKwQEACAFQICALBCQAAAVggIfM1UmSpT9d13ZolZYpY8/bQYMWJGj+7xdo+3e7zdu3fbrV6v1+v1o0bJbJkts596yuwwO8yOo0dd7wdc4mKK8CUzz8wz87Zta9nesr1l+5137pm7Z+6euUeO/PwOQ2SIDPnvj9q7V1bKSlm5d6/3qveq9+rSpTJBJsiEtWtlk2ySTbfc4vq8gHjiEQh8xXxsPjYfNzToAl2gC3796/8RjgsUiUaikei33ybNSpqVNGvy5Ngjl337XJ8fEE8EBL5i6k29qX/kkVgAjh9v7+fbdc2ua3Zdc+KEudXcam595BHX5wfEEwGBP5RIiZR89VVdTl1OXc7f/tbRnz66MLowunDDBrPNbDPb/vlP16cLxAMBgT80SIM07NoVOzCmc+7EGDkmx+RYNOr6dIF4ICDwh2RJluTvv+/su9Hb9Da97fRp16cLxAMBgT+sk3WybujQzr4bs8lsMps6/36AroCAwEfGjMk6lHUo61Bqakd/5oyPMj7K+GjAAOkrfaXvmDGuzxSIBwICH+nRo/WO1jta7ygv7+jPHLgycGXgyqee0izN0qxkXl8FXyAg8JcH5AF54NFHM4szizOL8/Pb++kyZ2bOzJw5fbq+oC/oCw8/7Pr0gHgiIPCXZbJMlgUCrTNbZ7bOXLUqGA1Gg9GKitGLRi8avahPn//vw3NTc1NzU1NSPM/zPK+y0uSZPJP3l79IRCISUXV9ekA88VAbvqSzdbbOTkqKHT35ZPLO5J3JO4uLg/2C/YL9/v53nabTdNqBAz9/wH7ZL/tHjmxuaW5pbvnVr7RIi7QoJSUWJNdnA7hBQAAR0TE6Rsf07Rs7ys8/XxhUVHiYAcTwFBYAwAoBAQBYISAAACsEBABghYAAAKwQEACAFQICALBCQID/dL/cL/e3tsYOmprabs0Ss8QsOXfO9TygKyEg8KdsyZbsf/0rdvDcc609W3u29szKumzWZbMum9WzZyQSiUQigwa13Y5cNHLRyEU9e8be3/PMWDPWjF2wwFSZKlP13XeuTwdwgVeiw1fMWrPWrF2xIikpKSkpqaSkNr02vTb96NGf3+E8LzWvqampqalpewQSjcaufRWN3rj4xsU3Ln7++eSC5ILkgj/+UWqkRmpmzXJ9nkA8EBD4grneXG+u/93vokOjQ6NDFy7sqM+7W3frbm17JHPffZmDMgdlDvrHP0yaSTNpL77o+ryBzsRTWPCBJUuiK6Mroys7LhznEz4cPhw+/NJLUiiFUlhV5frMgc5EQJCYSqRESr76Knbw2GPxvvvm9Ob05vTHHzdbzBaz5T+u6gskEAKChGSWmWVmWWVl7Ifg338f7/v/bNpn0z6bdvas5Equ5P7hD66/HkBnICBILD/9Gm7SlUlXJl25Zo3rOUnvJL2T9M6aNabW1JralhbXe4CORECQUMwwM8wM+/zz2pramtqar792vaftt7z0bX1b396/3/UeoCMRECQULddyLW/72UfXEfvTt11vF9AeBASJpVIqpbLtT9V2HTpJJ+mkZH5tHgmFgCCxrJf1sn7QINcz/pupNJWmcvBg1zuAjkRAkFjOyBk5M3JkdmN2Y3ZjerrrOTfl3JRzU86gQfqmvqlvXnON6z1ARyIgSCwRiUhEtaWopailaOpU13P0WX1Wny0oaNvleg/QkQgIEpIWaqEWlpfnpuam5qampMT7/m9YfcPqG1ZfdpmWaZmWlZW5/noAnYGAIDG9LC/LywMHntl6ZuuZrfG/pEivg70O9jrYdr9paa6/HEBnICBIbIVSKIV33+15nud5zz4be2NnPZWk6i31lnpLn3lG39A39I3f/tb16QOdiYDAR556ygt6QS+4alUsKO1/ZND2Q/Lg4eDh4OHVq6VaqqV6/nzXZwrEAwGBv6ioaEGBZEmWZDU2BhuCDcGGUCgWlF/+8nw/M4n9VlffvsGHgw8HHx4/3jvkHfIOvfJKYHRgdGD0/v16u96ut7v/oT0QT7ywCf5UK7VS26ePztAZOqOoKPbGoqIzw84MOzNMxCvwCryC06fb3v3c9HPTz03v0+fnvzc1RabIFNcnAbhFQID/zU+BcT0D6Mp4CgsAYIWAAACsEBAAgBUCAgCwQkAAAFYICADACgEBAFghIAAAKwQEAGCFgAAArBAQAIAVAgIAsEJAAABWCAgAwAoBAQBYISAAACsEBABghYAAAKwQEACAFQICALBCQAAAVggIAMAKAQEAWCEgAAArBAQAYIWAAACsEJALZGaZWWaWMa53AOg8fJ9fHAJygXSSTtJJ333negeATpQv+ZL/zTeuZ3QXBOQCtW5s3di6MRx2vQNA5wkUB4oDxXyfXyh1PaB7CQSC7wffD76/Z48+qU/qk7/4hetFADrKJ59EIpFIJJKRETtubXW9qKvjEchFaW01n5pPzacPPhg7/vFH14sAtEOmZErm2bN6QA/ogdmzY28kHBeKgFykusfqHqt77KOPYkfTpslD8pA8dOqU610ALpxZbBabxSdParqma3pBQfhY+Fj42Natrnd1N0muB3RXTU1NTU1N+/YNTBuYNjBtxQodpaN0lKq8Lq/L61dcob20l/ZKSZGwhCWcnOx6L+BLs2W2zP7hB6mVWqn9/PPYG//8Z/Oh+dB8WFgYXRFdEV3Bzzxs/RuoXQMjLRSJxAAAACV0RVh0ZGF0ZTpjcmVhdGUAMjAyMi0xMS0wMVQwOToxNTo1NCswODowMOcImQkAAAAldEVYdGRhdGU6bW9kaWZ5ADIwMjItMTEtMDFUMDk6MTU6NTQrMDg6MDCWVSG1AAAAU3RFWHRzdmc6YmFzZS11cmkAZmlsZTovLy9ob21lL2FkbWluL2ljb24tZm9udC90bXAvaWNvbl9zZm9naG81Z29kay9zZXJ2ZXItaG9zdC1mdWxsLnN2ZwC0q9QAAAAASUVORK5CYII=;" vertex="1" parent="1">
          <mxGeometry x="250" y="471.25" width="120" height="120" as="geometry" />
        </mxCell>
        <mxCell id="yQNdhb8caFljwRBjTB0E-127" value="" style="endArrow=classic;html=1;rounded=0;fontFamily=Times New Roman;fontSize=6;" edge="1" parent="1">
          <mxGeometry width="50" height="50" relative="1" as="geometry">
            <mxPoint x="362.5" y="520" as="sourcePoint" />
            <mxPoint x="482.5" y="520" as="targetPoint" />
            <Array as="points" />
          </mxGeometry>
        </mxCell>
        <mxCell id="yQNdhb8caFljwRBjTB0E-128" value="ESB&lt;br&gt;11.31.254.94:&lt;br&gt;10000、8099" style="whiteSpace=wrap;html=1;verticalAlign=top;" vertex="1" parent="1">
          <mxGeometry x="240" y="592.75" width="130" height="57.25" as="geometry" />
        </mxCell>
        <mxCell id="yQNdhb8caFljwRBjTB0E-130" value="&lt;span style=&quot;font-family: &amp;quot;Times New Roman&amp;quot;; font-size: 6px;&quot;&gt;现金管理系统&lt;/span&gt;&lt;br style=&quot;font-family: &amp;quot;Times New Roman&amp;quot;; font-size: 6px;&quot;&gt;&lt;span style=&quot;font-family: &amp;quot;Times New Roman&amp;quot;; font-size: 6px;&quot;&gt;11.31.254.169：&lt;br&gt;10013 、64802&lt;/span&gt;" style="whiteSpace=wrap;html=1;verticalAlign=top;" vertex="1" parent="1">
          <mxGeometry x="482.5" y="570" width="120" height="60" as="geometry" />
        </mxCell>
        <mxCell id="yQNdhb8caFljwRBjTB0E-132" value="&lt;span style=&quot;font-family: &amp;quot;Times New Roman&amp;quot;; font-size: 6px;&quot;&gt;现金管理系统数据库&lt;/span&gt;&lt;br style=&quot;font-family: &amp;quot;Times New Roman&amp;quot;; font-size: 6px;&quot;&gt;&lt;span style=&quot;font-family: &amp;quot;Times New Roman&amp;quot;; font-size: 6px;&quot;&gt;11.31.254.169:1521&lt;/span&gt;" style="whiteSpace=wrap;html=1;verticalAlign=top;" vertex="1" parent="1">
          <mxGeometry x="482.5" y="820" width="120" height="60" as="geometry" />
        </mxCell>
        <mxCell id="yQNdhb8caFljwRBjTB0E-139" value="" style="shape=image;imageAspect=0;aspect=fixed;verticalLabelPosition=bottom;verticalAlign=top;fontFamily=Times New Roman;fontSize=6;image=data:image/png,iVBORw0KGgoAAAANSUhEUgAAAMgAAADIEAYAAAD9yHLdAAAABGdBTUEAALGPC/xhBQAAAAFzUkdCAK7OHOkAAAAgY0hSTQAAeiYAAICEAAD6AAAAgOgAAHUwAADqYAAAOpgAABdwnLpRPAAAAAZiS0dEAAAAAAAA+UO7fwAAAAlwSFlzAAAASAAAAEgARslrPgAADRVJREFUeNrt3X9s1PUdx/H35/qD3WBT1o0A1qmACzYrtfe9XsAfIKSCGpFl0GXLFiJhGWX8ikbLH5qoJBiw/AgltTaRoBIxVgxCYZ0CJRRSiNdrFSL8Yegf6h9IwiApbGDwPvvjPBJPEfq+u37ue/d8/GPuFH3dGfrkvt/2+xUBAEDBuB7gV5MaJzVOahw1atjHwz4e9nEg4HoPgMG7ErkSuRKJx48/e/zZ48+ePet6j98Uux7gVyWnS06XnO7vj/fH++P9w4e73gNg8ErKSspKyi5dSjwaMcL1Hr/hT84AABUCAgBQISAAABUCAgBQISAAABUCAgBQISAAABUCAgBQISAAABUCAgBQISAAABUCAgBQISAAABUCAgBQISAAABUCAgBQISAAABXuSJiX/vtfqZEaqbHW9RJARESiEpUod+7MNwQkzwTGBcYFxo0fH30t+lr0tTNnXO9BYatoq2iraBsxIhgNRoPRgQHXe5BZHMICAKgQEACACgEBAKgQEACACgEBAKgQEACACgEBAKjwcyBQCe8J7wnvqa215+w5e87zXO9JinfHu+PdXV19rX2tfa1Hj7rek1S9qHpR9aIpUwL3Be4L3Dd1qus9SabMlJmyWKzn8Z7Hex7fv9/1HvgLAYGKfcG+YF+YPTvxaPly13uSzD3mHnPPc88lHuVOQMwlc8lcmj5dmqRJmlavdr0nyYoVK01NiUcEBIPDISwAgAoBAQCoEBAAgAoBAQCoEBAAgAoBAQCoEBAAgAoBAQCoEBAAgAoBAQCoEBAAgArXwoKKbbEttuXcOamUSqns73e9J8k8YB4wD5w/73rHD3adMqfMqfPn7RF7xB7JnfdLTsgJOXHunEQkIhHXY+A3BAQqvZHeSG9k1arEo+RfcT2xWCwWi7W0SFCCEmxpcb0HyAQOYQEAVAgIAECFgAAAVAgIAEAl50+ieyEv5IVy545311ixYktKXM/4wax2227bFy5MvG8DA673oLDZ0Xa0HV1a6nrH9Qcmfh/n6teZWG+sN9abvGNk7jGuB9yI53me51nregcADLXEd++ZnP06zSEsAIAKAQEAqBAQAIAKAQEAqBAQAIAKAQEAqBAQAIAKAQEAqBAQAIAKAQEAqBAQAIAKAQEAqBAQAIAKAQEAqBAQAIAKAQEAqBAQAIBKzt/SNlfZ+Xa+nb9tm5llZplZV6+63gNAz3baTtsZDJotZovZ8uc/u97jFwRE6fKYy2Muj/nnP09OPDnx5MSLF13vAaBXU1dTV1M3enRc4hIXAnKzOIQFAFAhIAAAFQICAFAhIAAAFQICAFAhIAAAFQICAFAhIAAAFQICAFAhIAAAFQICAFAhIAAAFQICAFAhIAAAFQICAFAhIAAAFQICAFAhIAAAFQICAFAhIAAAFQICAFAhIAAAFQICAFAhIAAAFQICFBCvw+vwOhYurKysrKysHDnS9R74GwEBCoD3tve29/bTT8vz8rw8//rrpS+VvlT60pEjVfVV9VX1t93meh/8iYAAeSy0P7Q/tH/FCtkgG2TD+vXX/sZqWS2rKyqK5hXNK5p3+HB1d3V3dfeECa73wl8ICJCHvJAX8kJ//7tpM22mbePG6/1zZqVZaVbedZcJm7AJHz6c+HWVla73wx8ICJBHQhNCE0ITFiyQeqmX+tZWiUlMYsbc6NeZKWaKmTJ6tKyQFbLi0KHqRdWLqhdNmeL69SC3ERAgD3idXqfXOX++aTANpuH116VVWqU1MPjf303SJE0jRwZMwATMvn3eBe+Cd+Hhh12/PuQmAgL4mNfn9Xl98+bZh+xD9qEtW9ThSBWVqESHD5cdskN2tLdXD1QPVA/88Y+uXy9yCwEBfCj5Bd1W2Spb9c47psbUmJri4oz/h1qkRVqGDTOnzClzqq3t2iEyQAgI4CuJ75Z65JHAu4F3A+9u3561cKQwi81is7ioyMwwM8yMLVvCY8Njw2Ofesr1+wG3CAjgA4nvjpo50wRMwAR27kx+MhjyId+dlLdj7Bg7ZsOG0PHQ8dDxNWtcvz9wg4AAOSy8J7wnvKe21kZt1EY/+MAsMUvMkp/9zPWuJLPALDALVq4MvRh6MfTi5s2JZzNwDga+wP9oIAeFR4ZHhkfef789a8/aszt3moiJmEgw6HrX9Zh2027aly71TngnvBNvvjnNTrPTbPYPrcEtAgLkkOTPX8T3xvfG93Z0SLM0S/OIEa533bQn5Ul58m9/G9g6sHVg6/vvJ0KSO5+YkFkEBMgB4bvDd4fvjkQCPYGeQE9Hh1lmlpllv/iF611aptk0m+Ynnrj4ycVPLn7yxhuu9yA7CAjgUHVJdUl1SVVVfGt8a3xrR0fi2Vtucb0rbRGJSOTChfiS+JL4knXrXM9BdnCMEnDg+9ec2r8/cQmRX/3K9a60JcPxafzT+KcPP9zX3dfd193T43oWsoNPIMAQqvmq5quar373O3vMHrPHPvpIjBgxv/61611pIxwFiYAAQyB5ufT4mvia+JqDB69dvNDvCEdB4xAWkEWJQ1W//a18IV/IF/v2yVE5KkfHjnW9K22EA8InEGRI5PPI55HPf/nL8PLw8vDyuXNd73HtWjgapEEaDh2SRmmUxjvvdL0rXXaT3WQ3/ec/5jPzmflsxgzCUdgICNKSDMe3rd+2ftv64Yf2sr1sL7/3XmhqaGpo6pIlrvcNte/fIrazM1/CkfzEYRtsg22YNaunq6erp6uvz/UsuEVAoJIaDjkoB+Xg5MnJayWZiWaimbh5c6GEZFLjpMZJjaNGFc8snlk8M3lyfPx417vSxqEq/ATOgWBQrhuOVMmQeMYz3ubNIQlJSER6u3q7eruam12/jky5t+vernu7fvObQCgQCoQOHJBpMk2mVVS43pU2woGbQEBwU246HKnyNCRVtspW2VtvLQoXhYvC//534tnf/971rrQRDgwCh7Dwk9ThSJUnh7YSJ8dvuaVod9Huot0ffZR4NhRyvStthAMKBAQ/KmPhSOXTkCTOcQwfLrVSK7Xt7WaVWWVW1dS43pU2woE0EBB8T9bCkconIfE8z/O8n/+8+I7iO4rv2LtXDsgBOfDgg653pY1wIAMICERkCMORKiUkiavSLl3q+v2Y/OXkLyd/mbz/xp49Zq1Za9ZOm+Z6V9oIBzKIgBQ4Z+FIlbxV6nQ73U5vanIVkoq2iraKttLSb4Z9M+ybYTt2JJ6dPn3I349MIxzIAgJSoHImHKkchSQZjmB5sDxYvmOHedQ8ah597DHXb0faCAeyiIAUmJwNR6ohCkldXV1dXV1RUfBk8GTw5LZtskyWybLZs12//LQRDgwBAlIgfBOOVFkKSTIcpzee3nh647Zt0i7t0v6nP7l+uWkjHBhCBKQgGHO17GrZ1bJdu3wTjlQpIfF2ebu8XfX1g/3XJMPRX9lf2V/55ptmjplj5vzlL65fXrq4yCFcICAFwVpZJ+tk3Zo1ttk22+bLl10vUvsuJLJX9sreV18d3CcSY/rX9q/tX/vqq7JLdsmuv/7V9ctJGxc5hEMEpED0vtz7cu/LH34ou2W37P7DH/IlJDd3aMuYxM9zNDdLndRJ3T/+4Xp+2jhUhRxAQApMoYXE2+Rt8ja98kri0eLFruemjXAghxCQApUMiSk35aZ87lxZLItl8ZUrrneppYQktD20PbR93z55S96St555xvW8dHGOA7mIgBS4WHmsPFb+r3/Zfttv++fMyZdPJGa9WW/W19a6npM2znEghxEQiEgeHtryOw5VwQcICL6HkDhGOOAjBAQ/ipAMMcIBHyIg+EmEJMsIB3yMgOCmEJIMIxzIAwQEg0JI0kQ4kEcICFQIySARDuQhAoK0EJIbIBzIYwQEGUFIUhAOFAACgowq+JAQDhQQAoKsKLiQEA4UIAKCrMr7kBAOFDACgiGRdyEhHAABwdDyfUgIB3ANAYETvgsJ4QB+gIDAqZwPCeEArouAICfkXEgIB3BDBAQ5xXlICAdw0wgIctKQh4RwAINGQJDTsh4SwgGoERD4QsZDQjiAtBEQ+EraISEcQMYQEPjSoENCOICMIyDwtRuGhHAAWUNAkBd+EJKj9qg9euYM4QCyh4AgryRDUvp16delX48bRziA7CEgyEvHbj92+7Hb//c/1zuAfEZAAAAqBAQAoEJAAAAqBAQAoEJAAAAqBAQAoEJAAAAqBAQAoEJAAAAqBAQAoEJAAAAqBAQAoEJAAAAqBAQAoEJAAAAqBAQAoEJAAAAqBAQAoEJAAAAqBAQAoEJAAAAqxa4H+FWwM9gZ7Dxzxqv36r1612sApCMejUfjUWNc7/AbAqIVlahEhw93PQMAXOEQFgBAhYAAAFQICABAhYAAAFQICABAhYAAAFQICABAhYAAAFQICABAhYAAAFQICABAhYAAAFQICABAhYAAAFQICABAhYAAAFQICABAJefvSBgYFxgXGDdmjOsdADDkYhKTmOsRAABk2P8Baf4Vz3ZXZ/AAAAAldEVYdGRhdGU6Y3JlYXRlADIwMjItMTEtMDFUMTE6MTA6MTgrMDg6MDCFxwTYAAAAJXRFWHRkYXRlOm1vZGlmeQAyMDIyLTExLTAxVDExOjEwOjE4KzA4OjAw9Jq8ZAAAAFF0RVh0c3ZnOmJhc2UtdXJpAGZpbGU6Ly8vaG9tZS9hZG1pbi9pY29uLWZvbnQvdG1wL2ljb25fenUyZHpza2pocC9iYW5nZGluZ1VrZXlzdW8uc3ZnjOrMDQAAAABJRU5ErkJggg==;base64,iVBORw0KGgoAAAANSUhEUgAAAMgAAADIEAYAAAD9yHLdAAAABGdBTUEAALGPC/xhBQAAAAFzUkdCAK7OHOkAAAAgY0hSTQAAeiYAAICEAAD6AAAAgOgAAHUwAADqYAAAOpgAABdwnLpRPAAAAAZiS0dEAAAAAAAA+UO7fwAAAAlwSFlzAAAASAAAAEgARslrPgAAC1tJREFUeNrt3V9M1fUfx/H3m8MfdaQkYfKnmg7ddCPlHKAJGCT9TGIua9JatdT+SOXGRRdtplmmk7XsIl3lRXNFtuaflqnJys2hQ2pxDsROuWqYlekppwFFJnI4n9/Fid+FjWmf34HP4fh83B3OBa8dxufJl3M4iAAAAAAAAAAAAAAAAAAAAAAAAAAAAAAAAAAAAAAAAAAAAAAAAAAAAAAAAAAAAADA8NT1gNFSUFBQUFBw/fVpDWkNaQ0+n2yTbbItO9uETMiEpkyReqmX+uRk1zsBjAFbZItsCYc1W7M1++xZeVKelCdDof7V/av7VwcCwWAwGAx2d7ueOdISLiD5W/K35G9JS5s4Y+KMiTMee0zX6lpdu3SpaTNtpm3+fC3WYi0mFABiL3rOhMP6nD6nzx09KofkkBzas6d3We+y3mXbt3fVd9V31ff3u94ZKwkSEFVvvjffm798uU7SSTrpxRejH7/5ZtfLAEBKpVRKf/xRWqVVWl94IRAIBAKBxsbonca4nmfL43qArQpTYSrMuHGZkzMnZ07evl2/1W/123XrovdOmuR6HwD8zyk5JacyMqI3lizJqcupy6mbNSurJqsmq6ap6ddDvx769dDAgOuZ/9aYuwKZY+aYOSYjw9Pn6fP0HT6slVqplYWFrncBgJ329rA/7A/7q6o6tVM7tafH9aKrleR6wNWKXnEkJ3ve97zveX/3bsIBIDF4vZ7znvOe87t2DZ1zrhddrTETkL7evt6+3k2b9FV9VV+9807XewAgVvQuvUvv+s9/+or6ivqKNmxwveeqd7secCUli0sWlyyeNm0wZzBnMOebb8QvfvGnprreBQAxVyRFUnTpUvScmz07+mT7iROuZw0n7q9AwtXh6nD1pk2EA0DCGzrn7pF75J71613PuZK4DUhZZllmWeZ112mqpmrqvfe63gMAoyZHciRn6dKhc9D1nOHEbUD6q/ur+6trauRNeVPeTEtzvQcARs3f597FWy7ecvGWRYtczxlO3AYkMjsyOzK7stL1DgBwRkVF77jD9YzhxG1A5HF5XB6/6SbXMwDAma2yVbbm5bmeMZz4Dch4GS/js7NdzwAAZz6QD+SDnBzXM4YTtwHRNbpG18Tvk0cAMOIGZEAG4vetmeI2IACA+EZAAABWCAgAwAoBAQBYISAAACsEBABghYAAAKwQEACAFQICALBCQAAAVggIAMAKAQEAWCEgAAArBAQAYIWAAACsEBAAgBUCAgCwQkAAAFYICADACgEBAFghIAAAKwQEAGCFgAAArBAQAIAVAgIAsEJAAABWCAgAwAoBAQBYISAAACsEBABghYAAAKwQEACAFQICALBCQAAAVggIAMAKAQEAWCEgAAArBAQAYIWAAACsEBAAgBUCAgCwQkAAAFYICADACgEBAFghIAAAKwQEAGCFgAAArBAQAIAVAgIAsEJAAABWCAgAwAoBAQBYISAAACsEBABghYAAAKwQEACAFQICALBCQAAAVggIAMAKAQEAWCEgAAArBAQAYIWAAACsEBAAgBUCAgCwQkAAAFYICADACgEBAFghIAAAK+p6wHCKLhRdKLpw001yWA7L4ZQU13sAYNQtkAWyYGDAP8E/wT/h1CnXcwAAAAAAAAAAAAAAAAAAAAAAAAAAAAAAAABgBMTte2F5273t3vYNGzRDMzRjyhTXewBgtJke02N6zp5t97Z7273PP+96z+WSXQ8Yjr6tb+vbDzwgx+SYHMvPd70HAEablmmZlnV1RW/FX0B4O3cAgBUCAgCwQkAAAFYICADACgEBAFiJ24CYalNtqvv7Xe8AAFfi/RyM24BomqZp2i+/uN4BAK7oWl2ra0+fdr1jOHEbEBM0QRM8c8b1DgBw5j65T+6L33MwbgMiTdIkTe3trmcAgDMzZabMjN9zMG4DMtg02DTYtHev6x0A4Iqn0dPoaTxwwPWO4cRtQDq1Uzv1hx9Ms2k2zR0drvcAwKiplEqpDAS+2P/F/i/2nzzpes5w4jYgQ7RSK7XypZdc7wCA0RJZFVkVWbV+vesdVxL3AQkEAoFA4KOPZKNslI2ffeZ6DwCMrJaWjukd0zum79/vesmVxH1AooxRv/rVv2KFlEiJlPT0uF4EADFTL/VS3909WDZYNlj26KOu51ytuP1/IMPxeX1en3fhQrPNbDPbDh7Up/Qpfcrjcb0LAP61OqmTukhE7pa75e7FiwN5gbxA3sGDrmddrTF38IZCoVAodOJE7vjc8bnjv/5apspUmVpTI2fkjJxJTXW9DwCuqFiKpfjPPyPPRJ6JPPPgg+1Z7VntWfv2uZ71b425K5DL+Xw+n8/n9ZoW02Jadu/Wci3X8unTXe8CgH8wYsScOKHpmq7ptbX+o/6j/qNj91WmYz4gQ6K/2kpJMWLEyIoVOk/n6byNG+Vz+Vw+z8pyvQ/ANejv5zaiN15+Of2R9EfSH3nttSN6RI/oxYuu5/2/EiYgl4temUyYEGmONEeaFy3S7bpdty9Zou/oO/pOaal5w7xh3sjN1VW6SleNG+d6L4Cxx7xuXjevX7yoT+vT+vTp02aZWWaWtbZG7/3wQ23URm385JPoq0kvXHC9N9YSNiBXq/jn4p+Lf87MNF+aL82Xkya53oPYMPkm3+QXFMhD8pA85PAdDd6T9+S9JUu0S7u0Kxh0/bggNnSuztW5vb1teW15bXnnz7ve4+xxcD0AGAmFpYWlhaVFRUn9Sf1J/W1trnZE0iJpkbTi4o7WjtaOVr/f9eMCxNIY+TsQAEC8ISAAACsEBABghYAAAKwQEACAFQICALBCQAAAVggIAMAKAQEAWCEgAAArBAQAYIWAAACsEBAAgBUCAgCwQkAAAFYICADACgEBAFghIAAAKwQEAGCFgAAArBAQAIAVAgIAsEJAAABWCAgAwAoBAQBYISAAACsEBABghYAgISXvSt6VvOv3313vkM2yWTb39LieAYyEZNcDRodq4ebCzYWb589PSk9KT0qvqpKFslAWTp3qehlGRqQv0hfpS0kRn/jEZ4wEJCAB1VEb8Pfn9dR56jx1q1f7vvd97/s+HHb9uCDG9sge2RMOy07ZKTtPndJZOktnHTjg3+Hf4d/x1Veu54200fuGGmVz6+fWz62fMSNpQ9KGpA07dugCXaALSkpc7wKQwIZ+YPGLX/x79oQD4UA4sHJlp3ZqpybelWjCBWQoHJ4WT4unpbVVVFT0hhtc7wJwDVon62RdZ+df/X/1/9VfXn78/uP3H7+/r8/1rFjxuB4QW6q5A7kDuQMffxwNx8yZrhcBuIYdkSNyZOrU5MnJk5MnT5wYag41h5qbmlzPipWEeRLd+7D3Ye/D5eXRcNx2m+s9ADBEQxrS0MqVc8wcM8dkZLjeEysJExB9V9/Vd6uqXO8AgH/wi1/8qameBk+Dp6G83PWcWEmYgMgr8oq8kpXlegYADEcLtVALb7zR9Y5YSZyA7JSdsvP8edczAGBY02SaTDt3zvWMWEmYgJh5Zp6Z19zsegcAXM60mTbTFg5H/w6tpcX1nlhJsJfxJiX5fD6fz9fWFr3t9bpeBABixIh5661Ae6A90P7EE67nxErCXIFERSLRL9Ty5War2Wq2/vGH60UArl2mwTSYhu++uzRwaeDSwLPPut4TawkWEJFo4YNBU2EqTMX8+bJG1sia48dd7wJwrfn005RzKedSzt1+ezAYDAaD3d2uF8Vagv0K659qa2tra2s9npO3nrz15K01NWav2Wv2VlVFr1Sys13vAzB2mX1mn9kXDstv8pv89tNPSRVJFUkV+/f7u/3d/u5jx1zvAwAAAAAAAAAAAAAAAAAAAAAAAAAAAAAAAAAAAAAAAAAAAAAAAAAAAAAAAAAAAACX/gujjA+n2Kvd+wAAACV0RVh0ZGF0ZTpjcmVhdGUAMjAyMi0xMS0wMVQxMToxMDoxOCswODowMIXHBNgAAAAldEVYdGRhdGU6bW9kaWZ5ADIwMjItMTEtMDFUMTE6MTA6MTgrMDg6MDD0mrxkAAAASXRFWHRzdmc6YmFzZS11cmkAZmlsZTovLy9ob21lL2FkbWluL2ljb24tZm9udC90bXAvaWNvbl96dTJkenNramhwL2RpYW5uYW8uc3ZnXzvguwAAAABJRU5ErkJggg==;" vertex="1" parent="1">
          <mxGeometry x="30" y="652.75" width="30" height="30" as="geometry" />
        </mxCell>
        <mxCell id="yQNdhb8caFljwRBjTB0E-140" value="" style="shape=image;imageAspect=0;aspect=fixed;verticalLabelPosition=bottom;verticalAlign=top;image=data:image/png,iVBORw0KGgoAAAANSUhEUgAAAMgAAADIEAYAAAD9yHLdAAAABGdBTUEAALGPC/xhBQAAAAFzUkdCAK7OHOkAAAAgY0hSTQAAeiYAAICEAAD6AAAAgOgAAHUwAADqYAAAOpgAABdwnLpRPAAAAAZiS0dEAAAAAAAA+UO7fwAAAAlwSFlzAAAASAAAAEgARslrPgAAER9JREFUeNrt3W1sVGXex/H/f1oEwQLagCkUedL4sAHrnLZIG0uWsGBWlJhSwlJ84Soqaou2Yi2rGO1C3cWnDkbAko1L2BiooCirLguSKM+dmRZEl1JDlEVqUGR5soil174YazZ739w3XG3naud8P28mp2k7v9NYvs60c6qCuPA8z/O8kSOlREqkZMoUM8lMMpNuvVV6S2/pfdVVWqIlWpKeLrVSK7V9+rjeC3RJWZIlWadPmxfNi+bFQ4f0Fr1Fb/nyS23SJm364AN5TV6T19atC08OTw5PPnDA9dxEp64HJKrMisyKzIprrzVvmbfMWxUVkimZkjl1qkQkIhHl6w50IlNqSk3pxo2B9wLvBd579NHwyvDK8Mq9e13vSjT8Q9bBYo80SktNrak1tc89p1mapVnJya53Af71449mgBlgBjz+ePSD6AfRD15+2fWiRBFwPSAxBALePm+ft+9Pf4odP/884QC6ih499Bv9Rr956aXggeCB4IHly2NvD/DvXzvxBWynYGmwNFhaWSmFUiiFd9/teg+A89MCLdCCe+7xXvFe8V75/e9d7+nueArLkhf0gl6woEBUVHT1atd7AFw8zdVczZ06NRwKh8KhNWtc7+lueARykcaZcWac6dVLciVXchctcr0HgD2TY3JMzvPPXx26OnR1qGdP13u6GwJykU5uOrnp5Kb775dtsk22DR3qeg+Adlgki2TRsGH90vql9Uu77z7Xc7obAnKR9Iye0TMzZ7reAaADVUqlVBYWup7R3RCQC3TjAzc+cOMDgwfLO/KOvON5rvcA6ECZkimZ2dnZjdmN2Y3p6a7ndBcE5AL1GNxjcI/BnscLAYEE9NP3dUtNS01LTUaG6zndBQG5UGtlraxNS3M9A0AnelPelDcHDXI9o7sgIBfIPGQeMg8NGOB6B4DOow/qg/rgwIGud3QXBORC3SP3yD28shxIaHyfXxQCAgCwQkAAAFYICADACgEBAFghIAAAKwQEAGCFgAAArBAQAIAVAgIAsEJAAABWCAgAwArXfPGrJ+QJeaKx0dSZOlNXVNRyecvlLZdv2bJn7p65e+aePu16Hromz/M8z+vdW5/RZ/SZnBxz1pw1Z6uqZIEskAU33OB6H+KLgPiM2Wl2mp0nTmi2Zmv2hAnRaDQajR486HoXuodIJBKJRL7/XibLZJm8cWMsKBMmmCpTZar27tU5OkfnXHGF652ID57C8hn9RD/RT95/PxKNRCOEA+0UC0pTUywc777reg/ii4D4zXAZLsMJBzpYWMIS/uIL1zMQXwTEZ0yFqTAVxrjeAaD7IyAAACsEBABghYAAAKwQEACAFQLiNymSIim9e7uegQRzXI7Lcf678hsC4jP6rr6r7+bk/HSkrvcgMZhNZpPZlJvregfii4D4UjAYewVxWZnrJejeghuDG4Mb58zRhbpQF7b9jwn8gkuZ+FplZfB48Hjw+J13ypfypXy5ebPWaZ3WHTvmehm6qJCEJNS/v5ln5pl5eXlapmVaRjj8ioD4nI7X8To+Ozt21HYL/N9ijzhcr4BrPIUFALBCQAAAVggIAMAKAQEAWCEgAAArBAQAYIWAAACsEBAAgBUCAgCwQkAAAFYICADACtfC8qv5Ml/m796tI3SEjpgzJ7l/cv/k/rt27RiyY8iOIc3Nrueha8pNzU3NTU1JaS5tLm0uHTdOsiVbskOh2EUVhw93vQ/xRUB8xmw32832r7/Wm/VmvXnChHA0HA1Hv/3W9S50D1uPbj269ejJkzJP5sm89eszijOKM4obGpIkSZKkvj72XvxhKb/gKSyf0SN6RI+sWROJRqIRwoF2qg/Vh+pDjY2xo82bXe9BfBEQn9FROkpHHTzoegcSzDpZJ+u++ML1DMQXAQHQbma5WW6WG+N6B+KLgAAArBAQAIAVAgIAsEJAAABWCIjPtOa35rfmX3qp6x1ILDpdp+v0Pn1c70B8ERCf0Tqt07qcHNc7kEgCAZkhM2TG2LGulyC+CIgvTZzoBb2gF7z3XtdL0J2peku9pd7Sp58WFRW97jrXixBfXMrEr1RUtLra2+Bt8DbcdZfkSZ7kbdkiq2SVrDpxwvU8dFFTZIpMSU2VCqmQivHjpVqqpdrzXM+CGwTE78qlXMrz8mIHbbfAeYQkJCHXI9BV8BQWAMAKAQEAWCEgAAArBAQAYIWAAACsEBAAgBUCAgCwQkAAAFYICADACgEBAFghIAAAK1wLy6/my3yZv3u3jtAROmLOnOT+yf2T++/atWPIjiE7hjQ3u56Hrik3NTc1NzUlpbm0ubS5dNw4yZZsyQ6FtEzLtGz4cNf7EF8ExGfMdrPdbP/6a71Zb9abJ0wIR8PRcPTbb13vQvew9ejWo1uPnjwp82SezFu/PqM4ozijuKEhSZIkSerrY+/Vu7frnYgPnsLyGT2iR/TImjWRaCQaIRxop/pQfag+1NgYO9q82fUexBcB8RkdpaN01MGDrncgwayTdbLuiy9cz0B8ERAA7WaWm+VmuTGudyC+CAgAwAoBAQBYISAAACsEBABghYAAAKwQEACAFQICALDCpUzQKbxt3jZv229+I43SKI1XXeV6j2+FJCShvXsjkUgkEvnrX13PQWIhIOhQ48w4M8706nWq+lT1qeqVK2WZLJNlAR7pOtJ27TO5RC6RS9LSXO9BYiEg6FCnMk9lnspsCwbhcC120cxkvs/RKfgGBwBYISAAACsEBABghYAAAKwQEACAFQICALBCQAAAVggIAMAKAQEAWCEg6FAjRowYMWLEDz+YSlNpKvfvd73H9ybKRJm4Z4/rGUhMXOIAHaqmpqampubcOamRGqm59lrXe3wvIhGJuB6BRMUjEACAFQICALBCQAAAVggIAMAKAQEAWCEgAAArBAQAYIWAAACsEBCfac1vzW/Nv/RS1zuQWHS6Ttfpffq43oH4IiA+o3Vap3U5Oa53IJEEAjJDZsiMsWNdL0F8ERBfmjjRC3pBL3jvva6XoDtT9ZZ6S72lTz8tKip63XWuFyG+uBaWX6moaHW1t8Hb4G246y7JkzzJ27JFVskqWXXihOt56KKmyBSZkpoqFVIhFePHS7VUS7XnuZ4FNwiI35VLuZTn5cUO2m6B8whJSEKuR6Cr4CksAIAVAgIAsEJAAABWCAgAwAoBAQBYISAAACsEBABghYAAAKwQEACAFQICALBCQAAAVggIfM1UmSpT9d13ZolZYpY8/bQYMWJGj+7xdo+3e7zdu3fbrV6v1+v1o0bJbJkts596yuwwO8yOo0dd7wdc4mKK8CUzz8wz87Zta9nesr1l+5137pm7Z+6euUeO/PwOQ2SIDPnvj9q7V1bKSlm5d6/3qveq9+rSpTJBJsiEtWtlk2ySTbfc4vq8gHjiEQh8xXxsPjYfNzToAl2gC3796/8RjgsUiUaikei33ybNSpqVNGvy5Ngjl337XJ8fEE8EBL5i6k29qX/kkVgAjh9v7+fbdc2ua3Zdc+KEudXcam595BHX5wfEEwGBP5RIiZR89VVdTl1OXc7f/tbRnz66MLowunDDBrPNbDPb/vlP16cLxAMBgT80SIM07NoVOzCmc+7EGDkmx+RYNOr6dIF4ICDwh2RJluTvv+/su9Hb9Da97fRp16cLxAMBgT+sk3WybujQzr4bs8lsMps6/36AroCAwEfGjMk6lHUo61Bqakd/5oyPMj7K+GjAAOkrfaXvmDGuzxSIBwICH+nRo/WO1jta7ygv7+jPHLgycGXgyqee0izN0qxkXl8FXyAg8JcH5AF54NFHM4szizOL8/Pb++kyZ2bOzJw5fbq+oC/oCw8/7Pr0gHgiIPCXZbJMlgUCrTNbZ7bOXLUqGA1Gg9GKitGLRi8avahPn//vw3NTc1NzU1NSPM/zPK+y0uSZPJP3l79IRCISUXV9ekA88VAbvqSzdbbOTkqKHT35ZPLO5J3JO4uLg/2C/YL9/v53nabTdNqBAz9/wH7ZL/tHjmxuaW5pbvnVr7RIi7QoJSUWJNdnA7hBQAAR0TE6Rsf07Rs7ys8/XxhUVHiYAcTwFBYAwAoBAQBYISAAACsEBABghYAAAKwQEACAFQICALBCQID/dL/cL/e3tsYOmprabs0Ss8QsOXfO9TygKyEg8KdsyZbsf/0rdvDcc609W3u29szKumzWZbMum9WzZyQSiUQigwa13Y5cNHLRyEU9e8be3/PMWDPWjF2wwFSZKlP13XeuTwdwgVeiw1fMWrPWrF2xIikpKSkpqaSkNr02vTb96NGf3+E8LzWvqampqalpewQSjcaufRWN3rj4xsU3Ln7++eSC5ILkgj/+UWqkRmpmzXJ9nkA8EBD4grneXG+u/93vokOjQ6NDFy7sqM+7W3frbm17JHPffZmDMgdlDvrHP0yaSTNpL77o+ryBzsRTWPCBJUuiK6Mroys7LhznEz4cPhw+/NJLUiiFUlhV5frMgc5EQJCYSqRESr76Knbw2GPxvvvm9Ob05vTHHzdbzBaz5T+u6gskEAKChGSWmWVmWWVl7Ifg338f7/v/bNpn0z6bdvas5Equ5P7hD66/HkBnICBILD/9Gm7SlUlXJl25Zo3rOUnvJL2T9M6aNabW1JralhbXe4CORECQUMwwM8wM+/zz2pramtqar792vaftt7z0bX1b396/3/UeoCMRECQULddyLW/72UfXEfvTt11vF9AeBASJpVIqpbLtT9V2HTpJJ+mkZH5tHgmFgCCxrJf1sn7QINcz/pupNJWmcvBg1zuAjkRAkFjOyBk5M3JkdmN2Y3ZjerrrOTfl3JRzU86gQfqmvqlvXnON6z1ARyIgSCwRiUhEtaWopailaOpU13P0WX1Wny0oaNvleg/QkQgIEpIWaqEWlpfnpuam5qampMT7/m9YfcPqG1ZfdpmWaZmWlZW5/noAnYGAIDG9LC/LywMHntl6ZuuZrfG/pEivg70O9jrYdr9paa6/HEBnICBIbIVSKIV33+15nud5zz4be2NnPZWk6i31lnpLn3lG39A39I3f/tb16QOdiYDAR556ygt6QS+4alUsKO1/ZND2Q/Lg4eDh4OHVq6VaqqV6/nzXZwrEAwGBv6ioaEGBZEmWZDU2BhuCDcGGUCgWlF/+8nw/M4n9VlffvsGHgw8HHx4/3jvkHfIOvfJKYHRgdGD0/v16u96ut7v/oT0QT7ywCf5UK7VS26ePztAZOqOoKPbGoqIzw84MOzNMxCvwCryC06fb3v3c9HPTz03v0+fnvzc1RabIFNcnAbhFQID/zU+BcT0D6Mp4CgsAYIWAAACsEBAAgBUCAgCwQkAAAFYICADACgEBAFghIAAAKwQEAGCFgAAArBAQAIAVAgIAsEJAAABWCAgAwAoBAQBYISAAACsEBABghYAAAKwQEACAFQICALBCQAAAVggIAMAKAQEAWCEgAAArBAQAYIWAAACsEJALZGaZWWaWMa53AOg8fJ9fHAJygXSSTtJJ333negeATpQv+ZL/zTeuZ3QXBOQCtW5s3di6MRx2vQNA5wkUB4oDxXyfXyh1PaB7CQSC7wffD76/Z48+qU/qk7/4hetFADrKJ59EIpFIJJKRETtubXW9qKvjEchFaW01n5pPzacPPhg7/vFH14sAtEOmZErm2bN6QA/ogdmzY28kHBeKgFykusfqHqt77KOPYkfTpslD8pA8dOqU610ALpxZbBabxSdParqma3pBQfhY+Fj42Natrnd1N0muB3RXTU1NTU1N+/YNTBuYNjBtxQodpaN0lKq8Lq/L61dcob20l/ZKSZGwhCWcnOx6L+BLs2W2zP7hB6mVWqn9/PPYG//8Z/Oh+dB8WFgYXRFdEV3Bzzxs/RuoXQMjLRSJxAAAACV0RVh0ZGF0ZTpjcmVhdGUAMjAyMi0xMS0wMVQwOToxNTo1NCswODowMOcImQkAAAAldEVYdGRhdGU6bW9kaWZ5ADIwMjItMTEtMDFUMDk6MTU6NTQrMDg6MDCWVSG1AAAAU3RFWHRzdmc6YmFzZS11cmkAZmlsZTovLy9ob21lL2FkbWluL2ljb24tZm9udC90bXAvaWNvbl9zZm9naG81Z29kay9zZXJ2ZXItaG9zdC1mdWxsLnN2ZwC0q9QAAAAASUVORK5CYII=;" vertex="1" parent="1">
          <mxGeometry x="45" y="607.75" width="120" height="120" as="geometry" />
        </mxCell>
        <mxCell id="yQNdhb8caFljwRBjTB0E-143" value="" style="shape=image;imageAspect=0;aspect=fixed;verticalLabelPosition=bottom;verticalAlign=top;fontFamily=Times New Roman;fontSize=6;image=data:image/png,iVBORw0KGgoAAAANSUhEUgAAAMgAAADIEAYAAAD9yHLdAAAABGdBTUEAALGPC/xhBQAAAAFzUkdCAK7OHOkAAAAgY0hSTQAAeiYAAICEAAD6AAAAgOgAAHUwAADqYAAAOpgAABdwnLpRPAAAAAZiS0dEAAAAAAAA+UO7fwAAAAlwSFlzAAAASAAAAEgARslrPgAAC1tJREFUeNrt3V9M1fUfx/H3m8MfdaQkYfKnmg7ddCPlHKAJGCT9TGIua9JatdT+SOXGRRdtplmmk7XsIl3lRXNFtuaflqnJys2hQ2pxDsROuWqYlekppwFFJnI4n9/Fid+FjWmf34HP4fh83B3OBa8dxufJl3M4iAAAAAAAAAAAAAAAAAAAAAAAAAAAAAAAAAAAAAAAAAAAAAAAAAAAAAAAAAAAAADA8NT1gNFSUFBQUFBw/fVpDWkNaQ0+n2yTbbItO9uETMiEpkyReqmX+uRk1zsBjAFbZItsCYc1W7M1++xZeVKelCdDof7V/av7VwcCwWAwGAx2d7ueOdISLiD5W/K35G9JS5s4Y+KMiTMee0zX6lpdu3SpaTNtpm3+fC3WYi0mFABiL3rOhMP6nD6nzx09KofkkBzas6d3We+y3mXbt3fVd9V31ff3u94ZKwkSEFVvvjffm798uU7SSTrpxRejH7/5ZtfLAEBKpVRKf/xRWqVVWl94IRAIBAKBxsbonca4nmfL43qArQpTYSrMuHGZkzMnZ07evl2/1W/123XrovdOmuR6HwD8zyk5JacyMqI3lizJqcupy6mbNSurJqsmq6ap6ddDvx769dDAgOuZ/9aYuwKZY+aYOSYjw9Pn6fP0HT6slVqplYWFrncBgJ329rA/7A/7q6o6tVM7tafH9aKrleR6wNWKXnEkJ3ve97zveX/3bsIBIDF4vZ7znvOe87t2DZ1zrhddrTETkL7evt6+3k2b9FV9VV+9807XewAgVvQuvUvv+s9/+or6ivqKNmxwveeqd7secCUli0sWlyyeNm0wZzBnMOebb8QvfvGnprreBQAxVyRFUnTpUvScmz07+mT7iROuZw0n7q9AwtXh6nD1pk2EA0DCGzrn7pF75J71613PuZK4DUhZZllmWeZ112mqpmrqvfe63gMAoyZHciRn6dKhc9D1nOHEbUD6q/ur+6trauRNeVPeTEtzvQcARs3f597FWy7ecvGWRYtczxlO3AYkMjsyOzK7stL1DgBwRkVF77jD9YzhxG1A5HF5XB6/6SbXMwDAma2yVbbm5bmeMZz4Dch4GS/js7NdzwAAZz6QD+SDnBzXM4YTtwHRNbpG18Tvk0cAMOIGZEAG4vetmeI2IACA+EZAAABWCAgAwAoBAQBYISAAACsEBABghYAAAKwQEACAFQICALBCQAAAVggIAMAKAQEAWCEgAAArBAQAYIWAAACsEBAAgBUCAgCwQkAAAFYICADACgEBAFghIAAAKwQEAGCFgAAArBAQAIAVAgIAsEJAAABWCAgAwAoBAQBYISAAACsEBABghYAAAKwQEACAFQICALBCQAAAVggIAMAKAQEAWCEgAAArBAQAYIWAAACsEBAAgBUCAgCwQkAAAFYICADACgEBAFghIAAAKwQEAGCFgAAArBAQAIAVAgIAsEJAAABWCAgAwAoBAQBYISAAACsEBABghYAAAKwQEACAFQICALBCQAAAVggIAMAKAQEAWCEgAAArBAQAYIWAAACsEBAAgBUCAgCwQkAAAFYICADACgEBAFghIAAAK+p6wHCKLhRdKLpw001yWA7L4ZQU13sAYNQtkAWyYGDAP8E/wT/h1CnXcwAAAAAAAAAAAAAAAAAAAAAAAAAAAAAAAABgBMTte2F5273t3vYNGzRDMzRjyhTXewBgtJke02N6zp5t97Z7273PP+96z+WSXQ8Yjr6tb+vbDzwgx+SYHMvPd70HAEablmmZlnV1RW/FX0B4O3cAgBUCAgCwQkAAAFYICADACgEBAFiJ24CYalNtqvv7Xe8AAFfi/RyM24BomqZp2i+/uN4BAK7oWl2ra0+fdr1jOHEbEBM0QRM8c8b1DgBw5j65T+6L33MwbgMiTdIkTe3trmcAgDMzZabMjN9zMG4DMtg02DTYtHev6x0A4Iqn0dPoaTxwwPWO4cRtQDq1Uzv1hx9Ms2k2zR0drvcAwKiplEqpDAS+2P/F/i/2nzzpes5w4jYgQ7RSK7XypZdc7wCA0RJZFVkVWbV+vesdVxL3AQkEAoFA4KOPZKNslI2ffeZ6DwCMrJaWjukd0zum79/vesmVxH1AooxRv/rVv2KFlEiJlPT0uF4EADFTL/VS3909WDZYNlj26KOu51ytuP1/IMPxeX1en3fhQrPNbDPbDh7Up/Qpfcrjcb0LAP61OqmTukhE7pa75e7FiwN5gbxA3sGDrmddrTF38IZCoVAodOJE7vjc8bnjv/5apspUmVpTI2fkjJxJTXW9DwCuqFiKpfjPPyPPRJ6JPPPgg+1Z7VntWfv2uZ71b425K5DL+Xw+n8/n9ZoW02Jadu/Wci3X8unTXe8CgH8wYsScOKHpmq7ptbX+o/6j/qNj91WmYz4gQ6K/2kpJMWLEyIoVOk/n6byNG+Vz+Vw+z8pyvQ/ANejv5zaiN15+Of2R9EfSH3nttSN6RI/oxYuu5/2/EiYgl4temUyYEGmONEeaFy3S7bpdty9Zou/oO/pOaal5w7xh3sjN1VW6SleNG+d6L4Cxx7xuXjevX7yoT+vT+vTp02aZWWaWtbZG7/3wQ23URm385JPoq0kvXHC9N9YSNiBXq/jn4p+Lf87MNF+aL82Xkya53oPYMPkm3+QXFMhD8pA85PAdDd6T9+S9JUu0S7u0Kxh0/bggNnSuztW5vb1teW15bXnnz7ve4+xxcD0AGAmFpYWlhaVFRUn9Sf1J/W1trnZE0iJpkbTi4o7WjtaOVr/f9eMCxNIY+TsQAEC8ISAAACsEBABghYAAAKwQEACAFQICALBCQAAAVggIAMAKAQEAWCEgAAArBAQAYIWAAACsEBAAgBUCAgCwQkAAAFYICADACgEBAFghIAAAKwQEAGCFgAAArBAQAIAVAgIAsEJAAABWCAgAwAoBAQBYISAAACsEBABghYAgISXvSt6VvOv3313vkM2yWTb39LieAYyEZNcDRodq4ebCzYWb589PSk9KT0qvqpKFslAWTp3qehlGRqQv0hfpS0kRn/jEZ4wEJCAB1VEb8Pfn9dR56jx1q1f7vvd97/s+HHb9uCDG9sge2RMOy07ZKTtPndJZOktnHTjg3+Hf4d/x1Veu54200fuGGmVz6+fWz62fMSNpQ9KGpA07dugCXaALSkpc7wKQwIZ+YPGLX/x79oQD4UA4sHJlp3ZqpybelWjCBWQoHJ4WT4unpbVVVFT0hhtc7wJwDVon62RdZ+df/X/1/9VfXn78/uP3H7+/r8/1rFjxuB4QW6q5A7kDuQMffxwNx8yZrhcBuIYdkSNyZOrU5MnJk5MnT5wYag41h5qbmlzPipWEeRLd+7D3Ye/D5eXRcNx2m+s9ADBEQxrS0MqVc8wcM8dkZLjeEysJExB9V9/Vd6uqXO8AgH/wi1/8qameBk+Dp6G83PWcWEmYgMgr8oq8kpXlegYADEcLtVALb7zR9Y5YSZyA7JSdsvP8edczAGBY02SaTDt3zvWMWEmYgJh5Zp6Z19zsegcAXM60mTbTFg5H/w6tpcX1nlhJsJfxJiX5fD6fz9fWFr3t9bpeBABixIh5661Ae6A90P7EE67nxErCXIFERSLRL9Ty5War2Wq2/vGH60UArl2mwTSYhu++uzRwaeDSwLPPut4TawkWEJFo4YNBU2EqTMX8+bJG1sia48dd7wJwrfn005RzKedSzt1+ezAYDAaD3d2uF8Vagv0K659qa2tra2s9npO3nrz15K01NWav2Wv2VlVFr1Sys13vAzB2mX1mn9kXDstv8pv89tNPSRVJFUkV+/f7u/3d/u5jx1zvAwAAAAAAAAAAAAAAAAAAAAAAAAAAAAAAAAAAAAAAAAAAAAAAAAAAAAAAAAAAAACX/gujjA+n2Kvd+wAAACV0RVh0ZGF0ZTpjcmVhdGUAMjAyMi0xMS0wMVQxMToxMDoxOCswODowMIXHBNgAAAAldEVYdGRhdGU6bW9kaWZ5ADIwMjItMTEtMDFUMTE6MTA6MTgrMDg6MDD0mrxkAAAASXRFWHRzdmc6YmFzZS11cmkAZmlsZTovLy9ob21lL2FkbWluL2ljb24tZm9udC90bXAvaWNvbl96dTJkenNramhwL2RpYW5uYW8uc3ZnXzvguwAAAABJRU5ErkJggg==;" vertex="1" parent="1">
          <mxGeometry x="50" y="310" width="110" height="110" as="geometry" />
        </mxCell>
        <mxCell id="yQNdhb8caFljwRBjTB0E-147" style="edgeStyle=orthogonalEdgeStyle;rounded=0;orthogonalLoop=1;jettySize=auto;html=1;fontFamily=Times New Roman;fontSize=6;" edge="1" parent="1" source="yQNdhb8caFljwRBjTB0E-144">
          <mxGeometry relative="1" as="geometry">
            <mxPoint x="105" y="600" as="targetPoint" />
          </mxGeometry>
        </mxCell>
        <mxCell id="yQNdhb8caFljwRBjTB0E-144" value="客户现金管理前端" style="whiteSpace=wrap;html=1;fontSize=6;fontFamily=Times New Roman;verticalAlign=top;" vertex="1" parent="1">
          <mxGeometry x="45" y="420" width="120" height="30" as="geometry" />
        </mxCell>
        <mxCell id="yQNdhb8caFljwRBjTB0E-149" value="Ukey前置机" style="whiteSpace=wrap;html=1;verticalAlign=top;" vertex="1" parent="1">
          <mxGeometry x="45" y="740" width="120" height="30" as="geometry" />
        </mxCell>
        <mxCell id="yQNdhb8caFljwRBjTB0E-151" value="用户端" style="rounded=0;whiteSpace=wrap;html=1;fontFamily=Times New Roman;fontSize=6;" vertex="1" parent="1">
          <mxGeometry x="40" y="175" width="120" height="60" as="geometry" />
        </mxCell>
        <mxCell id="yQNdhb8caFljwRBjTB0E-159" value="" style="edgeStyle=orthogonalEdgeStyle;rounded=0;orthogonalLoop=1;jettySize=auto;html=1;fontFamily=Times New Roman;fontSize=6;" edge="1" parent="1" source="yQNdhb8caFljwRBjTB0E-155" target="yQNdhb8caFljwRBjTB0E-126">
          <mxGeometry relative="1" as="geometry" />
        </mxCell>
        <mxCell id="yQNdhb8caFljwRBjTB0E-155" value="外联前置&lt;br&gt;&lt;font face=&quot;Times New Roman&quot;&gt;110.53.243.151：9002&lt;/font&gt;" style="whiteSpace=wrap;html=1;verticalAlign=top;" vertex="1" parent="1">
          <mxGeometry x="250" y="400" width="120" height="40" as="geometry" />
        </mxCell>
      </root>
    </mxGraphModel>
  </diagram>
</mxfile>
